<?xml version="1.0" encoding="UTF-8" standalone="no"?>
<svg
   xmlns:dc="http://purl.org/dc/elements/1.1/"
   xmlns:cc="http://creativecommons.org/ns#"
   xmlns:rdf="http://www.w3.org/1999/02/22-rdf-syntax-ns#"
   xmlns:svg="http://www.w3.org/2000/svg"
   xmlns="http://www.w3.org/2000/svg"
   xmlns:sodipodi="http://sodipodi.sourceforge.net/DTD/sodipodi-0.dtd"
   xmlns:inkscape="http://www.inkscape.org/namespaces/inkscape"
   version="1.1"
   id="svg2"
   xml:space="preserve"
   width="467.74667"
   height="436.33334"
   viewBox="0 0 467.74667 436.33334"
   sodipodi:docname="air-jordan-seeklogo.com.eps"><metadata
     id="metadata8"><rdf:RDF><cc:Work
         rdf:about=""><dc:format>image/svg+xml</dc:format><dc:type
           rdf:resource="http://purl.org/dc/dcmitype/StillImage" /></cc:Work></rdf:RDF></metadata><defs
     id="defs6" /><sodipodi:namedview
     pagecolor="#ffffff"
     bordercolor="#666666"
     borderopacity="1"
     objecttolerance="10"
     gridtolerance="10"
     guidetolerance="10"
     inkscape:pageopacity="0"
     inkscape:pageshadow="2"
     inkscape:window-width="640"
     inkscape:window-height="480"
     id="namedview4" /><g
     id="g10"
     inkscape:groupmode="layer"
     inkscape:label="ink_ext_XXXXXX"
     transform="matrix(1.3333333,0,0,-1.3333333,0,436.33333)"><g
       id="g12"
       transform="scale(0.1)"><path
         d="m 1905.69,3049.49 c -1.34,7.13 -2.25,14.51 -2.77,21.98 -7.19,103.53 70.74,193.31 174.27,200.61 103.63,7.21 193.39,-70.82 200.61,-174.36 7.23,-103.53 -70.73,-193.31 -174.25,-200.6 -6.55,-0.5 -13.03,-0.59 -19.38,-0.34 -4.2,-1.08 -6.72,-1.59 -10.33,-4.78 -10.65,-16.6 27.1,-13.51 1.43,-86.08 0,0 -0.16,-7.96 -3.02,-15.94 -2.01,-27.85 -12.74,-110.41 -14.26,-154.38 5.45,-6.37 6.98,-9.47 6.38,-24.92 -2.43,-20.89 -7.23,-72.08 -14.94,-104.88 -6.53,-28.11 -18.01,-33.47 -27.25,-40.36 -13.01,-58.23 -16.45,-106.47 -49.83,-177.2 -3.02,-53.61 -6.79,-68.22 -18.04,-94.4 -1.25,-78.95 4.2,-90.7 -49.07,-215.71 -13.76,-58.47 -0.68,-98.91 13.84,-159.66 14.85,-62.43 56.05,-88.52 62.16,-152.45 14.44,-150.57 10.82,-253.09 -21.48,-371.14 l 28.2,-66.78 c 34.98,-16.04 121.82,-59.92 73.67,-129.38 67.8,-35.64 170.24,-73.48 254.71,-145.751 33.99,-28.289 69.89,-59.149 102.11,-95.379 61.34,-9.559 54.78,-14.43 100.25,-42.36 133.66,-81.968 348.03,-244.55 472.29,-359.671 21.39,-12.5 30.11,-21.5 47.4,-30.559 2.69,-5.18 3.45,-6.371 2.84,-7.781 -5.94,-15.028 -5.71,-15.457 -11.07,-27.43 6.71,-7.418 19.21,-14.348 26.68,-20.828 6.98,-2.18 6.98,1.168 18.96,4.109 15.61,-14.601 34.92,-26.371 41.86,-25.679 21.16,5.371 17.55,1 35.42,20.98 6.43,6.629 17.19,-0.082 17.19,-0.082 6.71,7.871 21.15,23.582 40.38,34.922 15.34,9.051 44.63,10.039 44.63,10.039 9.81,-0.078 7.96,-10.141 7.12,-13.41 -11.07,-5.719 -34.56,-12.008 -47.73,-21.731 -28.7,-29.687 -51.19,-69.73 -51.19,-69.73 57.8,7.891 93.3,-6.449 141.46,-0.93 26.26,1.52 45.66,-0.168 73.24,19.789 0,0 26.51,18.871 50.27,28.883 23.07,10.051 44.96,4.688 65.26,-10.07 14.35,-16.18 22.98,-16.27 1.17,-39.11 -7.88,-8.882 -19.3,-18.793 -33.8,-33.14 -25.51,-25.18 -59.84,-58.789 -95.4,-86.582 -36,-28.11 -76.85,-53.36 -102.36,-64.938 -64.35,-46.2302 -49.17,-34.1404 -99.75,-79.9607 -6.38,-5.7187 -23.32,-15.9297 -31.55,-21.3906 -19.96,-13.10939 -26.18,-2.1797 -39.19,21.8203 0,0 -5.94,8.9609 -15.77,28.1016 -10.73,20.8789 -18.79,44.7774 -15.53,44.3784 -11.99,1.512 -65.94,64.77 -66.09,78.36 -11.42,2.601 -60.1,49.742 -61.84,58.742 l -43.12,34.566 c -49.34,-10.257 -60.65,20.383 -190.95,112.84 -14.86,0.25 -37.83,8.293 -70.75,32.703 -58.79,47.09 -199.84,153.641 -223.75,165.809 -25.68,13.082 -56.37,25.41 -75.18,40.941 -28.2,5.2 -43.63,8.141 -57.73,12.079 -14.41,3.941 -27.52,9.039 -64,13.929 -59.4,7.383 -121,31.961 -179.63,61.332 -27.78,13.149 -51.94,19.86 -75.84,30.117 -53.63,22.653 -99.6,43.043 -135.22,51.262 -13.59,1.352 -78.2,20.731 -112.09,40.52 -11.74,6.05 -18.54,11.84 -26.26,13.601 -17.78,4.09 -29.21,-2.941 -37.23,-5.64 -43.47,-22.641 -84.16,-42.192 -121.76,-62.422 -34.99,-18.707 -67.21,-38.16 -101.35,-57.821 -30.8,-17.777 -66.38,-34.546 -102.95,-52.007 0,0 -104.3,-52.27 -161.26,-72.59 C 1105.11,571.211 1004.09,501.41 942.438,466.84 911.906,452.332 852.586,414.738 825.223,406.34 809.609,393.77 753.992,354.082 710.445,321.352 676.805,296.18 651.379,274.961 651.379,274.961 631.84,257.43 633.168,249.121 596.008,264.91 585.684,256.441 577.723,251.148 571.09,246.281 544.25,226.809 541.969,231.512 532.164,232.02 c -18.715,-16.2 -21.062,-7.821 -37.422,-26.45 -10.742,-16.621 0.25,-12.66 -22.41,-20.718 -4.773,-1.852 -7.043,-7.614 -10.73,-10.821 -18.211,-15 -18.282,-57.39 -61.914,-60.41 C 374.43,95.5898 380.891,73.832 361.598,74.7813 362.773,56.082 327.449,28.8008 321.082,28.8789 265.445,9.67969 261.586,50.6016 194.801,20.0703 186.152,16.1211 173.488,5.19922 156.793,2.03125 127.43,-3.5 91.9336,2.28906 70.2891,19.0586 36.2188,45.3203 4.84766,96 4.84766,96 -5.98047,121.59 0.3125,137.789 34.1211,161.961 c 14.0937,8.969 16.6953,15.68 40.3633,17.289 11.7461,4.441 8.5547,-2.352 29.5386,5.191 12.165,4.36 12.165,1.25 36.661,3.348 5.617,3.77 13.504,5.121 24.074,8.563 19.383,6.386 38.269,13.507 38.269,13.507 0,0 4.938,4.95 23.575,3.18 15.773,6.461 31.968,16.043 40.277,18.981 -2.106,24.98 0.578,23.812 12.156,33.878 14.43,12.434 17.028,10.403 27.778,2.704 4.531,2.597 6.71,3.507 6.207,7.296 -1.766,13.012 -12.915,19.133 -9.555,47.813 -4.961,11.488 -12.258,25.668 -10.656,34.23 2.347,9.239 4.621,13.688 10.23,16.629 5.969,3.168 7.891,-1.109 11.082,-4.699 5.695,-6.641 10.32,-26.269 10.32,-26.269 2.012,-22.161 8.887,-50.852 30.786,-34.661 12.914,13.098 15.429,47.989 41.773,40.52 l 18.797,-16.34 c 15.949,15 16.707,15 26.266,21.027 0,0 -14.938,15.114 -1.84,26.864 8.972,7.976 19.789,13.687 39.011,34.988 52.766,58.309 79.864,84.07 136.934,131.059 113.848,93.652 243.391,159.32 325.699,191.972 26.836,34.071 52.946,56.711 112.513,62.438 70.8,119.562 206.39,226.341 237.53,243.381 25.33,45.9 36.32,41.02 69.46,50.24 26.25,21.06 32.21,21.06 43.96,43.04 11.41,45.38 -26.33,166.63 70.05,172.75 20.48,28.94 15.36,21.98 38.18,49.33 -15.43,38.1 -21.81,69.96 -26,97.41 -0.76,3.19 -38.26,29.62 -27.62,64.11 -15.93,18.96 -45.72,63.21 -55.03,83.94 -4.27,-0.09 -7.81,1.51 -12.5,2.16 -4.86,0.78 -10.91,0.5 -17.7,1.09 -15.01,-38.74 -31.37,-41.61 -58.06,-50.16 -47.65,-101.57 -64.43,-144.54 -199.27,-228.51 -53.52,-59.92 -70.64,-126.7 -70.39,-125.7 -9.22,-19.78 -5.96,-47.49 -1.09,-62.34 -7.05,-21.98 -5.21,-24.17 -5.21,-24.17 2.94,-8.3 10.58,-19.3 19.97,-21.63 16.19,-4.29 32.39,-3.61 31.45,-21.64 -2.17,-22.57 -31.79,-18.88 -45.8,-16.36 -53.955,8.56 -36.91,43.72 -71.408,31.98 -26.429,-17.28 -36.328,-68.3 -79.457,-61.68 -5.703,3.77 -3.945,14.93 -0.093,22.99 6.05,12.59 16.781,22.99 10.414,27.71 -28.032,-8.82 -84.243,-27.45 -84.243,-27.45 -26.429,-7.21 -55.382,5.96 -29.367,23.33 12.09,4.7 29.367,10.58 50.684,24.24 0,0 10.976,14.95 -10.074,7.46 -23,-8.22 -56.891,-13.33 -81.215,-10.64 0,0 -50.426,6.62 -56.891,10.58 -6.547,3.95 -12.5,19.54 3.278,19.45 19.968,-0.17 69.968,5.71 108.734,16.03 18.715,7.3 54.289,28.35 74.258,38.26 0,0 21.644,31.54 33.558,37.75 19.879,22.9 36.664,36.42 54.274,59.83 17.207,35.5 34.988,91.7 91.948,178.71 26.35,40.1 59.08,86.83 100.27,128.59 0,0 10.66,66.86 64.27,114.43 11.84,27.87 29.79,60.67 47.5,91.04 6.88,11.66 13.41,21.81 19.96,32.89 16.62,26.09 34.07,74.67 98.84,82.31 0,0 27.68,20.47 38.34,35 16.62,14.17 12.84,36.23 26.34,51.77 -20.64,20.13 -73.41,57.97 -78.54,110.58 -5.45,55.79 14.43,101.69 48.16,135.66 37.42,37.42 76.86,56.12 124.76,53.28 59.82,-8.89 71.14,-28.69 90.18,-48.33 18.29,-18.62 25.1,-6.64 32.81,-28.44 50.18,-13.35 47.41,-7.48 46.98,-44.4 7.72,-10.39 20.64,-20.05 20.47,-41.61 16.87,34.99 20.21,41.44 65.27,79.95 10.66,31.3 17.89,62.08 27.26,93.38 8.77,28.94 19.69,58.73 28.16,81.14 -8.97,63.26 9.46,73.74 34.06,129.2 -4.35,7.64 -3.43,9.81 -1.59,22.32 9.57,36.66 24.5,85.16 33.4,116.79 0,0 2.93,12.58 15.94,13.51 11.25,40.02 28.12,114.53 30.95,129.71 11.59,41.86 4.12,55.3 -4.77,78.87 -2.86,7.73 -1.52,18.72 -6.46,27.28 -14.01,24.41 -29.1,56.13 -39.33,78.79 -6.64,14.42 -17.13,68.8 -17.13,68.8 -8.93,27.79 -1.12,0.02 -1.12,0.02"
         style="fill:#cb997e;fill-opacity:1;fill-rule:nonzero;stroke:none"
         id="path14" /></g></g></svg>
