<?xml version="1.0" encoding="UTF-8" standalone="no"?>
<svg
   xmlns:dc="http://purl.org/dc/elements/1.1/"
   xmlns:cc="http://creativecommons.org/ns#"
   xmlns:rdf="http://www.w3.org/1999/02/22-rdf-syntax-ns#"
   xmlns:svg="http://www.w3.org/2000/svg"
   xmlns="http://www.w3.org/2000/svg"
   xmlns:sodipodi="http://sodipodi.sourceforge.net/DTD/sodipodi-0.dtd"
   xmlns:inkscape="http://www.inkscape.org/namespaces/inkscape"
   version="1.1"
   id="svg2"
   xml:space="preserve"
   width="257.33334"
   height="257.33334"
   viewBox="0 0 257.33334 257.33334"
   sodipodi:docname="Fred_Perry.eps"><metadata
     id="metadata8"><rdf:RDF><cc:Work
         rdf:about=""><dc:format>image/svg+xml</dc:format><dc:type
           rdf:resource="http://purl.org/dc/dcmitype/StillImage" /></cc:Work></rdf:RDF></metadata><defs
     id="defs6" /><sodipodi:namedview
     pagecolor="#ffffff"
     bordercolor="#666666"
     borderopacity="1"
     objecttolerance="10"
     gridtolerance="10"
     guidetolerance="10"
     inkscape:pageopacity="0"
     inkscape:pageshadow="2"
     inkscape:window-width="640"
     inkscape:window-height="480"
     id="namedview4" /><g
     id="g10"
     inkscape:groupmode="layer"
     inkscape:label="ink_ext_XXXXXX"
     transform="matrix(1.3333333,0,0,-1.3333333,0,257.33333)"><g
       id="g12"
       transform="scale(0.1)"><path
         d="M 0,1927.56 H 1927.56 V 0 H 0 v 1927.56"
         style="fill:#ffffff;fill-opacity:1;fill-rule:evenodd;stroke:none"
         id="path14" /><path
         d="m 662.844,773.727 c 18.738,0.457 84.551,-15.997 163.613,-74.954 79.063,-59.179 113.109,-114.253 112.883,-139.617 -21.938,-4.57 -86.836,15.996 -162.926,75.18 -76.32,59.184 -116.086,121.797 -113.57,139.391 z m 601.666,-4.571 C 1246,769.613 1179.96,753.16 1101.12,694.207 1022.06,635.023 987.785,579.953 988.238,554.813 c 21.942,-4.797 86.832,15.769 162.932,74.953 76.09,59.187 116.08,122.023 113.34,139.39 z M 474.094,963.387 c 17.367,-6.395 72.668,-45.699 124.535,-129.563 51.875,-83.863 63.301,-147.617 53.93,-170.922 -22.161,3.653 -74.95,46.387 -124.079,129.332 -49.128,82.95 -63.296,155.844 -54.386,171.153 z m 979.386,-4.567 c -17.59,-6.168 -72.89,-45.703 -124.76,-129.336 -51.65,-84.089 -63.3,-147.847 -53.7,-171.156 22.16,3.656 74.95,46.391 124.08,129.567 49.13,82.722 63.07,155.843 54.38,170.925 z M 585.148,495.863 c 12.571,13.707 70.153,49.586 167.5,65.352 97.575,15.765 160.872,2.055 178.692,-15.766 -11.883,-18.969 -71.52,-51.414 -167.039,-65.129 -95.516,-13.484 -168.41,1.371 -179.153,15.543 z m 757.052,-4.574 c -12.57,13.711 -70.15,49.586 -167.5,65.352 -97.34,15.769 -160.64,2.058 -178.692,-15.766 11.882,-18.961 71.752,-51.414 167.272,-64.895 95.29,-13.71 168.18,1.372 178.92,15.309 z m -912.665,95.289 c 13.942,12.57 74.949,42.274 173.438,47.988 98.488,5.485 160.183,-14.625 176.183,-34.277 -13.941,-17.598 -76.781,-43.648 -172.98,-47.301 -96.438,-3.656 -167.274,18.739 -176.641,33.59 z m 1068.275,-4.344 c -13.93,12.34 -74.72,42.047 -173.43,47.762 -98.49,5.481 -159.96,-14.629 -175.96,-34.277 13.71,-17.594 76.56,-43.645 172.98,-47.301 96.21,-3.66 167.27,18.738 176.41,33.816 z M 263.637,732.824 c 16.226,9.141 82.035,25.137 179.609,9.598 97.348,-15.766 153.106,-48.672 164.527,-71.063 -17.14,-14.398 -84.093,-26.281 -178.925,-9.375 -95.059,17.145 -159.5,54.157 -165.211,70.84 z m 1400.303,-4.57 c -16.22,9.141 -82.26,25.137 -179.61,9.598 -97.57,-15.77 -153.33,-48.672 -164.76,-71.067 17.38,-14.398 84.1,-26.281 179.16,-9.367 94.83,17.137 159.27,54.156 165.21,70.836 z M 249.93,935.055 c 18.734,1.371 85.23,-11.653 167.035,-66.953 81.812,-55.071 118.371,-108.317 119.512,-133.676 -21.707,-5.719 -87.52,11.652 -166.582,67.179 -78.84,55.301 -121.567,115.856 -119.965,133.45 z m 1427.49,-4.571 c -18.51,1.371 -85.23,-11.652 -166.81,-66.722 -81.81,-55.301 -118.59,-108.543 -119.51,-133.91 21.71,-5.711 87.52,11.656 166.35,67.183 78.84,55.297 121.8,115.856 119.97,133.449 z M 395.715,1190.53 c 12.113,-11.43 43.418,-63.07 56.211,-150.36 12.801,-87.065 -0.223,-143.275 -16.449,-159.041 -16.684,10.734 -44.789,64.434 -55.758,149.901 -10.969,85.46 3.426,150.13 15.996,159.5 z m 1135.915,-4.57 c -12.11,-11.2 -43.41,-63.07 -56.21,-150.13 -12.79,-87.291 0.46,-143.506 16.46,-159.275 16.67,10.968 45.01,64.668 55.75,149.905 10.97,85.46 -3.2,150.13 -16,159.5 z M 133.156,1127.69 c 16.457,0.23 74.953,-15.54 144.418,-69.7 69.469,-54.15 98.942,-103.97 98.262,-126.365 -19.652,-3.883 -77.234,15.539 -144.191,69.695 -66.727,54.16 -101.227,110.83 -98.489,126.37 z m 1661.264,-4.57 c -16.68,0.22 -75.18,-15.54 -144.65,-69.7 -69.23,-54.154 -98.71,-103.971 -98.03,-126.365 19.65,-3.883 77.01,15.543 143.96,69.699 66.96,54.156 101.23,110.826 98.72,126.366 z M 184.574,1325.35 c 15.535,-6.4 63.297,-43.42 106.481,-120.2 43.191,-76.55 51.191,-133.91 41.816,-154.47 -19.418,4.11 -65.121,44.33 -105.797,119.96 -40.898,75.87 -50.957,141.45 -42.5,154.71 z m 1558.206,-4.57 c -15.31,-6.17 -63.3,-43.42 -106.49,-119.97 -43.19,-76.78 -51.18,-134.13 -41.82,-154.47 19.66,4.11 65.13,44.1 106.03,119.74 40.91,75.86 50.73,141.44 42.28,154.7 z M 452.383,1434.12 c 4.805,-15.77 6.402,-76.32 -25.363,-158.36 -31.993,-82.03 -71.067,-124.54 -93,-130.48 -9.145,17.83 -7.086,78.38 25.589,158.13 32.676,79.52 77.008,128.88 92.774,130.71 z m 1022.807,-4.34 c -5.03,-16 -6.62,-76.55 25.36,-158.59 31.77,-82.03 71.07,-124.54 92.78,-130.25 9.14,17.6 7.08,78.38 -25.36,157.9 -32.68,79.52 -77.24,128.88 -92.78,130.94 z m -1286.506,97.11 c 14.629,-7.76 58.273,-50.04 92.777,-130.93 34.277,-81.12 36.102,-138.94 24.449,-158.13 -18.965,6.17 -59.867,50.96 -92.09,130.71 -32.222,79.75 -34.961,146.25 -25.136,158.35 z m 1549.976,-4.34 c -14.62,-8 -58.04,-50.27 -92.54,-131.16 -34.51,-81.12 -36.11,-138.94 -24.68,-158.13 18.96,6.17 59.87,50.95 92.09,130.7 32.44,79.98 34.96,146.25 25.13,158.59 z M 337.445,1677.02 c 9.828,-13.25 31.766,-69.69 29.477,-157.67 -2.512,-87.97 -25.133,-141.22 -43.645,-154.01 -14.621,13.71 -33.132,71.29 -29.246,157.44 4.11,85.92 29.246,147.16 43.414,154.24 z m 1252.685,-4.57 c -10.05,-13.25 -31.99,-69.69 -29.48,-157.66 2.51,-87.99 24.91,-141.23 43.65,-154.02 14.62,13.71 33.13,71.52 29.02,157.44 -3.88,85.92 -29.25,147.38 -43.19,154.24 z m -988.298,-36.79 c -1.375,-16.45 -23.082,-73.12 -84.094,-136.64 -61.008,-63.53 -113.566,-87.75 -135.961,-84.78 -1.601,20.1 23.536,75.18 84.317,136.19 60.789,61.01 120.652,89.34 135.738,85.23 z m 716.608,0 c 1.6,-16.45 23.3,-73.12 84.31,-136.64 61.02,-63.53 113.34,-87.75 135.74,-84.78 1.6,20.1 -23.54,75.18 -84.09,136.19 -60.79,61.01 -120.88,89.34 -135.96,85.23 z m -868.795,183.49 c 8.222,-14.39 23.078,-73.12 9.597,-160.18 -13.484,-87.06 -42.734,-136.88 -62.617,-147.16 -13.02,15.31 -23.992,74.95 -9.133,159.73 14.621,84.78 47.297,142.36 62.153,147.61 z m 1028.065,-4.34 c -8.23,-14.62 -22.85,-73.35 -9.37,-160.41 13.48,-86.83 42.5,-136.88 62.61,-147.16 12.8,15.31 23.76,74.95 9.14,159.73 -14.85,84.77 -47.53,142.58 -62.38,147.84 z m -825.382,27.65 c 0.918,-16.68 -12.105,-75.86 -62.836,-147.62 -50.726,-71.97 -98.945,-103.74 -121.57,-104.2 -4.567,19.43 11.883,77.93 62.848,147.16 50.949,69.47 106.023,106.49 121.558,104.66 z m 622.692,-4.57 c -0.92,-16.68 12.11,-75.63 62.84,-147.62 50.73,-71.98 99.17,-103.74 121.57,-104.2 4.79,19.43 -11.89,77.93 -62.84,147.16 -50.96,69.47 -105.8,106.49 -121.57,104.66 z M 811.145,424.109 951.906,538.59 959.449,531.965 839.25,399.203 811.145,424.109 Z m 265.985,-33.136 -114.485,140.535 6.402,7.769 132.993,-120.195 -24.91,-28.109 v 0"
         style="fill:#cb997e;fill-opacity:1;fill-rule:nonzero;stroke:none"
         id="path16" /><path
         d="m 557.957,220.504 v -7.082 c -1.828,0.23 -3.883,0.457 -5.941,0.457 -10.969,0 -11.422,-2.285 -12.571,-8.453 v -51.188 c 7.317,0 13.489,0.461 18.512,1.371 V 128.188 L 544.93,147.84 h -5.485 v -39.301 c 0,-16.2265 4.575,-16.6835 17.828,-18.5117 v -4.9882 h -67.867 v 4.9882 C 503.117,91.6289 507,92.082 507,108.539 v 88.66 c 0,17.141 -6.168,17.594 -17.594,18.508 v 5.027 h 64.668 c 1.141,0 2.285,-0.23 3.883,-0.23 z M 1603.84,85.0391 h -69.46 v 4.9882 c 13.71,1.3711 18.51,1.8282 18.51,18.5117 v 29.477 l -36.8,66.496 c -0.91,1.828 -5.25,9.828 -14.62,10.965 v 0 5.257 h 65.81 v -5.027 c -13.71,0 -16.22,-1.367 -16.22,-6.852 0,-2.972 3.2,-8 4.8,-11.199 l 24.22,-46.613 22.16,37.016 c 1.37,2.285 8,13.254 8,18.738 0,7.769 -7.54,8.226 -16.91,8.91 v 5.027 h 44.1 v -5.027 c -3.88,-0.684 -9.59,-1.598 -13.71,-7.996 l -38.16,-62.383 v -36.789 c 0,-16.6835 4.35,-17.1406 18.28,-18.5117 z m -101,0 h -1.37 v 4.9882 c -2.06,0 -4.57,0.6875 -6.85,3.6563 l -40.45,57.3594 c 10.74,3.426 31.54,9.598 31.54,34.273 0,31.079 -35.88,34.735 -52.79,35.188 v -7.082 c 12.34,-2.055 18.51,-10.965 18.51,-28.559 0,-18.742 -5.48,-26.281 -18.51,-29.254 v -27.421 l 28.76,-43.1489 h 39.79 v 4.9882 c 0.46,0 0.92,0 1.37,0 z m -70.61,0 h -67.86 v 4.9882 c 13.71,1.6016 17.82,2.0547 17.82,18.5117 v 88.66 c 0,17.141 -6.4,17.594 -17.82,18.508 v 5.027 h 64.66 c 1.15,0 2.52,-0.23 3.89,-0.23 v 0 -7.082 c -1.83,0.23 -3.66,0.457 -5.94,0.457 -10.97,0 -11.43,-2.285 -12.34,-8.453 v -51.188 c 7.31,0 13.48,0.461 18.28,1.371 v -27.421 l -12.79,19.652 h -5.49 v -39.301 c 0,-16.2265 4.34,-16.6835 17.59,-18.5117 z m -74.49,0 h -41.16 l -28.54,43.1489 v 0 27.421 c 13.03,2.973 18.51,10.512 18.51,29.254 0,17.594 -6.39,26.504 -18.51,28.559 v 7.082 c 16.69,-0.453 52.79,-4.109 52.79,-35.188 0,-24.675 -20.79,-30.847 -31.54,-34.273 l 40.22,-57.3594 c 2.97,-3.4297 5.94,-3.6563 8.23,-3.6563 z m -70.38,0 h -67.87 v 4.9882 c 13.71,1.6016 17.82,2.0547 17.82,18.5117 v 88.66 c 0,17.141 -6.39,17.594 -17.82,18.508 v 5.027 h 64.67 c 1.14,0 2.52,-0.23 3.88,-0.23 v 0 -7.082 c -1.83,0.23 -3.65,0.457 -5.94,0.457 -10.97,0 -11.42,-2.285 -12.34,-8.453 v -51.188 c 7.31,0 13.26,0.461 18.28,1.371 v -27.421 l -12.79,19.652 h -5.49 v -39.301 c 0,-16.2265 4.34,-16.6835 17.6,-18.5117 z m -86.37,0 h -117.23 v 4.9882 c 11.42,1.1446 17.59,1.8282 17.59,14.1677 v 97.118 c 0,13.253 -8.46,13.71 -17.59,14.394 v 0 5.027 h 115.62 v -40.445 h -5.03 c -4.56,28.566 -18.73,33.59 -45.93,33.59 -10.96,0 -14.62,-0.914 -14.62,-9.594 v -46.39 h 1.14 c 18.51,0 28.34,5.257 31.31,29.707 h 5.25 v -67.641 h -5.25 c -2.29,24.91 -12.57,31.082 -32.45,31.082 v -48.676 c 0,-8.6834 3.88,-11.1951 16.91,-11.1951 19.65,0 40.22,5.2539 52.79,35.4181 h 5.71 z m -172.99,0 h -0.91 v 4.9882 c -13.03,1.8282 -16.69,2.5157 -16.69,18.5117 v 37.242 c 6.4,0 11.89,0 16.69,0.231 v 8.226 c -4.12,-1.14 -8.92,-1.367 -14.4,-1.367 h -2.29 v 53.699 c 0.23,4.34 2.75,7.082 9.6,7.082 2.52,0 5.03,-0.23 7.09,-0.687 v 7.539 0 c -0.46,0.23 -0.92,0.23 -1.38,0.23 h -64.663 v -5.027 c 10.516,-1.141 16.91,-1.598 16.91,-18.508 v -88.66 c 0,-11.4257 -2.969,-13.9413 -5.258,-15.7695 -1.367,-0.914 -1.828,-1.1406 -11.652,-2.7422 v -4.9882 h 66.043 v 4.9882 h 0.91 z m -196.68,0 h -65.648 v 4.9882 c 12.797,0 16.683,5.711 16.683,13.2537 v 98.946 c 0,12.113 -8.687,12.566 -16.683,13.48 v 5.027 h 61.238 c 5.031,0 9.602,-0.453 13.711,-0.914 v 0 -8.683 c -3.883,1.828 -8.223,2.742 -13.254,2.742 -11.191,0 -12.34,-3.883 -12.34,-7.996 v -1.598 -100.773 c 0,-8.0003 1.602,-11.6565 11.43,-11.6565 5.027,0 9.824,0.6875 14.164,2.2851 v -8.2265 c -3.016,-0.375 -6.031,-0.7539 -9.301,-0.875 z m -81.636,0 H 632.223 v 4.9882 c 11.425,1.1446 17.597,1.8282 17.597,14.1677 v 97.118 c 0,13.253 -8.226,13.71 -17.597,14.394 v 0 5.027 h 115.851 v -40.445 h -5.027 c -4.567,28.566 -18.965,33.59 -45.926,33.59 -10.973,0 -14.629,-0.914 -14.629,-9.594 v -46.39 h 0.918 c 18.738,0 28.563,5.257 31.531,29.707 h 5.258 v -67.641 h -5.258 c -2.281,24.91 -12.566,31.082 -32.449,31.082 v -48.676 c 0,-8.6834 3.656,-11.1951 16.91,-11.1951 19.653,0 39.993,5.2539 52.789,35.4181 h 5.481 z m -122.032,0 h -41.156 l -28.539,43.1489 v 0 27.421 c 12.801,2.973 18.281,10.512 18.281,29.254 0,17.594 -6.172,26.504 -18.281,28.559 v 7.082 c 16.68,-0.453 52.555,-4.109 52.555,-35.188 0,-24.675 -20.563,-30.847 -31.532,-34.273 l 40.446,-57.3594 c 2.742,-3.4297 5.711,-3.6563 8.226,-3.6563 z m -190.578,0 h -72.441 v 4.9882 c 11.43,1.1446 17.828,1.8282 17.828,14.1677 v 97.118 c 0,13.253 -8.223,13.71 -17.828,14.394 v 0 5.027 h 113.805 v -40.445 h -4.801 c -4.34,20.793 -9.824,33.59 -44.328,33.59 -10.746,0 -14.399,-0.914 -14.399,-9.594 v -46.39 h 0.914 c 23.992,0 26.965,13.937 29.707,29.707 h 5.028 v -67.641 h -5.028 c -2.054,16.457 -5.258,31.082 -30.621,31.082 v -46.848 c 0,-13.2497 8,-13.7106 22.164,-14.1677 z m 403.547,0.875 v 8.2265 c 15.313,5.4844 25.824,21.4804 25.824,58.7304 0,15.535 -3.199,48.899 -25.824,58.266 v 8.683 c 45.473,-5.254 60.785,-36.789 60.785,-65.121 0,-33.82 -18.281,-63.0701 -60.785,-68.7849 z m 186.469,60.0979 v 8.226 c 11.87,2.746 16.68,10.742 16.68,28.793 0,19.426 -5.26,27.879 -16.68,29.934 v 7.539 c 16.68,0 51.18,-3.879 51.18,-36.789 0,-7.078 -2.29,-21.25 -18.28,-30.391 -9.83,-5.484 -18.05,-6.851 -32.9,-7.312 z m 474.38,74.722 v -5.257 c -0.46,0 -0.92,0 -1.37,0.23 v 5.027 h 1.37 v 0"
         style="fill:#cb997e;fill-opacity:1;fill-rule:nonzero;stroke:none"
         id="path18" /></g></g></svg>
