<?xml version="1.0" encoding="UTF-8" standalone="no"?>
<svg
   xmlns:dc="http://purl.org/dc/elements/1.1/"
   xmlns:cc="http://creativecommons.org/ns#"
   xmlns:rdf="http://www.w3.org/1999/02/22-rdf-syntax-ns#"
   xmlns:svg="http://www.w3.org/2000/svg"
   xmlns="http://www.w3.org/2000/svg"
   xmlns:sodipodi="http://sodipodi.sourceforge.net/DTD/sodipodi-0.dtd"
   xmlns:inkscape="http://www.inkscape.org/namespaces/inkscape"
   version="1.1"
   id="svg2"
   xml:space="preserve"
   width="330.66666"
   height="330.66666"
   viewBox="0 0 330.66666 330.66666"
   sodipodi:docname="Emporio_Armani.eps"><metadata
     id="metadata8"><rdf:RDF><cc:Work
         rdf:about=""><dc:format>image/svg+xml</dc:format><dc:type
           rdf:resource="http://purl.org/dc/dcmitype/StillImage" /></cc:Work></rdf:RDF></metadata><defs
     id="defs6" /><sodipodi:namedview
     pagecolor="#ffffff"
     bordercolor="#666666"
     borderopacity="1"
     objecttolerance="10"
     gridtolerance="10"
     guidetolerance="10"
     inkscape:pageopacity="0"
     inkscape:pageshadow="2"
     inkscape:window-width="640"
     inkscape:window-height="480"
     id="namedview4" /><g
     id="g10"
     inkscape:groupmode="layer"
     inkscape:label="ink_ext_XXXXXX"
     transform="matrix(1.3333333,0,0,-1.3333333,0,330.66667)"><g
       id="g12"
       transform="scale(0.1)"><path
         d="M 0,0 H 2480 V 2480 H 0 Z"
         style="fill:#ffffff;fill-opacity:1;fill-rule:nonzero;stroke:none"
         id="path14" /><path
         d="M 650.922,1782.2 H 104.668 c -17.5625,-94.27 73.941,-131.25 73.941,-131.25 H 761.84 L 650.922,1782.2"
         style="fill:#cb997e;fill-opacity:1;fill-rule:nonzero;stroke:none"
         id="path16" /><path
         d="M 810.238,1592.22 H 263.984 c -17.562,-94.29 73.942,-131.25 73.942,-131.25 h 583.23 l -110.918,131.25"
         style="fill:#cb997e;fill-opacity:1;fill-rule:nonzero;stroke:none"
         id="path18" /><path
         d="m 2375.32,1782.2 h -546.26 l -110.92,-131.25 h 583.24 c 0,0 91.5,36.98 73.94,131.25"
         style="fill:#cb997e;fill-opacity:1;fill-rule:nonzero;stroke:none"
         id="path20" /><path
         d="m 1669.74,1592.22 -110.91,-131.25 h 583.22 c 0,0 91.51,36.96 73.95,131.25 h -546.26"
         style="fill:#cb997e;fill-opacity:1;fill-rule:nonzero;stroke:none"
         id="path22" /><path
         d="m 1510.42,1402.23 -48.89,-57.86 c -12.94,12.64 -36.15,36.43 -50.64,57.86 h -373.57 c -2.45,-24.67 -5.75,-47.94 -10.03,-68.31 l -57.727,68.31 H 423.301 c -17.563,-94.28 73.945,-131.25 73.945,-131.25 H 1982.73 c 0,0 91.51,36.97 73.94,131.25 h -546.25"
         style="fill:#cb997e;fill-opacity:1;fill-rule:nonzero;stroke:none"
         id="path24" /><path
         d="m 1386.57,1460.97 -44.25,131.25 h -300.76 c 0.69,-20.56 1.73,-40.24 1.73,-58.69 0,-23.55 -0.54,-48.16 -1.71,-72.56 h 344.99"
         style="fill:#cb997e;fill-opacity:1;fill-rule:nonzero;stroke:none"
         id="path26" /><path
         d="m 1503.83,1681.08 c 0,0 -14.11,80.21 -106.11,110.28 h -314.84 c -31.11,-50.69 -39.94,-101.69 -41.58,-149.58 h 328.27 c 4.23,32 8.83,39.3 134.26,39.3"
         style="fill:#cb997e;fill-opacity:1;fill-rule:nonzero;stroke:none"
         id="path28" /><path
         d="m 1332.03,1071.52 h 32.15 l -16.07,40.05 -16.08,-40.05"
         style="fill:#cb997e;fill-opacity:1;fill-rule:nonzero;stroke:none"
         id="path30" /><path
         d="m 1044.78,1161.42 c -44.68,0 -83.319,-30.94 -101.745,-89.9 h 188.155 c -5.38,57.57 -23.72,89.9 -86.41,89.9"
         style="fill:#cb997e;fill-opacity:1;fill-rule:nonzero;stroke:none"
         id="path32" /><path
         d="m 588.219,1217.43 v -46.93 c 0,-54.67 44.316,-98.98 98.984,-98.98 h 201.434 c 26.558,76.71 90.187,104.81 147.773,104.81 12.88,0 24.62,-1.9 35.27,-5.41 70.6,-13.86 74.32,4.04 74.44,7 v 0.41 c 0,0 0.02,-0.17 0,-0.41 v -31.88 l 0.01,-74.52 h 165.8 l 50.17,124.98 50.15,-124.98 h 380.52 c 54.68,0 99,44.31 99,98.98 v 46.93 H 588.219"
         style="fill:#cb997e;fill-opacity:1;fill-rule:nonzero;stroke:none"
         id="path34" /><path
         d="m 931.52,987.559 c 0,-46.899 6.031,-82.137 16.472,-108.149 h 164.358 v 63.449 h -28.32 v 12.692 h 109.8 v -12.692 h -30.8 V 879.41 h 71.83 l 58.54,145.91 H 986.48 933.59 c -1.348,-11.87 -2.07,-24.43 -2.07,-37.761"
         style="fill:#cb997e;fill-opacity:1;fill-rule:nonzero;stroke:none"
         id="path36" /><path
         d="m 1275.54,930.719 h 145.13 l -37.96,94.601 h -69.21 l -37.96,-94.601"
         style="fill:#cb997e;fill-opacity:1;fill-rule:nonzero;stroke:none"
         id="path38" /><path
         d="m 1254.95,879.41 h 186.31 L 1425.77,918 h -155.33 l -15.49,-38.59"
         style="fill:#cb997e;fill-opacity:1;fill-rule:nonzero;stroke:none"
         id="path40" /><path
         d="m 1660.99,1025.32 h -230.21 l 58.56,-145.91 h 171.48 c 41.49,19.328 70.25,61.36 70.25,110.141 v 35.769 h -5.35 -64.73"
         style="fill:#cb997e;fill-opacity:1;fill-rule:nonzero;stroke:none"
         id="path42" /><path
         d="M 878.125,1025.32 H 748.91 v -35.769 c 0,-48.781 28.762,-90.813 70.25,-110.141 h 82.91 c -16.031,28.25 -26.191,64.07 -26.191,108.149 0,13.421 0.781,25.991 2.246,37.761"
         style="fill:#cb997e;fill-opacity:1;fill-rule:nonzero;stroke:none"
         id="path44" /><path
         d="M 1092.92,834.551 H 979.332 c 18.481,-15.082 41.058,-20.86 65.448,-20.86 19.48,0 35.42,7.559 48.14,20.86"
         style="fill:#cb997e;fill-opacity:1;fill-rule:nonzero;stroke:none"
         id="path46" /><path
         d="m 1507.34,834.551 7.07,-17.653 h 35.56 v -12.699 h -130.83 v 12.699 h 47.2 l -7.07,17.653 h -214.78 -7.55 l -7.07,-17.653 h 31.54 v -12.699 h -82.98 v 12.699 h 31.35 l 7.07,17.653 h -53.82 V 798.77 c 0,0 -14.91,40.75 -69.7,14.558 0.01,0.012 0.03,0.031 0.03,0.043 -16.29,-10.992 -35.31,-17.141 -56.95,-17.141 -31.22,0 -67.527,12.27 -97.715,38.321 h -33.168 c -0.484,-4.903 -0.726,-9.891 -0.726,-14.903 0,-57.019 31.703,-106.449 78.07,-131.007 h 252.619 9 252.62 c 46.37,24.558 78.08,73.988 78.08,131.007 0,5.012 -0.25,10 -0.74,14.903 h -67.11"
         style="fill:#cb997e;fill-opacity:1;fill-rule:nonzero;stroke:none"
         id="path48" /></g></g></svg>
