<?xml version="1.0" encoding="UTF-8" standalone="no"?>
<svg
   xmlns:dc="http://purl.org/dc/elements/1.1/"
   xmlns:cc="http://creativecommons.org/ns#"
   xmlns:rdf="http://www.w3.org/1999/02/22-rdf-syntax-ns#"
   xmlns:svg="http://www.w3.org/2000/svg"
   xmlns="http://www.w3.org/2000/svg"
   xmlns:sodipodi="http://sodipodi.sourceforge.net/DTD/sodipodi-0.dtd"
   xmlns:inkscape="http://www.inkscape.org/namespaces/inkscape"
   version="1.1"
   id="svg2"
   xml:space="preserve"
   width="945.33331"
   height="602.66669"
   viewBox="0 0 945.33331 602.66669"
   sodipodi:docname="Dolce__and__Gabbana.eps"><metadata
     id="metadata8"><rdf:RDF><cc:Work
         rdf:about=""><dc:format>image/svg+xml</dc:format><dc:type
           rdf:resource="http://purl.org/dc/dcmitype/StillImage" /></cc:Work></rdf:RDF></metadata><defs
     id="defs6" /><sodipodi:namedview
     pagecolor="#ffffff"
     bordercolor="#666666"
     borderopacity="1"
     objecttolerance="10"
     gridtolerance="10"
     guidetolerance="10"
     inkscape:pageopacity="0"
     inkscape:pageshadow="2"
     inkscape:window-width="640"
     inkscape:window-height="480"
     id="namedview4" /><g
     id="g10"
     inkscape:groupmode="layer"
     inkscape:label="ink_ext_XXXXXX"
     transform="matrix(1.3333333,0,0,-1.3333333,0,602.66667)"><g
       id="g12"
       transform="scale(0.1)"><path
         d="m 3774.52,1646.34 72.47,183.84 h 244.1 l 72.47,-183.84 h 107.56 l -270.05,646.1 h -63.31 l -270.8,-646.1 h 107.56 m 194.52,491.25 86.96,-227.32 h -173.93 l 86.97,227.32"
         style="fill:#cb997e;fill-opacity:1;fill-rule:evenodd;stroke:none"
         id="path14" /><path
         d="m 4509.11,1646.34 c 25.07,0 50.18,1.82 71.57,5.16 21.39,3.33 39.08,8.12 54.29,13.77 15.21,5.64 27.95,12.15 39.04,19.41 11.09,7.25 20.53,15.27 28.74,24.13 8.23,8.87 15.23,18.59 21.19,29.49 17.15,30.59 26.61,79.04 19.5,119.34 -4.05,23.51 -14.58,48.32 -32.2,72.54 -8.36,11.48 -17.91,22.2 -27.99,31.15 -21.41,18.95 -44.43,29.51 -68.11,35.14 15.65,10.38 29.86,23.03 40.67,35.94 10.82,12.91 18.24,26.09 23.2,39.96 4.96,13.87 7.45,28.44 7.88,44.73 0.42,16.3 -1.23,34.32 -4.24,49.77 -3.01,15.44 -7.39,28.31 -12.79,39.61 -5.4,11.3 -11.83,21.03 -19.47,29.7 -7.64,8.66 -16.49,16.25 -25.68,22.41 -9.18,6.17 -18.71,10.91 -30.78,15.38 -12.07,4.48 -26.68,8.67 -45.82,11.96 -19.13,3.3 -42.78,5.69 -66.46,6.51 h -180.79 v -646.1 h 208.25 m -88.48,376.07 c 21.29,0 42.59,1.27 58.86,2.64 16.27,1.38 27.51,3.13 35.96,4.83 8.45,1.7 14.11,3.35 19.6,5.49 7.71,3.09 14.96,7.36 21.12,12.4 6.15,5.04 11.22,10.86 15.48,17.71 9.39,14.54 13.73,35.76 13.75,56.52 0.01,11.07 -1.29,21.8 -3.67,30.93 -2.38,9.12 -5.84,16.62 -10.18,23.21 -4.35,6.57 -9.59,12.23 -16.14,17.17 -6.53,4.94 -14.38,9.18 -22.65,12.17 l -111.37,8.39 h -16.02 v -191.46 h 15.26 m 45,-299.79 c 19.62,0 39.28,0.59 55.55,2.38 16.26,1.79 29.14,4.46 39.86,7.5 10.73,3.04 19.3,6.43 27.29,10.63 7.98,4.2 15.37,9.22 21.65,14.96 6.29,5.75 11.48,12.21 15.8,19.61 9.6,16.1 13.81,36.89 13.78,57.93 -0.03,11.37 -1.42,22.86 -4,32.76 -2.59,9.9 -6.38,18.21 -11.22,25.63 -4.85,7.41 -10.75,13.94 -18.22,19.77 -7.47,5.84 -16.51,11 -26.07,14.78 -6.85,2.85 -13.96,5.08 -23.24,7.12 -9.28,2.04 -20.73,3.9 -35.66,5.12 -33.13,2.51 -76.38,1.21 -115.02,1.5 l 0.01,-219.69 h 59.49"
         style="fill:#cb997e;fill-opacity:1;fill-rule:evenodd;stroke:none"
         id="path16" /><path
         d="m 4998.08,1646.34 c 25.01,0 50.06,1.83 71.43,5.18 21.37,3.35 39.07,8.16 54.31,13.83 15.23,5.67 28.01,12.21 39.13,19.51 11.12,7.29 20.58,15.34 28.81,24.23 8.24,8.89 15.25,18.64 21.21,29.55 17.17,30.69 26.53,78.82 19.44,119.01 -4.09,23.55 -14.47,48.37 -32.3,72.62 -8.5,11.52 -18.35,22.29 -28.59,31.26 -21.59,18.83 -44.15,29.29 -67.41,34.94 15.37,10.19 29.32,22.61 40,35.39 10.68,12.77 18.09,25.89 23.06,39.87 4.96,13.98 7.48,28.81 7.92,45.19 0.45,16.38 -1.19,34.31 -4.16,49.72 -2.98,15.41 -7.31,28.3 -12.65,39.64 -5.35,11.33 -11.71,21.11 -19.25,29.81 -7.54,8.7 -16.26,16.33 -25.39,22.51 -9.12,6.18 -18.66,10.91 -30.73,15.38 -12.08,4.46 -26.69,8.66 -45.82,11.95 -19.14,3.3 -42.79,5.7 -66.47,6.52 h -180.79 v -646.11 h 208.25 m -88.49,376.07 c 21.06,0 42.12,1.25 58.23,2.61 16.11,1.37 27.27,3.11 35.72,4.79 15.17,2.97 25.1,6.84 37.5,15.14 5.31,3.73 9.84,7.94 13.8,12.7 3.96,4.77 7.36,10.09 10.22,16.22 2.87,6.13 5.2,13.08 6.84,21.29 3.12,15 3.84,37.57 -1.24,57.77 -2.34,9.12 -5.8,16.62 -10.15,23.21 -4.35,6.57 -9.59,12.23 -16.13,17.17 -6.54,4.94 -14.38,9.18 -22.65,12.17 l -111.37,8.39 h -16.02 v -191.46 h 15.25 m 45.01,-299.79 c 19.42,0 38.88,0.57 54.98,2.34 16.1,1.77 28.85,4.42 39.55,7.46 10.71,3.04 19.35,6.46 27.46,10.74 8.1,4.28 15.65,9.41 22.07,15.27 6.42,5.86 11.7,12.45 16.07,19.92 9.69,16.35 13.84,36.67 13.8,57.41 -0.04,11.24 -1.42,22.73 -4.01,32.63 -2.58,9.9 -6.37,18.22 -11.22,25.63 -4.84,7.42 -10.75,13.94 -18.22,19.78 -7.47,5.83 -16.5,10.99 -26.06,14.77 -7.15,2.88 -14.54,5.14 -24.03,7.19 -9.49,2.04 -21.07,3.88 -35.98,5.09 -32.99,2.45 -75.65,1.18 -113.91,1.46 v -219.69 h 59.5"
         style="fill:#cb997e;fill-opacity:1;fill-rule:evenodd;stroke:none"
         id="path18" /><path
         d="m 5937.88,2119.28 443.2,-472.94 h 70.94 v 646.11 h -94.59 v -482.11 l -451.6,482.1 h -63.31 v -646.1 h 95.36 v 472.94"
         style="fill:#cb997e;fill-opacity:1;fill-rule:evenodd;stroke:none"
         id="path20" /><path
         d="m 5310.84,1646.34 72.48,183.84 h 244.1 l 72.47,-183.84 h 107.56 l -270.06,646.1 h -63.31 l -270.8,-646.1 h 107.56 m 194.52,491.25 86.95,-227.32 h -173.15 l 86.2,227.32"
         style="fill:#cb997e;fill-opacity:1;fill-rule:evenodd;stroke:none"
         id="path22" /><path
         d="m 6590.86,1646.34 72.46,183.84 h 244.11 l 72.47,-183.84 h 107.56 l -270.05,646.1 h -63.32 l -270.79,-646.1 h 107.56 m 194.5,491.25 86.96,-227.32 h -173.16 l 86.2,227.32"
         style="fill:#cb997e;fill-opacity:1;fill-rule:evenodd;stroke:none"
         id="path24" /><path
         d="m 204.52,1645.57 c 34.035,0 68.144,3.95 98.523,11.6 30.383,7.65 57.031,18.86 81.352,33.51 24.324,14.66 46.32,32.76 65.261,52.7 18.942,19.94 34.828,41.7 47.559,65.26 26.582,48.09 38.203,108.1 36.871,166.99 -0.703,30.17 -4.961,59.23 -12.379,85.92 -7.422,26.68 -17.996,51 -31.953,73.99 -13.961,22.99 -31.297,44.66 -51.223,64.02 -19.926,19.37 -42.441,36.43 -66.488,50.08 -24.051,13.65 -49.629,23.88 -77.813,30.81 -28.183,6.94 -58.972,10.47 -89.71,10.47 H 0.847656 V 1645.57 H 204.52 m -2.29,80.1 c 21.114,0 42.258,2.5 61.563,7.39 19.305,4.89 36.77,12.1 53.082,21.64 16.313,9.53 31.473,21.39 44.789,35.05 13.871,13.55 25.992,28.91 35.832,45.4 9.836,16.5 17.399,34.13 22.774,53.69 10.492,37.52 12.945,86.82 4.367,132.52 -4.184,21.93 -10.938,41.72 -20.125,60.27 -9.188,18.56 -20.809,35.86 -34.543,51.48 -13.735,15.62 -29.582,29.55 -46.504,40.64 -16.926,11.1 -34.93,19.36 -54.938,25.05 -20.004,5.7 -42.011,8.64 -64.007,8.97 l -99.926,1.53 v -483.63 h 97.636"
         style="fill:#cb997e;fill-opacity:1;fill-rule:evenodd;stroke:none"
         id="path26" /><path
         d="m 1589.04,1646.34 v 78.57 h -183.08 l 0.76,567.53 h -97.64 l -0.76,-646.1 h 280.72"
         style="fill:#cb997e;fill-opacity:1;fill-rule:evenodd;stroke:none"
         id="path28" /><path
         d="m 2099.37,2241.34 c -6.91,5.7 -14.16,10.96 -22.71,16.41 -18.07,11.63 -42.77,23.71 -66.83,33.02 -12.73,4.93 -25.22,9.07 -38.62,12.44 -36.46,9.52 -90.6,13.34 -133.8,6.28 -27.32,-4.22 -56.92,-12.76 -85.89,-25.44 -24.9,-10.57 -48.81,-23.53 -69.68,-37.62 -20.86,-14.09 -38.68,-29.3 -54.38,-45.77 -15.68,-16.46 -29.24,-34.18 -40.85,-53.41 -11.6,-19.23 -21.25,-39.99 -28.59,-61.7 -15.17,-44.38 -19.98,-93.87 -15.51,-143.24 3.22,-41.86 13.83,-83.25 30.42,-119.55 16.59,-36.31 39.16,-67.53 69.45,-95.34 50.78,-47.03 124.83,-83.44 195.2,-95.62 40.93,-7.23 84.88,-6.82 128.71,2.13 14.54,2.99 28.93,6.94 42.34,11.4 13.41,4.46 25.85,9.45 37,14.6 11.16,5.15 21.02,10.47 29.83,15.91 8.81,5.43 16.56,10.97 23.9,17.03 v 89.25 c -12.8,-8.82 -25.92,-17.19 -37.35,-23.87 -21.23,-12.32 -36.73,-19.56 -52.65,-24.95 -29.9,-11.32 -61.76,-18.65 -91.45,-19.91 -51.53,-1.64 -109.46,10.04 -166.39,48.9 -11.42,8.21 -22.31,17.19 -31.81,26.14 -29.32,27.76 -45.88,55.29 -55.91,81.12 -8.12,20.81 -13.27,45.95 -15.26,71.24 -3.2,32.35 -1.13,65.32 5.64,94.55 6.78,29.23 18.27,54.71 34.78,78.2 25.26,36.51 64.77,67.78 101.29,85.25 25.74,12.66 56.44,21.48 85.76,24.8 13.99,1.58 26.74,1.71 40.42,0.82 27.88,-1.68 60.71,-8.54 92.93,-19.69 5.01,-1.83 9.93,-3.9 16.76,-7.15 6.83,-3.25 15.58,-7.69 28.14,-14.77 12.56,-7.09 28.94,-16.83 45.11,-26.9 v 85.44"
         style="fill:#cb997e;fill-opacity:1;fill-rule:evenodd;stroke:none"
         id="path30" /><path
         d="m 2463.23,1646.34 v 77.8 h -233.42 v 221.98 h 226.56 v 78.58 h -226.56 v 188.41 h 233.42 v 79.33 h -334.88 v -646.1 h 334.88"
         style="fill:#cb997e;fill-opacity:1;fill-rule:evenodd;stroke:none"
         id="path32" /><path
         d="m 3410.65,1897.3 h 206.73 c -1.52,-18.18 -5.07,-36.22 -10.12,-52.12 -5.06,-15.9 -11.62,-29.68 -19.52,-42.02 -7.9,-12.34 -17.13,-23.26 -28.05,-33.11 -10.92,-9.85 -23.52,-18.64 -38.5,-26.41 -14.98,-7.76 -32.34,-14.5 -53.43,-19.79 -21.09,-5.29 -45.91,-9.14 -69.62,-10.35 -23.71,-1.21 -46.3,0.2 -67.64,4.71 -21.34,4.51 -41.42,12.12 -60.87,23.19 -19.46,11.08 -38.28,25.61 -54.94,42.15 -16.67,16.55 -31.17,35.1 -42.62,54.33 -23.88,39.94 -33.8,82.94 -34.55,126.71 -0.34,22.67 1.96,45.54 7.1,67.07 5.14,21.52 13.09,41.68 24.24,61.25 11.13,19.56 25.45,38.52 41.98,55.38 16.54,16.85 35.29,31.61 54.94,43.23 67.48,39.02 145.45,44.45 219.73,17.83 14.6,-5.49 29.3,-12.53 42.53,-20.17 13.21,-7.65 24.95,-15.9 35.52,-24.61 10.57,-8.7 19.97,-17.85 28.52,-27.67 8.55,-9.82 16.24,-20.3 23.01,-31.35 l 76.28,40.43 c -6.14,15.25 -14.13,29.75 -24.14,43.58 -10,13.83 -22,26.99 -36.72,39.59 -14.72,12.6 -32.15,24.64 -50.27,34.94 -18.12,10.31 -36.93,18.88 -56.42,25.91 -40.06,14.55 -83.34,22.07 -126.9,23.04 -32.27,0.86 -64.67,-2.46 -94.97,-9.63 -30.31,-7.18 -58.5,-18.2 -85.65,-33.53 -27.14,-15.32 -53.25,-34.94 -76.57,-57.68 -23.33,-22.75 -43.89,-48.62 -59.73,-75.18 -32.68,-54.47 -44.87,-113.18 -43.94,-172.57 0.57,-30.44 4.88,-60.8 12.89,-89.21 8,-28.41 19.7,-54.87 35.66,-80.34 15.95,-25.46 36.16,-49.92 59.03,-71.47 22.88,-21.55 48.42,-40.18 75.04,-54.82 26.63,-14.65 54.33,-25.31 84.22,-32.27 29.89,-6.96 61.97,-10.22 94.82,-9.83 32.85,0.39 66.46,4.45 95.8,11.21 29.32,6.76 54.37,16.23 76.67,27.85 22.3,11.62 41.86,25.4 59.5,41.73 27.86,25.54 50.51,58.43 65.02,89.15 11.9,24.78 20.76,52.69 26.41,81.02 2.18,12.81 3.7,25.73 4.48,37.66 1.39,22.6 0.5,42.06 -2.95,61.51 l -312,-0.01 v -79.33"
         style="fill:#cb997e;fill-opacity:1;fill-rule:evenodd;stroke:none"
         id="path34" /><path
         d="m 2869.05,1713.46 c 13.74,16.79 28.82,33.57 41.2,50.35 l -33.56,35.85 -38.9,-48.82 -60.27,70.18 c 9.91,6.22 19.21,13.42 26.61,20.44 22.18,21.43 28.85,41.19 29.08,61.41 -0.58,17.36 -2.85,34.86 -22.24,53.26 -4.68,4.24 -10.04,7.94 -15.95,10.99 -18.93,9.61 -42.34,12.03 -67.16,7.04 -13.02,-2.97 -24.5,-8.08 -35.84,-18.17 -23.82,-22.6 -25.75,-46.53 -20.43,-73.4 3.23,-14.47 13.5,-31.97 28.11,-46.31 -12.78,-7.45 -24.84,-16.19 -34.39,-24.72 -29.03,-26.45 -37.11,-50.81 -37.31,-75.08 0,-8.98 1.21,-18.6 3.5,-27.25 2.3,-8.64 5.68,-16.32 10.11,-23.36 4.42,-7.04 9.88,-13.45 16.14,-18.94 5.98,-5.77 12.74,-10.72 20.22,-14.78 35.69,-18.11 79.86,-17.95 121.69,4.71 10.96,6.09 22,14 32.02,23.04 l 28.98,-34.33 h 67.13 l -58.74,67.89 m -138.07,162.49 c -12.35,15.26 -16.13,28.23 -3.08,46.51 11.1,9.13 27.5,11.68 45.56,1.88 13.25,-12.3 11.76,-27.64 3.68,-42.66 -7.34,-11.75 -18.5,-18.21 -30.14,-24.8 l -16.02,19.07 m 43.97,-177.41 c -23.81,-13.01 -45.11,-16.54 -68.18,-5 -6.22,3.69 -12.15,8.23 -18.02,17.98 -6.92,10.89 -9.48,33.71 -1.8,46.12 7.69,15.23 24.69,30.72 43.27,41.25 l 70.18,-82.38 c -8.38,-7.08 -17.43,-13.41 -25.45,-17.97"
         style="fill:#cb997e;fill-opacity:1;fill-rule:evenodd;stroke:none"
         id="path36" /><path
         d="m 1281.62,1968.24 c 0,95.36 -35.09,175.45 -104.51,240.29 -69.41,65.61 -154.84,98.4 -254.774,98.4 -98.406,0.01 -183.078,-32.79 -253.258,-98.4 -70.18,-65.6 -105.269,-145.69 -105.269,-240.29 0.004,-94.58 35.089,-174.68 105.269,-241.04 70.942,-66.37 155.613,-99.17 253.258,-99.17 99.934,0 184.604,32.8 254.784,99.17 69.42,65.6 104.5,145.69 104.5,241.04 m -175.44,178.51 c 51.1,-48.83 76.27,-108.33 76.27,-178.51 0.01,-69.41 -25.17,-128.15 -76.27,-177.73 -51.88,-49.59 -112.903,-74 -183.844,-74 -70.18,0 -131.207,24.41 -182.316,74 -51.106,49.58 -76.282,108.32 -76.282,177.73 0,69.42 25.176,128.92 76.282,178.51 49.585,48.81 109.847,73.22 182.316,73.22 71.703,0.01 132.734,-24.41 183.844,-73.22"
         style="fill:#cb997e;fill-opacity:1;fill-rule:evenodd;stroke:none"
         id="path38" /><path
         d="m 3494.56,3528.97 c -0.55,3.43 -2.95,14.26 -5.17,24.2 -1.08,4.88 -1.83,8.25 -5.32,27.45 -3.48,19.19 -9.7,54.2 -14.84,89.26 -10.27,70.31 -16.36,140.83 -18.91,211.52 l 186.13,-0.01 c -1.16,-30.18 -3.18,-60.32 -6.24,-92.7 -3.07,-32.38 -7.19,-66.99 -12.77,-104.7 -5.59,-37.72 -12.64,-78.53 -20.66,-119.15 h 0.01 c -0.67,-3.29 -1.36,-6.57 -2.43,-11.44 -1.06,-4.88 -2.5,-11.34 -3.43,-15.67 -0.94,-4.34 -1.37,-6.53 -1.77,-8.74 h 86.2 c 3.59,7.17 7.16,14.37 9.6,19.33 4.37,8.87 5.68,11.7 7.94,16.51 h -0.01 c 22.61,48.28 40.7,96.35 55.01,145.78 7.39,25.59 13.82,51.98 17.95,70.47 4.13,18.49 5.96,29.08 7.55,39.48 3.17,20.68 5.37,40.69 6.46,60.84 h 162.48 c -2.56,-14.94 -5.93,-29.74 -10.94,-47.41 -5.02,-17.68 -11.67,-38.23 -21.14,-62.87 -9.47,-24.63 -21.74,-53.35 -30.67,-73.79 -8.93,-20.44 -14.5,-32.61 -20.57,-45.44 -22.88,-47.91 -51.13,-104.11 -85.26,-158 h 78.57 c 15.06,23.65 30.72,47.98 45.77,70.95 32.2,51.94 61.32,105.91 81.14,149.06 19.82,43.15 30.34,75.49 36.7,101.6 6.35,26.11 8.53,46 8.02,65.9 h 47.29 c 1.92,-4.17 8.16,-9 13.83,-10.16 6.83,-2 18.59,-2.35 28.04,6 1.26,1.26 2.31,2.65 3.14,4.16 h 36.62 c -1.99,-52.41 -17.76,-100.21 -33.93,-148.85 -10.21,-29 -22.1,-57.42 -35.8,-85.44 -30,-61.3 -66.87,-117.88 -114,-173.92 -13.49,-16.04 -28.3,-32.61 -43.59,-48.71 -4.93,-5.2 -9.16,-11.04 -13.57,-19.15 -4.4,-8.11 -9,-18.49 -13.46,-33.07 -8.33,-27.19 -15.24,-65.83 -18.02,-98.47 -0.69,-8.09 -1.19,-16.42 -1.48,-24.77 -41.77,9.86 -83.89,18.26 -123.38,24.68 -39.49,6.41 -76.34,10.85 -111.02,13.76 -36.86,3.09 -71.26,4.43 -105.82,4.28 l -225.03,-22.12 -109.08,-20.6 c -0.88,26.16 -3.25,52.3 -6.44,73.34 -3.19,21.04 -7.19,36.99 -11.47,49.99 -4.28,13.01 -8.84,23.06 -13.53,31.37 -4.69,8.31 -9.53,14.87 -15.1,20.75 -45.05,46.65 -81.06,93.11 -111.36,140.36 -58.59,91.05 -94.22,183.45 -112.54,276.34 -2.28,13.39 -3.41,26.74 -3.42,40.23 h 37.37 c 1.93,-4.17 8.16,-9 13.83,-10.16 7.32,-2.68 23.81,-1.49 30.42,10.16 h 48.06 c -0.51,-19.73 1.63,-39.45 7.89,-65.4 6.25,-25.95 16.63,-58.13 36.33,-101.36 19.71,-43.23 48.76,-97.52 80.88,-149.81 15.55,-23.72 30.09,-46.29 45.77,-70.94 h 78.57 c -14.93,23.59 -28.5,47.07 -41.19,70.94 -8.45,15.68 -16.7,31.51 -24.1,46.16 -7.4,14.65 -13.95,28.15 -20.01,40.96 -6.05,12.82 -11.62,24.96 -20.54,45.39 -8.92,20.43 -21.19,49.15 -30.66,73.78 -9.47,24.64 -16.13,45.19 -21.14,62.87 -5.02,17.67 -8.38,32.47 -10.94,47.41 h 162.48 c 0.19,-7.42 0.64,-14.83 1.41,-23.27 0.77,-8.44 1.87,-17.92 3.62,-29.61 1.75,-11.7 4.15,-25.63 8.59,-45.78 8.75,-40.23 24.39,-97.97 43.23,-146.75 9.18,-24.24 19.2,-47.91 30.11,-71.16 h -28.22 l 28.22,-0.01 c 3.69,-7.84 4.35,-9.2 8.09,-16.83 2.43,-4.93 5.93,-11.98 9.45,-19.02 h 86.2 m -131.96,34.04 c -0.57,-6.4 2.79,-17.55 -10.76,-26.44 -7.79,-3.21 -22.2,-7.62 -34.09,5.15 -4.27,7.08 -4.88,11.72 -3.21,23.11 v 0 c 0.16,5.52 2.7,14.18 11.05,17.16 7.79,2.1 21.06,6.01 32.82,-6.64 2.63,-3.33 4.59,-10.06 4.19,-12.34 m 407.35,-4.28 c -0.57,-7.24 0.42,-14.95 -10.59,-22.18 -7.85,-3.46 -20.02,-6.49 -32.02,3.29 -6.09,7.54 -7.16,12.72 -5.45,25 h -0.01 c -0.56,7.63 9.52,18.68 16.19,18.4 7.1,0.69 18.41,3.26 27.63,-7.54 2.16,-2.91 3.54,-6.86 4.24,-10.87 h 0.01 v -6.1 m -180.37,923.03 c 4.96,2.32 9.01,3.33 13.3,3.79 v 28.22 h -122.05 v -28.22 l 21.36,-8.39 c 19.96,-18.99 12.38,-32.23 3.22,-55.45 -3.51,-6.85 -7.87,-14.5 -15.93,-18.64 -9.09,-5.55 -22.19,2.67 -27.46,13.57 -3.66,6.23 -7.36,16.18 -10.18,26.2 h -26.69 V 4336.8 h 26.7 c 3.43,8.35 5.9,18.98 18.11,25.86 12.33,4.36 21.55,-2.37 34.52,-15.94 v -49.58 c -10.14,-3.99 -19.78,-9.41 -29.34,-17.62 -23.1,-19.76 -29.74,-39.8 -25.12,-57.94 3.53,-14.04 11.86,-27.33 28.53,-43.44 l -10.68,-21.36 c -40.88,-3 -81.52,-10.1 -116.44,-19.99 -34.93,-9.89 -64.14,-22.56 -89.72,-37.31 -25.58,-14.75 -47.54,-31.59 -66.93,-51.02 -33.08,3.87 -66.64,4.38 -94.46,1.86 -27.83,-2.52 -49.91,-8.07 -68.69,-15.43 -18.79,-7.36 -34.26,-16.52 -46.86,-26.62 -12.61,-10.11 -22.34,-21.14 -30.23,-33.47 -7.88,-12.32 -13.91,-25.93 -17.95,-41.72 -4.04,-15.8 -6.09,-33.78 -5.75,-51.67 h 37.39 c -3.94,7.93 -4.82,16.14 -0.03,28.14 1.85,4.24 8.07,9.01 13.91,9.94 7.94,0.7 19.56,4.59 29.78,-9.78 3.56,-7.07 5.97,-17.35 0.58,-28.3 h 48.06 c 0.01,13.09 1.8,25.17 6.1,38.14 2.8,8 6.72,15.64 11.28,22.11 10.37,14.56 22.92,22.32 36.02,27.47 l 32.8,5.34 c -3.12,-7.01 -5.4,-14.39 -6.99,-23.07 -3.63,-18.58 -2.78,-44.46 1.65,-69.99 h 162.48 c -1.02,21.54 0.02,43.2 2.77,61.78 2.74,18.58 7.18,34.08 12.78,47.62 5.6,13.54 12.35,25.12 20.26,35.36 7.91,10.23 16.98,19.12 27.57,26.96 10.57,7.83 22.66,14.62 36.97,20.21 14.31,5.59 30.85,9.98 47.64,12.5 l -3.05,-163.23 c 0.17,-2.9 0.3,-5.8 0.48,-11.22 0.17,-5.42 0.39,-13.35 0.56,-18.76 0.18,-5.42 0.31,-8.32 0.48,-11.22 h 186.13 c 2.94,67.75 1.72,137.92 -4.58,204.44 16.48,-2.5 32.71,-6.81 46.79,-12.31 14.08,-5.5 26.01,-12.19 36.5,-19.92 10.49,-7.74 19.53,-16.53 27.46,-26.69 7.92,-10.16 14.75,-21.68 20.46,-35.21 5.71,-13.53 10.31,-29.05 13.27,-47.79 2.95,-18.73 4.26,-40.68 3.51,-62.52 h 162.48 c 2.42,13.98 3.75,28.17 3.89,40.19 0.15,12.01 -0.89,21.86 -2.61,30.38 -1.72,8.52 -4.12,15.71 -7.38,22.5 l 32.8,-5.34 c 7.81,-2.99 15.2,-7.07 21.6,-11.89 17.77,-13.49 26.29,-31.16 29.77,-46.83 1.77,-7.38 2.98,-18.02 3.55,-29.01 h 47.3 c -3.94,7.94 -4.81,16.14 -0.03,28.15 1.85,4.24 8.07,9.01 13.92,9.94 7.69,0.57 19.84,5 30.39,-9.93 3.67,-7.31 4.34,-17.87 0.73,-28.15 h 36.61 c 0.36,17.89 -1.7,35.87 -5.74,51.67 -4.04,15.79 -10.07,29.4 -17.95,41.73 -7.88,12.32 -17.62,23.36 -30.2,33.44 -12.59,10.09 -28.02,19.21 -46.84,26.57 -18.82,7.36 -41.03,12.95 -68.88,15.49 -27.85,2.54 -61.32,2.03 -94.32,-1.84 -11.67,11.65 -24.5,22.12 -39.96,32.37 -15.46,10.26 -33.55,20.29 -55.85,29.93 -22.3,9.63 -48.82,18.86 -75.83,26.18 l -101.45,19.84 -10.68,21.36 c 30.84,29.68 39.58,58.69 16.79,87.72 l -42.72,31.28 v 49.58 c 14.12,15.4 28.81,24.03 41.29,10.97 5.84,-6.55 8.3,-12.6 11.34,-20.89 h 26.7 v 106.04 h -26.7 c -1.47,-5.26 -3.21,-10.44 -4.93,-14.73 -3.7,-8.61 -6.07,-14.52 -14.08,-21.93 -9.93,-9.32 -23.22,-4.02 -29.94,7.25 -7.51,13.08 -22.05,39.87 -6.67,58.77 3.33,4.16 8.82,7.39 13.31,9.54 m 192.76,-449.28 c -5.36,1.51 -9.12,2.07 -13.98,9.78 -3.54,8.06 -6.47,20.27 3.3,32.7 8.28,7.26 21.59,9.63 34.78,1.77 9.7,-9.8 9.38,-19.53 5.5,-33.39 -4.22,-9.88 -14.05,-11.74 -21.68,-11.67 -2.6,0.03 -5.47,0.3 -7.92,0.81 m 72.71,-109.49 c -5.75,1.24 -11.7,6.02 -13.59,10.34 -3.43,8.2 -6.21,20.19 3.34,32.56 9.2,7.61 21.87,10.41 36.35,0.15 7.8,-9.38 11.44,-22.31 0.16,-37.35 -7.65,-6.59 -15.25,-8.35 -26.26,-5.7 m 140.74,74.96 c 1,6.03 5.71,12.03 9.94,13.92 7.78,3.42 20.65,6.48 32.56,-3.12 7.85,-9.46 11.51,-22.55 0,-38.07 -9.7,-7.52 -21.81,-10.36 -37.03,0.16 -6.81,7.77 -7.17,15.62 -5.47,27.11 m -923.99,16.12 c 5.37,-1.54 9.09,-2.09 13.92,-9.93 3.44,-8.07 6.64,-20.68 -3.27,-33.31 -9.45,-7.54 -22.44,-10.66 -37.76,0.01 -7.54,9.44 -10.66,22.44 0,37.75 7.77,6.82 15.62,7.17 27.11,5.48 m 445.93,87.25 c -0.12,7.74 9.61,17.32 16.35,17.45 6.92,0.3 18.83,4.61 29.17,-10.13 3.44,-8.06 6.64,-20.68 -3.28,-33.3 -8.54,-7.34 -21.76,-9.8 -35.45,-1.43 -8.78,8.46 -7.13,16.11 -6.79,27.41 m -200.18,-53.08 c -1,-5.83 -5.73,-11.73 -9.97,-13.59 -8.12,-3.42 -20.69,-6.51 -33.3,3.24 -7.7,9.51 -10.5,21.87 0.02,37.07 9.45,7.54 22.44,10.66 37.76,0 6.7,-7.62 7.19,-15.4 5.49,-26.72 m -73.56,-109.06 c -1.24,-5.85 -5.97,-11.8 -10.2,-13.85 -8.03,-3.96 -20.54,-6.72 -32.88,3.52 -7.52,9.7 -10.36,21.81 0.16,37.03 9.13,7.45 22.43,10.56 37.02,0.16 6.73,-7.73 8.51,-15.5 5.9,-26.86 m 290.09,5.39 c -7.04,0.14 -16.54,10.11 -16.35,17.45 0.08,7.28 -3.32,17.87 6.94,27.39 8.63,5.52 20.37,7.02 33.42,0.09 9.71,-9.06 8.79,-16.3 7.35,-28.61 -1.53,-5.38 -2.09,-9.09 -9.93,-13.93 -5.12,-2.76 -13.25,-3.82 -21.43,-2.39 m -545.74,-166.68 c -0.13,7.74 9.6,17.32 16.34,17.45 6.93,0.29 18.83,4.61 29.17,-10.14 3.43,-7.78 6.48,-20.65 -3.12,-32.56 -9.34,-7.64 -22.07,-11.82 -37.43,0.14 -6.31,7.45 -5.39,14.83 -4.96,25.11 m 75.39,-157.33 c -6.03,1.01 -12.04,5.72 -13.93,9.94 -3.43,8.07 -6.63,20.68 3.28,33.3 9.44,7.54 22.44,10.66 37.76,0 7.54,-9.44 10.66,-22.44 0,-37.76 -7.77,-6.82 -15.63,-7.17 -27.11,-5.48 m 180.72,217.34 c 5.27,-1.49 9.03,-2.29 13.83,-9.83 3.82,-8.05 7.22,-20.29 -3.4,-32.93 -9.76,-7.41 -21.81,-10.19 -37.05,0.17 -7.7,9.52 -10.5,21.87 0.02,37.07 7.56,6.68 15.38,7.18 26.6,5.52 m 28.68,-173.1 c -5.84,0.99 -11.73,5.72 -13.59,9.96 -3.42,8.13 -6.51,20.7 3.23,33.3 9.19,7.6 21.87,10.4 36.35,0.14 7.85,-9.47 11.52,-22.55 0,-38.07 -7.64,-6.61 -15.13,-7.01 -25.99,-5.33 m 260.03,155.63 c -5.7,0.96 -11.67,5.68 -13.39,9.94 -2.89,8.31 -6.61,21.83 4.75,33.96 9.5,5.97 20.7,8.9 35.45,-1.43 7.39,-9.17 10.73,-22.27 0.01,-37.08 -7.67,-6.61 -15.47,-7.14 -26.82,-5.39 m -15.28,-93.07 c 1.28,5.18 1.75,8.89 9.27,13.68 8.04,3.61 20.39,6.46 32.84,-3.16 7.6,-9.2 10.4,-21.87 0.14,-36.35 -9.34,-7.64 -22.08,-11.82 -37.43,0.14 -6.36,7.54 -5.54,15.16 -4.82,25.69 m 15.13,-156.75 c -5.65,1.22 -11.58,6.05 -13.32,10.46 -2.78,8.36 -6.49,21.76 4.83,33.81 9.5,5.98 20.7,8.91 35.45,-1.42 7.45,-9.13 10.56,-22.44 0.16,-37.03 -7.78,-6.74 -15.51,-8.59 -27.12,-5.82 m 289.62,251.13 c 1.55,5.37 2.1,9.09 9.94,13.92 7.83,3.36 20.43,6.67 32.61,-3.26 7.29,-9.22 10.58,-22.29 0.02,-37.11 -9.57,-7.59 -21.9,-10.35 -37.11,0.02 -6.89,7.69 -7.13,15.32 -5.46,26.43 m 3.71,-140.81 c -1.55,-5.37 -2.1,-9.09 -9.94,-13.92 -7.84,-3.36 -20.44,-6.67 -32.62,3.26 -7.44,9.5 -10.51,22.46 0,37.79 9.51,7.7 21.87,10.51 37.08,-0.01 6.81,-7.77 7.16,-15.63 5.48,-27.12 m 252.76,114.23 c 5.83,-1 11.72,-5.73 13.59,-9.97 3.4,-7.84 6.34,-20.67 -3.08,-32.56 -9.25,-7.87 -21.82,-11.43 -36.72,0.01 -7.41,9.75 -10.19,21.81 0.17,37.04 7.53,6.77 15.11,7.15 26.04,5.48 m -75.58,-174.59 c -6.03,0.99 -12.04,5.71 -13.92,9.93 -3.44,8.07 -6.64,20.68 3.27,33.3 9.13,7.45 22.43,10.56 37.03,0.16 7.85,-9.47 11.52,-22.55 0,-38.08 -7.81,-6.73 -15.33,-6.98 -26.38,-5.31 m -587.56,-233.66 c -1.51,-5.19 -2.08,-8.87 -9.81,-13.65 -8.12,-3.52 -20.29,-6.33 -32.7,3.26 -7.7,9.52 -10.51,21.87 0.01,37.08 9.17,7.39 22.27,10.73 37.08,0.01 6.59,-7.62 7.12,-15.46 5.42,-26.7 m 117.05,-1.67 c -5.65,1.22 -11.58,6.06 -13.32,10.46 -2.78,8.36 -6.49,21.76 4.83,33.82 9.5,5.97 20.7,8.91 35.45,-1.43 7.45,-9.12 10.56,-22.43 0.16,-37.03 -7.78,-6.73 -15.51,-8.58 -27.12,-5.82 M 3158,3545.7 c 5.38,-1.54 9.09,-2.1 13.92,-9.93 3.44,-8.07 6.64,-20.68 -3.28,-33.31 -9.44,-7.53 -22.43,-10.66 -37.75,0.01 -7.54,9.45 -10.66,22.44 0,37.75 7.77,6.82 15.62,7.17 27.11,5.48 m 113.04,-186.17 c -1.48,-5.27 -2.29,-9.03 -9.82,-13.82 -8.13,-3.92 -20.75,-7.14 -33.61,3.4 -7.52,9.7 -10.36,21.8 0.16,37.02 9.44,7.54 22.44,10.66 37.75,0.01 6.69,-7.57 7.18,-15.39 5.52,-26.61 m 638.55,170.05 c 1.55,5.37 2.1,9.09 9.94,13.92 8.06,3.44 20.68,6.64 33.3,-3.28 7.54,-9.44 10.66,-22.44 0,-37.76 -9.45,-7.53 -22.45,-10.66 -37.76,0 -6.82,7.77 -7.18,15.63 -5.48,27.12 m -225.66,-158.47 c -5.36,1.52 -9.11,2.07 -13.98,9.78 -3.54,8.07 -6.46,20.27 3.3,32.71 9.17,7.39 22.27,10.73 37.08,0.01 7.29,-9.22 10.58,-22.29 0.01,-37.11 -7.68,-6.77 -15.37,-7.04 -26.41,-5.39 m 144.8,-27.85 c -5.94,1.23 -12.01,6 -13.93,10.3 -3.45,8.14 -6.34,20.18 3.39,32.58 9.44,7.54 22.44,10.66 37.76,0 7.44,-9.13 10.56,-22.44 0.16,-37.03 -7.81,-6.81 -15.73,-8.51 -27.38,-5.85"
         style="fill:#cb997e;fill-opacity:1;fill-rule:evenodd;stroke:none"
         id="path40" /><path
         d="m 4506.06,3604.49 -33.56,2.29 c 24.41,-82.38 80.09,-146.46 167.82,-191.47 43.48,-22.88 84.67,-37.37 123.57,-42.71 -35.85,99.93 -94.59,169.34 -177.73,206.72 -25.94,12.97 -52.64,21.36 -80.1,25.17"
         style="fill:#cb997e;fill-opacity:1;fill-rule:evenodd;stroke:none"
         id="path42" /><path
         d="m 4399.27,3262.75 -4.58,-1.53 12.97,-64.07 c 0.76,-54.16 -18.31,-107.56 -57.21,-161.72 l -16.79,-46.53 c -6.1,-38.9 3.82,-77.81 29.75,-117.47 l 9.16,25.93 c 7.63,19.08 16.78,32.8 28.22,41.96 27.47,23.65 48.06,51.11 62.55,82.38 24.42,52.64 23.65,102.22 -3.05,150.28 -38.9,49.58 -58.73,80.1 -61.02,90.77"
         style="fill:#cb997e;fill-opacity:1;fill-rule:evenodd;stroke:none"
         id="path44" /><path
         d="m 4260.43,3085.01 c -9.91,-20.6 -16.78,-39.67 -20.6,-57.21 -8.38,-53.4 19.07,-125.1 81.63,-215.12 31.27,-45 63.31,-83.91 96.11,-118.23 l 6.11,6.86 c -13.73,8.4 -35.09,45.77 -64.08,110.61 -28.22,62.56 -45.77,111.38 -53.4,146.47 -6.86,28.22 -0.76,61.02 16.79,99.92 l 28.22,50.35 c 22.12,31.27 32.04,67.13 29.75,107.55 -3.81,54.93 -39.66,83.92 -106.03,87.73 -66.36,3.82 -115.95,-17.54 -148.75,-64.08 -9.91,-13.72 -26.7,-54.15 -51.11,-121.28 l -18.31,-69.42 c -9.15,-35.09 -19.07,-64.08 -29.74,-86.96 -35.09,-70.18 -90.02,-106.03 -164.77,-108.32 -74,-1.52 -132.73,30.52 -176.21,96.88 -14.5,20.6 -25.94,43.48 -34.33,68.65 l -9.16,30.52 -7.62,-1.52 c -3.05,-27.46 4.57,-64.84 22.88,-111.38 15.26,-38.9 28.23,-64.08 39.67,-75.51 25.17,-27.47 44.24,-44.25 57.21,-49.59 42.72,-21.36 100.69,-23.65 173.16,-6.87 72.47,17.55 129.68,64.08 171.63,140.37 22.89,43.47 49.59,108.31 79.34,196.04 19.83,48.06 51.11,80.09 94.59,97.64 20.59,9.15 39.66,12.97 57.21,12.21 34.33,-14.5 37.38,-38.14 7.63,-70.95 -32.04,-20.59 -57.98,-52.63 -77.82,-95.36"
         style="fill:#cb997e;fill-opacity:1;fill-rule:evenodd;stroke:none"
         id="path46" /><path
         d="m 4679.98,3244.44 -23.64,-7.63 c 40.43,-49.58 96.87,-77.04 169.34,-82.38 l 96.88,6.87 c -53.39,57.97 -113.66,87.72 -180.79,90.01 l -61.79,-6.87"
         style="fill:#cb997e;fill-opacity:1;fill-rule:evenodd;stroke:none"
         id="path48" /><path
         d="m 4092.61,3281.82 c 19.84,20.59 38.91,32.04 57.98,34.33 v 14.49 c -25.94,-1.52 -51.88,-10.68 -77.81,-28.23 -52.64,-34.32 -80.86,-92.29 -85.44,-172.39 -6.86,-139.6 -46.53,-212.06 -117.47,-218.17 v -12.96 l 22.12,2.29 c 18.31,3.82 35.1,10.68 51.11,20.59 49.58,29.75 76.28,80.86 80.86,154.86 6.11,94.59 28.99,163.24 68.65,205.19"
         style="fill:#cb997e;fill-opacity:1;fill-rule:evenodd;stroke:none"
         id="path50" /><path
         d="m 5040.04,3408.45 -8.39,23.64 c -48.82,-37.37 -74.76,-92.29 -77.81,-163.24 -2.29,-35.85 0.76,-67.13 9.15,-95.35 57.22,49.58 85.44,107.55 86.2,173.92 0.01,20.6 -3.05,41.19 -9.15,61.03"
         style="fill:#cb997e;fill-opacity:1;fill-rule:evenodd;stroke:none"
         id="path52" /><path
         d="m 4813.48,3383.27 v -42.72 l -41.96,3.82 88.49,-87.72 77.81,-33.56 -41.19,78.57 -83.15,81.61"
         style="fill:#cb997e;fill-opacity:1;fill-rule:evenodd;stroke:none"
         id="path54" /><path
         d="m 4906.54,3060.6 -60.26,10.68 -25.17,-0.76 c 26.69,-58.74 73.99,-100.7 142.65,-125.87 33.56,-12.97 64.84,-19.07 94.58,-19.83 -35.84,70.18 -86.96,115.19 -151.8,135.78"
         style="fill:#cb997e;fill-opacity:1;fill-rule:evenodd;stroke:none"
         id="path56" /><path
         d="m 5059.11,3059.84 -61.79,99.93 -9.92,-41.95 -41.19,12.97 65.61,-106.04 67.88,-49.58 -20.59,84.67"
         style="fill:#cb997e;fill-opacity:1;fill-rule:evenodd;stroke:none"
         id="path58" /><path
         d="m 5240.65,3165.87 c -57.2,-23.65 -96.11,-68.66 -118.23,-135.78 -11.44,-34.33 -16.78,-65.6 -16.02,-94.59 67.89,32.8 111.37,80.86 128.92,144.93 5.34,19.84 8.39,40.43 7.63,61.03 l -2.3,24.41"
         style="fill:#cb997e;fill-opacity:1;fill-rule:evenodd;stroke:none"
         id="path60" /><path
         d="m 5372.62,2889.73 v 27.46 c -63.31,-20.59 -109.84,-67.13 -138.83,-139.6 -14.49,-35.84 -22.88,-70.17 -25.17,-101.45 77.04,29.75 127.39,79.33 151.04,147.99 7.63,21.36 12.2,43.48 12.96,65.6"
         style="fill:#cb997e;fill-opacity:1;fill-rule:evenodd;stroke:none"
         id="path62" /><path
         d="m 5138.43,2927.87 -14.48,-39.67 -38.15,16.02 56.46,-110.6 63.31,-55.69 -13.73,86.96 -53.41,102.98"
         style="fill:#cb997e;fill-opacity:1;fill-rule:evenodd;stroke:none"
         id="path64" /><path
         d="m 4912.64,2822.6 c 28.99,-64.08 80.86,-109.84 155.62,-136.54 37.38,-13.73 71.7,-21.36 103.74,-22.13 -38.9,77.05 -93.82,126.63 -164.77,148.76 l -67.12,11.44 -27.47,-1.53"
         style="fill:#cb997e;fill-opacity:1;fill-rule:evenodd;stroke:none"
         id="path66" /><path
         d="m 5028.59,2593.75 -29.75,2.29 c 24.41,-73.22 75.52,-128.15 153.33,-165.53 39.67,-19.06 76.28,-30.51 110.61,-34.32 -34.33,87.72 -88.49,147.22 -163.24,178.5 -22.89,9.92 -46.54,16.78 -70.95,19.06"
         style="fill:#cb997e;fill-opacity:1;fill-rule:evenodd;stroke:none"
         id="path68" /><path
         d="m 5265.83,2438.9 10.68,98.41 -26.7,128.92 -27.46,-40.43 -36.61,28.98 28.23,-136.54 51.86,-79.34"
         style="fill:#cb997e;fill-opacity:1;fill-rule:evenodd;stroke:none"
         id="path70" /><path
         d="m 5279.56,2425.93 -6.86,-32.79 c 85.44,27.46 144.17,77.8 175.44,150.27 9.16,22.89 15.26,46.54 19.07,70.94 l 1.53,29.76 c -70.94,-18.31 -124.33,-65.61 -161.72,-141.89 -11.44,-23.65 -20.59,-49.58 -27.46,-76.29"
         style="fill:#cb997e;fill-opacity:1;fill-rule:evenodd;stroke:none"
         id="path72" /><path
         d="m 4812.71,1531.15 -28.22,25.94 c -28.22,-90.78 -17.55,-186.13 32.8,-286.06 25.17,-49.58 53.4,-90.01 84.67,-122.05 28.99,113.66 18.31,215.11 -32.8,305.89 -16.02,28.22 -35.09,54.16 -56.45,76.28"
         style="fill:#cb997e;fill-opacity:1;fill-rule:evenodd;stroke:none"
         id="path74" /><path
         d="m 5226.16,1181.78 c 39.67,28.99 68.66,61.02 86.96,95.35 -87.72,25.17 -176.21,8.39 -264.69,-50.34 -27.47,-18.31 -53.4,-39.67 -77.82,-64.08 l -28.98,-31.28 c 109.09,-25.17 204.44,-8.39 284.53,50.35"
         style="fill:#cb997e;fill-opacity:1;fill-rule:evenodd;stroke:none"
         id="path76" /><path
         d="m 5054.52,1463.26 -100.69,-170.11 -22.88,-131.97 106.03,92.3 94.6,159.43 -66.37,-15.25 -10.69,65.6"
         style="fill:#cb997e;fill-opacity:1;fill-rule:evenodd;stroke:none"
         id="path78" /><path
         d="m 4805.85,972.766 122.81,138.064 -67.88,-2.28 1.52,66.36 -130.44,-147.22 -47.29,-126.627 121.28,71.703"
         style="fill:#cb997e;fill-opacity:1;fill-rule:evenodd;stroke:none"
         id="path80" /><path
         d="m 4991.98,866.73 c 47.29,22.125 83.15,48.825 108.32,80.86 -84.67,43.48 -178.5,44.246 -280.72,2.289 -32.8,-12.965 -64.07,-29.746 -93.83,-50.344 l -35.09,-26.699 c 107.57,-48.059 207.49,-49.586 301.32,-6.106"
         style="fill:#cb997e;fill-opacity:1;fill-rule:evenodd;stroke:none"
         id="path82" /><path
         d="m 4036.16,873.598 c -9.15,12.968 -20.59,23.648 -33.56,32.039 l -16.78,9.156 c -121.28,17.543 -226.56,-35.852 -316.57,-160.191 -28.23,-39.672 -53.4,-83.911 -75.52,-131.969 -11.44,-23.649 -19.07,-44.246 -23.65,-61.028 h 28.23 c 3.05,11.442 17.54,33.563 42.71,66.368 28.23,38.14 58.74,72.465 91.55,102.218 92.3,86.961 160.95,111.368 206.72,73.993 37.38,-31.274 16.02,-79.336 -65.6,-143.411 -51.11,-39.668 -115.95,-80.859 -196.05,-122.816 l -60.26,0.766 v 0.761 l -6.1,-0.761 -177.74,4.578 c -234.18,125.863 -319.62,213.586 -257.83,264.695 70.18,58.738 183.84,-22.121 340.22,-242.574 h 28.22 c -21.36,66.367 -54.92,130.441 -99.93,192.226 -90.01,125.11 -195.28,178.504 -315.8,160.961 -19.83,-7.632 -36.62,-21.359 -50.35,-40.429 -27.46,-38.903 -27.46,-86.965 0,-144.172 42.72,-90.016 147.99,-167.82 315.81,-233.426 l -1.53,-7.629 -16.78,-55.683 -91.53,83.91 -178.5,70.175 31.27,-56.445 -60.26,-27.465 167.06,-65.597 131.21,-8.395 -9.92,-28.988 -6.1,-12.965 h 361.58 l -26.7,94.586 c 180.78,64.84 295.21,146.461 342.5,244.105 26.7,57.211 26.7,104.508 -0.02,143.407"
         style="fill:#cb997e;fill-opacity:1;fill-rule:evenodd;stroke:none"
         id="path84" /><path
         d="m 4638.79,1319.08 -23.64,31.28 c -47.29,-86.2 -57.22,-183.07 -28.99,-289.87 14.49,-55.69 36.61,-107.56 67.13,-154.092 52.64,110.612 61.79,218.172 28.98,321.152 -10.67,32.8 -25.16,63.31 -43.48,91.53"
         style="fill:#cb997e;fill-opacity:1;fill-rule:evenodd;stroke:none"
         id="path86" /><path
         d="m 4414.52,1189.41 -25.17,38.14 c -67.89,-92.3 -88.49,-204.44 -63.31,-335.644 12.96,-64.84 32.03,-121.289 57.21,-167.82 76.28,118.234 99.93,238 71.7,358.524 -8.38,37.38 -22.12,73.23 -40.43,106.8"
         style="fill:#cb997e;fill-opacity:1;fill-rule:evenodd;stroke:none"
         id="path88" /><path
         d="m 4199.41,917.844 c 0.76,37.375 -3.06,72.465 -12.21,106.796 l -15.25,41.19 -88.49,-110.611 c 50.35,-80.856 54.16,-154.09 12.2,-218.93 -12.96,-20.594 -30.51,-39.664 -51.11,-56.445 l -28.22,-18.309 11.45,-66.367 c 110.6,96.883 167.82,204.437 171.63,322.676"
         style="fill:#cb997e;fill-opacity:1;fill-rule:evenodd;stroke:none"
         id="path90" /><path
         d="m 4673.88,835.457 -65.6,13.731 18.31,64.839 -164.77,-110.609 -76.28,-109.848 135.02,38.145 153.32,103.742"
         style="fill:#cb997e;fill-opacity:1;fill-rule:evenodd;stroke:none"
         id="path92" /><path
         d="m 4383.25,396.836 c 61.79,3.055 113.66,15.258 155.61,37.379 -78.57,83.148 -184.6,125.101 -317.33,124.34 -41.96,0.761 -83.91,-3.817 -125.87,-12.203 l -50.34,-12.207 c 101.46,-96.879 214.35,-142.649 337.93,-137.309"
         style="fill:#cb997e;fill-opacity:1;fill-rule:evenodd;stroke:none"
         id="path94" /><path
         d="m 4364.94,656.957 -61.79,27.461 32.8,58.738 -184.6,-72.465 -99.17,-90.777 140.37,9.156 172.39,67.887"
         style="fill:#cb997e;fill-opacity:1;fill-rule:evenodd;stroke:none"
         id="path96" /><path
         d="m 4600.65,731.715 c -40.43,-9.156 -80.1,-22.887 -119,-41.192 l -46.53,-23.648 c 121.29,-70.945 241.05,-89.25 360.81,-55.687 60.27,17.546 107.56,41.953 142.65,73.23 -95.35,62.551 -208.25,78.57 -337.93,47.297"
         style="fill:#cb997e;fill-opacity:1;fill-rule:evenodd;stroke:none"
         id="path98" /><path
         d="m 3962.17,526.512 32.04,56.453 -178.5,-70.18 -95.35,-87.726 135.02,8.394 167.06,65.602 -60.27,27.457"
         style="fill:#cb997e;fill-opacity:1;fill-rule:evenodd;stroke:none"
         id="path100" /><path
         d="m 3596.78,326.656 c 11.44,-37.379 26.7,-73.23 45.77,-107.558 C 3702.05,108.492 3782.14,36.0234 3883.6,1.69531 3779.86,90.1797 3702.05,200.789 3650.94,334.285 l -67.13,38.903 12.97,-46.532"
         style="fill:#cb997e;fill-opacity:1;fill-rule:evenodd;stroke:none"
         id="path102" /><path
         d="m 2056.64,3440.48 -8.38,-23.64 c -5.34,-19.83 -8.4,-40.43 -8.4,-61.02 0.01,-66.37 28.23,-124.34 85.44,-173.93 8.4,28.23 11.44,59.5 9.91,95.35 -3.8,70.95 -29.74,125.87 -78.57,163.24"
         style="fill:#cb997e;fill-opacity:1;fill-rule:evenodd;stroke:none"
         id="path104" /><path
         d="m 1966.64,3038.48 c -22.12,67.13 -61.79,112.13 -119.01,135.78 l -1.52,-24.41 c -0.77,-20.59 2.29,-41.19 7.63,-61.02 17.54,-64.08 60.26,-112.14 128.15,-144.94 0.77,28.99 -4.58,60.27 -15.25,94.59"
         style="fill:#cb997e;fill-opacity:1;fill-rule:evenodd;stroke:none"
         id="path106" /><path
         d="m 2142.08,3139.17 -40.43,-12.97 -10.67,41.96 -61.03,-99.93 -22.12,-84.67 67.89,49.58 66.36,106.03"
         style="fill:#cb997e;fill-opacity:1;fill-rule:evenodd;stroke:none"
         id="path108" /><path
         d="m 2164.96,3169.68 96.88,-6.86 c 72.48,5.34 128.92,32.8 170.87,82.38 -23.64,10.68 -52.63,15.26 -86.19,14.5 -67.89,-2.29 -128.16,-32.04 -181.56,-90.02"
         style="fill:#cb997e;fill-opacity:1;fill-rule:evenodd;stroke:none"
         id="path110" /><path
         d="m 2267.18,3078.14 c -25.17,3.82 -54.15,0.77 -86.2,-9.14 -64.84,-20.6 -115.18,-65.61 -151.03,-135.79 l 95.35,19.84 c 67.9,25.17 115.18,66.36 141.88,125.09"
         style="fill:#cb997e;fill-opacity:1;fill-rule:evenodd;stroke:none"
         id="path112" /><path
         d="m 2151.24,3231.47 76.28,33.57 89.25,87.73 -41.95,-3.82 v 42.72 l -83.91,-81.62 -39.67,-78.58"
         style="fill:#cb997e;fill-opacity:1;fill-rule:evenodd;stroke:none"
         id="path114" /><path
         d="m 1621.84,2622.74 c 2.29,-24.41 9.16,-48.06 19.07,-70.94 30.52,-72.46 88.49,-122.82 174.69,-150.27 -4.58,34.32 -16.02,70.94 -34.33,109.08 -37.38,76.28 -90.77,123.57 -161.72,141.89 l 2.29,-29.76"
         style="fill:#cb997e;fill-opacity:1;fill-rule:evenodd;stroke:none"
         id="path116" /><path
         d="m 2020.03,2694.45 c 74.76,26.7 126.63,72.47 154.86,136.54 -27.47,4.58 -58.75,1.53 -93.83,-9.92 -70.95,-22.12 -125.87,-71.7 -164.77,-148.74 l 103.74,22.12"
         style="fill:#cb997e;fill-opacity:1;fill-rule:evenodd;stroke:none"
         id="path118" /><path
         d="m 1950.61,2936.26 -54.15,-102.97 -14.5,-86.97 63.32,55.69 57.97,110.61 -39.66,-16.02 -12.98,39.66"
         style="fill:#cb997e;fill-opacity:1;fill-rule:evenodd;stroke:none"
         id="path120" /><path
         d="m 1714.91,2898.12 c 0.76,-22.88 5.33,-45.01 13.72,-65.6 24.42,-68.66 74.76,-118.24 151.04,-147.99 -2.28,31.27 -10.68,65.6 -25.17,101.45 -29.75,72.48 -76.28,119 -139.59,139.6 v -27.46"
         style="fill:#cb997e;fill-opacity:1;fill-rule:evenodd;stroke:none"
         id="path122" /><path
         d="m 1858.32,2411.44 c 26.69,6.87 52.63,16.02 77.04,27.47 78.57,37.38 129.68,92.29 154.09,165.53 -30.52,1.52 -64.08,-5.34 -101.45,-21.36 -74.76,-31.28 -128.92,-90.78 -162.49,-178.5 l 32.81,6.86"
         style="fill:#cb997e;fill-opacity:1;fill-rule:evenodd;stroke:none"
         id="path124" /><path
         d="m 1811.02,2545.7 10.68,-98.41 51.87,79.34 28.99,136.54 -37.38,-28.99 -26.7,40.43 -27.46,-128.91"
         style="fill:#cb997e;fill-opacity:1;fill-rule:evenodd;stroke:none"
         id="path126" /><path
         d="m 3210.76,2904.53 c -17.82,5.82 -34.41,15.51 -51.24,38.13 -5.06,6.91 -9.97,14.99 -14.67,24.73 -4.7,9.74 -9.19,21.14 -13.35,34.97 -4.15,13.82 -7.96,30.07 -11.04,49.84 -3.07,19.77 -5.42,43.05 -6.54,66.38 -1.11,26.57 -5.8,53.08 -13.1,75.62 -7.3,22.54 -17.19,41.13 -29.38,57.19 -25.81,34.28 -63.18,56.55 -96.36,64 l -24.41,4.58 v -15.27 c 20.17,-4.89 37.35,-13.15 57.98,-35.08 11.52,-12.46 21.29,-26.48 30.33,-44.07 9.04,-17.6 17.33,-38.78 24.07,-65.96 6.73,-27.17 11.91,-60.34 14.25,-93.64 1.09,-24.43 5.6,-48.77 12.53,-69.25 6.93,-20.48 16.28,-37.09 27.8,-51.29 28.2,-35.73 76.17,-57.38 113.76,-57.2 v 12.2 c -7.06,0.67 -14.05,2.07 -20.63,4.12"
         style="fill:#cb997e;fill-opacity:1;fill-rule:evenodd;stroke:none"
         id="path128" /><path
         d="m 3458.72,3049.93 c -7.02,-32.89 -20.56,-65.01 -43.49,-99.17 -13.77,-21.4 -30.97,-40.69 -49.23,-55.49 -18.26,-14.81 -37.57,-25.13 -59.06,-31.93 -21.48,-6.81 -45.14,-10.09 -68.73,-9.42 -23.6,0.67 -47.14,5.28 -67.86,13.44 -20.71,8.15 -38.6,19.84 -54.79,35.94 -16.19,16.11 -30.67,36.64 -41.3,58.91 -3.58,7.17 -6.84,14.49 -10.14,22.88 -7.19,18.07 -14.14,41.06 -19.62,64.07 l -18.31,69.41 c -8.85,25.2 -18.27,50.22 -25.59,68.35 -7.32,18.13 -12.56,29.39 -16.41,37.1 -3.85,7.71 -6.33,11.88 -9.11,15.84 -9.93,14.32 -22.42,26.87 -36.71,36.86 -14.3,9.99 -30.41,17.43 -49.56,22.09 -19.15,4.65 -41.34,6.55 -63.24,5.13 -12.26,-0.67 -24.48,-2.47 -34.77,-4.99 -10.28,-2.52 -18.64,-5.77 -25.79,-9.49 -7.16,-3.71 -13.13,-7.91 -18.26,-12.6 -5.14,-4.68 -9.45,-9.87 -13.11,-15.74 -3.66,-5.87 -6.67,-12.42 -8.98,-20.01 -7.27,-23.5 -7.3,-64.84 7.27,-100.38 4.57,-11.28 10.41,-22.06 17.36,-32.07 l 28.99,-50.34 c 6.43,-14.16 11.65,-28.9 14.88,-41.53 5.74,-23.09 6.09,-40.37 1.9,-58.4 -2.38,-10.08 -5.16,-20.05 -9.17,-32.57 -4.02,-12.51 -9.27,-27.56 -16.84,-47.03 -7.56,-19.47 -17.44,-43.36 -29.21,-69.05 -11.77,-25.69 -25.44,-53.19 -34.88,-70.5 -9.42,-17.31 -14.62,-24.45 -18.43,-29.14 -3.81,-4.69 -6.23,-6.94 -8.95,-8.78 l 6.11,-6.87 96.11,118.24 c 18.31,26.61 35.03,54.35 47.28,77.95 12.25,23.59 20.03,43.03 25.33,59.81 5.29,16.79 8.11,30.93 9.41,43.4 1.31,12.48 1.13,23.3 -0.39,33.96 -4.76,22.97 -12.29,45.4 -21.61,64.88 -9.31,19.48 -20.41,36 -33.27,50.49 -12.86,14.5 -27.48,26.96 -43.53,37.19 -13.57,18.09 -27.22,39.59 -10.37,59.82 4.49,4.83 11.17,8.53 18,11.12 l 57.98,-12.2 c 13.78,-5.62 26.81,-13.1 38.5,-22.12 11.68,-9.01 22.03,-19.56 31.34,-32.28 9.32,-12.71 17.65,-27.58 23.98,-43.24 l 79.34,-196.04 c 13.43,-25.17 30.1,-48.67 47.95,-67.93 17.84,-19.25 36.84,-34.27 57.52,-46.11 20.69,-11.84 43.05,-20.5 67.3,-26.59 24.25,-6.09 50.39,-9.6 72.69,-10.59 22.3,-0.98 40.77,0.58 56.82,3.65 16.06,3.08 29.72,7.68 42.51,14.07 3.11,1.39 6.07,3.08 10.28,6.02 4.2,2.94 9.64,7.13 17.73,14.54 8.1,7.4 18.85,18.03 29.2,29.03 2.69,3.14 5.13,6.49 8.35,11.69 3.21,5.2 7.21,12.24 12.51,23.15 5.3,10.92 11.9,25.71 18.05,40.68 6.36,16.8 11.82,33.96 15.55,48.47 3.74,14.51 5.75,26.37 6.81,36.42 1.06,10.04 1.17,18.28 0.52,26.48 l -6.86,1.52"
         style="fill:#cb997e;fill-opacity:1;fill-rule:evenodd;stroke:none"
         id="path130" /><path
         d="m 2447.97,3423.71 c 86.96,45 142.65,109.08 167.82,191.46 -34.32,1.53 -72.46,-7.63 -112.89,-27.46 -83.15,-37.38 -142.65,-106.79 -178.51,-206.72 l 37.39,8.39 c 30.51,9.15 59.5,20.59 86.19,34.33"
         style="fill:#cb997e;fill-opacity:1;fill-rule:evenodd;stroke:none"
         id="path132" /><path
         d="m 2706.57,3249.78 -4.58,2.29 c -2.29,-10.68 -22.12,-41.19 -61.03,-90.77 -26.69,-48.06 -28.21,-97.64 -3.81,-150.28 15.26,-32.8 36.62,-60.26 63.31,-83.15 17.56,-14.49 29.76,-37.37 36.63,-67.89 41.95,64.08 45.76,119 12.96,164.01 -38.9,54.16 -57.21,108.32 -56.44,161.72 l 12.96,64.07"
         style="fill:#cb997e;fill-opacity:1;fill-rule:evenodd;stroke:none"
         id="path134" /><path
         d="m 2699.7,1235.94 -25.16,-38.14 c -18.31,-33.57 -32.05,-69.42 -41.2,-106.8 -28.98,-120.523 -5.34,-240.285 70.94,-358.52 26.7,46.528 45.77,102.981 57.98,167.821 25.17,131.199 3.81,243.339 -62.56,335.639"
         style="fill:#cb997e;fill-opacity:1;fill-rule:evenodd;stroke:none"
         id="path136" /><path
         d="m 2448.73,1327.48 c -18.3,-28.23 -32.03,-58.74 -41.95,-91.55 -34.32,-102.97 -24.4,-210.53 28.23,-321.141 29.75,46.535 51.87,98.411 66.36,154.091 28.23,106.79 18.31,203.67 -28.99,289.87 l -23.65,-31.27"
         style="fill:#cb997e;fill-opacity:1;fill-rule:evenodd;stroke:none"
         id="path138" /><path
         d="m 2480.01,857.582 -66.37,-13.734 154.1,-103.743 134.25,-38.14 -75.51,109.848 -164.77,110.605 18.3,-64.836"
         style="fill:#cb997e;fill-opacity:1;fill-rule:evenodd;stroke:none"
         id="path140" /><path
         d="m 2402.97,909.449 -45.77,126.631 -131.97,147.22 1.53,-66.36 -67.13,2.29 123.58,-138.074 119.76,-71.707"
         style="fill:#cb997e;fill-opacity:1;fill-rule:evenodd;stroke:none"
         id="path142" /><path
         d="m 2912.53,1033.03 c -9.91,-34.331 -13.73,-69.417 -12.2,-106.8 3.05,-118.234 60.26,-226.554 170.87,-323.433 l 11.44,67.129 c -31.27,16.781 -57.21,41.957 -79.33,74.758 -41.95,64.839 -38.14,138.066 12.96,218.929 l -88.48,110.607 -15.26,-41.19"
         style="fill:#cb997e;fill-opacity:1;fill-rule:evenodd;stroke:none"
         id="path144" /><path
         d="m 2219.13,1463.26 c -51.11,-90.78 -61.79,-192.23 -32.04,-305.89 30.52,32.04 57.97,72.47 83.15,122.05 50.35,99.93 61.78,195.28 33.56,286.06 -31.27,-22.89 -59.5,-57.22 -84.67,-102.22"
         style="fill:#cb997e;fill-opacity:1;fill-rule:evenodd;stroke:none"
         id="path146" /><path
         d="m 2145.89,1139.82 c -25.93,34.33 -61.02,65.61 -106.03,95.36 -87.72,58.73 -176.21,75.52 -263.93,50.34 l 20.6,-31.27 c 19.07,-24.41 41.19,-45.77 66.36,-64.08 79.34,-58.74 173.92,-75.52 283,-50.35"
         style="fill:#cb997e;fill-opacity:1;fill-rule:evenodd;stroke:none"
         id="path148" /><path
         d="m 2033,1471.65 -10.68,-65.61 -65.6,15.26 94.58,-159.42 105.27,-92.31 -21.35,131.97 -102.22,170.11"
         style="fill:#cb997e;fill-opacity:1;fill-rule:evenodd;stroke:none"
         id="path150" /><path
         d="m 2014.69,927.758 c 24.41,-21.36 51.11,-38.903 80.86,-52.633 93.83,-43.48 194.52,-41.957 302.08,6.098 -34.33,30.515 -77.05,56.453 -128.92,77.05 -102.22,41.957 -196.05,41.192 -281.48,-3.054 l 27.46,-27.461"
         style="fill:#cb997e;fill-opacity:1;fill-rule:evenodd;stroke:none"
         id="path152" /><path
         d="m 2187.09,666.113 c 32.8,-20.597 67.89,-35.851 105.27,-46.535 119,-33.562 239.52,-15.254 360.81,55.684 -45.77,28.226 -100.69,49.586 -165.53,64.843 -130.44,31.278 -243.34,15.258 -338.69,-47.292 l 38.14,-26.7"
         style="fill:#cb997e;fill-opacity:1;fill-rule:evenodd;stroke:none"
         id="path154" /><path
         d="m 3035.34,588.305 -98.4,90.773 -184.6,72.469 32.8,-58.734 -61.79,-28.227 171.64,-67.129 140.35,-9.152"
         style="fill:#cb997e;fill-opacity:1;fill-rule:evenodd;stroke:none"
         id="path156" /><path
         d="M 3437.35,342.676 C 3385.48,209.184 3307.67,98.5742 3203.93,10.0859 c 101.45,34.3282 182.31,106.7931 241.81,217.4061 29.75,54.156 49.58,106.031 57.97,154.086 l -66.36,-38.902"
         style="fill:#cb997e;fill-opacity:1;fill-rule:evenodd;stroke:none"
         id="path158" /><path
         d="m 2555.53,442.605 41.95,-17.546 c 36.62,-11.442 74,-17.543 112.9,-19.832 124.34,-5.336 237.24,40.429 338.7,137.308 -51.11,16.781 -109.85,25.176 -176.22,24.41 -133.48,0.766 -238.75,-41.191 -317.33,-124.34"
         style="fill:#cb997e;fill-opacity:1;fill-rule:evenodd;stroke:none"
         id="path160" /></g></g></svg>
