<?xml version="1.0" encoding="UTF-8" standalone="no"?>
<svg
   xmlns:dc="http://purl.org/dc/elements/1.1/"
   xmlns:cc="http://creativecommons.org/ns#"
   xmlns:rdf="http://www.w3.org/1999/02/22-rdf-syntax-ns#"
   xmlns:svg="http://www.w3.org/2000/svg"
   xmlns="http://www.w3.org/2000/svg"
   xmlns:sodipodi="http://sodipodi.sourceforge.net/DTD/sodipodi-0.dtd"
   xmlns:inkscape="http://www.inkscape.org/namespaces/inkscape"
   version="1.1"
   id="svg2"
   xml:space="preserve"
   width="258.66666"
   height="258.66666"
   viewBox="0 0 258.66666 258.66666"
   sodipodi:docname="Diesel.eps"><metadata
     id="metadata8"><rdf:RDF><cc:Work
         rdf:about=""><dc:format>image/svg+xml</dc:format><dc:type
           rdf:resource="http://purl.org/dc/dcmitype/StillImage" /></cc:Work></rdf:RDF></metadata><defs
     id="defs6" /><sodipodi:namedview
     pagecolor="#ffffff"
     bordercolor="#666666"
     borderopacity="1"
     objecttolerance="10"
     gridtolerance="10"
     guidetolerance="10"
     inkscape:pageopacity="0"
     inkscape:pageshadow="2"
     inkscape:window-width="640"
     inkscape:window-height="480"
     id="namedview4" /><g
     id="g10"
     inkscape:groupmode="layer"
     inkscape:label="ink_ext_XXXXXX"
     transform="matrix(1.3333333,0,0,-1.3333333,0,258.66667)"><g
       id="g12"
       transform="scale(0.1)"><path
         d="M 2.59766,1933.23 H 1930.16 V 5.66797 H 2.59766 V 1933.23"
         style="fill:#ffffff;fill-opacity:1;fill-rule:evenodd;stroke:none"
         id="path14" /><path
         d="m 939.969,1745.7 c 7.886,-0.44 16.656,2.63 23.672,-0.88 l 20.16,-9.64 c 23.679,-0.88 46.909,-3.07 69.259,-7.01 5.27,0.44 9.65,3.06 14.47,5.26 17.54,-7.89 43.4,-8.77 61.81,-2.2 3.95,-1.31 7.46,-5.26 11.84,-3.5 l 7.02,4.38 c 1.31,-4.82 5.25,-8.33 10.08,-9.64 l 47.78,-20.17 c 1.75,5.7 0,13.59 5.26,17.54 l 7.01,-1.75 v -9.65 c 5.27,-3.07 6.14,7.45 12.28,4.38 v -10.52 c 3.51,1.75 4.82,6.58 7.01,10.08 h 7.89 c 1.76,-18.84 -6.13,-34.63 -10.08,-50.85 10.52,13.59 17.1,28.94 22.8,44.28 h 9.64 c -5.7,-20.17 -12.71,-40.33 -17.53,-60.5 4.82,6.58 10.96,11.4 17.97,13.15 v -9.64 l 16.66,3.51 c -3.51,-10.52 -7.45,-22.36 -11.84,-32.88 2.63,0.87 5.7,3.07 8.77,5.26 l 19.29,41.21 c 7.89,6.57 17.1,8.76 26.3,12.71 l -22.36,-46.47 2.19,-4.82 c 8.77,10.96 21.48,12.27 32.01,18.85 9.64,7.02 18.85,17.54 32.87,12.27 1.76,-0.87 3.95,-2.19 4.39,-4.38 0.88,-3.94 -3.95,-6.14 -6.58,-7.45 -12.71,-7.89 -24.99,-17.97 -35.94,-29.81 -10.09,-14.47 -16.22,-31.12 -32.44,-41.65 -3.08,-3.94 -6.15,-8.33 -8.77,-12.71 0.44,-0.44 1.31,0 2.19,0 l 98.64,83.73 15.34,5.7 c 4.82,-10.96 -10.08,-14.03 -14.9,-20.6 l -5.27,-20.17 1.76,-3.07 c -5.7,-7.89 -13.15,-15.34 -19.73,-22.79 5.26,0.44 11.84,2.19 17.53,3.94 l -0.44,-6.14 c -4.82,-5.7 -8.76,-11.4 -13.15,-17.1 1.76,-0.43 4.39,0 6.14,0.88 l 29.81,20.61 21.92,-0.44 c -7.45,-14.91 -24.55,-23.24 -33.75,-36.82 13.59,3.06 27.18,9.2 40.33,15.34 1.31,-10.52 -10.52,-13.15 -15.79,-19.29 -4.82,-3.07 -8.76,-7.89 -13.15,-11.83 17.54,7.88 35.07,18.41 53.05,27.17 l 24.98,11.4 c 0.88,-6.14 9.65,-10.52 5.27,-17.53 1.75,-0.44 3.94,-0.44 6.13,-0.44 l 3.07,-7.46 -52.17,-35.07 c 4.39,-1.75 12.28,2.2 13.6,-3.5 -2.2,-3.07 -4.83,-6.14 -7.9,-9.21 l 18.41,3.51 c 0.88,-2.63 1.76,-5.26 1.32,-7.89 -7.45,-5.26 -16.66,-6.58 -23.67,-11.4 6.14,-2.19 14.46,-0.44 21.04,-1.31 6.14,-2.2 13.15,-3.51 20.17,-3.95 2.19,-2.63 0.87,-7.01 -0.44,-9.64 7.45,0.44 15.78,1.75 23.67,3.5 -7.01,-9.64 -17.1,-15.34 -27.62,-17.54 l -10.09,-15.34 3.08,-11.39 c 9.64,-1.76 19.28,-7.02 24.55,-16.22 -3.95,0.44 -8.77,0.87 -10.96,-3.51 4.82,-15.78 8.76,-32 14.03,-47.79 8.32,-48.22 14.9,-96.43 23.23,-144.66 -3.95,-32 -17.54,-60.05 -20.17,-92.5 0,-8.33 4.38,-18.85 -5.26,-24.1 l 3.07,-10.52 c -3.94,-3.52 -9.21,-8.78 -3.94,-14.04 -3.08,-19.72 -3.51,-40.77 -11.84,-58.3 -9.2,-19.727 -20.6,-42.957 -11.84,-65.754 -4.38,-6.137 -9.64,-14.031 -5.26,-21.481 l 5.26,-8.765 c -3.5,0.437 -8.76,1.312 -10.52,-2.633 -1.31,-9.207 7.89,-14.465 6.57,-23.672 l -20.59,-18.41 c -1.32,-7.016 4.38,-17.098 -3.07,-19.731 -5.27,-1.312 -8.33,1.317 -11.84,3.508 -2.63,-7.449 -1.31,-15.781 0,-23.23 -6.14,2.629 -10.96,8.328 -12.71,14.902 -8.33,-9.207 3.94,-18.414 0,-29.371 -11.84,13.148 -14.03,31.125 -30.69,42.086 0.44,-21.922 16.66,-38.578 19.73,-59.621 l -2.19,-6.574 c -19.73,-27.621 -32.01,-61.375 -62.25,-82.418 l -22.8,-12.715 -38.58,120.558 c -3.5,0.438 -8.33,0 -11.39,-2.632 -6.14,-7.891 -9.21,-17.536 -15.35,-25.426 -19.29,-21.914 -24.55,-49.535 -33.75,-75.84 -15.35,-32 -37.27,-63.125 -31.13,-102.578 l 29.37,-106.09 c 5.27,-23.23 32.01,-35.945 42.09,-56.984 l -44.28,-23.672 -25.86,17.093 c -7.01,11.836 -10.08,28.497 -3.07,41.211 -2.19,7.012 -7.89,13.149 -7.89,21.039 -1.32,1.754 -3.07,1.754 -5.26,1.754 l 10.08,15.782 -14.46,5.699 c 0,4.383 1.75,8.769 0,12.711 -2.64,3.07 -6.58,3.945 -10.53,4.387 l 2.64,45.152 c -12.72,-2.192 -8.77,13.148 -13.59,19.726 -2.64,7.012 -7.02,13.149 -10.09,20.164 l -0.88,35.95 c -1.31,1.75 -3.94,0.875 -5.69,1.316 -0.88,-14.031 -7.02,-26.305 -18.42,-35.949 -0.44,-3.067 1.75,-4.824 3.51,-7.016 3.07,2.633 7.45,3.949 11.4,2.633 -8.33,-19.289 -10.08,-45.594 -1.76,-66.195 -3.5,-1.317 -7.01,-3.071 -8.32,-6.574 -4.83,-17.536 -14.47,-33.758 -10.09,-53.922 2.63,-17.098 0,-35.075 -8.33,-49.535 -0.87,-1.754 -3.94,-0.879 -5.26,-0.879 -1.31,5.695 -3.07,12.711 -9.64,14.027 0.44,-4.383 2.63,-9.207 3.51,-14.027 -10.53,-7.454 -20.17,-21.922 -34.2,-15.34 -5.26,6.133 -4.38,14.898 -7.01,22.355 -2.19,4.821 -4.39,9.645 -4.39,15.781 1.76,0.875 3.95,1.313 6.14,0.875 -2.63,8.766 -8.33,17.098 -11.84,26.301 0.45,1.758 0.45,4.387 2.63,5.262 10.53,-1.754 15.79,-13.59 21.92,-21.039 -8.76,17.094 -14.02,41.207 -4.38,59.617 19.29,11.836 17.1,35.07 18.41,55.234 14.47,12.715 13.15,31.567 14.91,49.102 -6.14,3.504 -7.01,-7.453 -13.15,-4.387 l 0.87,9.207 c -3.51,-2.191 -7.45,-5.699 -12.71,-4.386 9.64,20.168 1.75,43.402 3.51,65.757 -0.88,8.77 -9.65,15.782 -17.54,18.852 -2.19,9.207 7.46,22.355 -3.51,27.18 l -4.38,0.437 v 16.219 l -16.22,19.73 0.44,14.465 c -23.23,-3.945 -44.277,3.946 -64,12.711 -0.878,-9.207 -0.441,-18.847 -0.441,-28.054 l -14.469,-3.508 c -5.695,-17.532 -14.902,-32.875 -25.863,-47.782 -2.629,-6.14 -1.754,-13.152 -1.312,-19.73 -4.383,-0.875 -13.153,5.703 -12.715,-3.066 -0.438,-2.192 1.316,-3.067 3.07,-3.946 4.82,-1.316 6.137,2.192 7.012,5.699 1.316,-3.945 3.508,-10.085 4.383,-15.343 h -5.696 l -0.437,-13.153 c 9.207,-7.89 17.531,-16.656 21.48,-27.179 -11.84,-3.067 -12.715,10.961 -19.289,16.66 l -3.945,-3.504 29.367,-49.539 h -8.766 l -30.687,46.031 h -3.504 c 1.754,-13.152 14.469,-22.801 20.602,-34.633 7.453,-11.84 14.027,-24.113 19.289,-37.261 -6.575,-2.633 -8.766,4.82 -14.028,4.82 l -0.437,-7.453 -17.539,3.508 c -7.45,17.097 -19.285,32.004 -32.438,46.906 l -0.437,-11.836 c -4.383,-0.875 -9.207,0 -10.961,4.82 0.879,11.399 -7.016,20.606 -17.094,24.989 l -7.891,3.066 c -1.754,-4.816 -2.195,-10.953 -7.453,-14.024 -8.332,-4.382 -17.976,14.465 -21.48,-1.753 -10.524,-2.629 -19.731,-10.52 -26.742,-19.289 -11.836,7.89 -24.547,-0.875 -36.825,-1.317 -5.257,-3.504 -5.257,-9.641 -4.82,-15.781 -7.453,3.949 -14.906,7.89 -21.922,11.836 -0.433,-3.504 -0.433,-6.574 -3.066,-8.766 -2.192,-1.754 -4.824,-2.633 -7.453,-2.633 -5.696,10.52 -12.274,-3.07 -18.848,-3.945 16.219,-28.055 50.41,-47.781 57.422,-79.781 6.141,-11.84 -10.52,-28.496 7.457,-34.633 v -15.781 c 3.066,0 6.137,-0.438 7.012,-3.946 0.441,-3.949 0.441,-8.332 3.066,-11.836 3.949,7.887 7.016,16.657 10.086,24.551 1.312,0.875 3.504,0.434 5.262,0.434 -1.317,-10.082 -2.633,-20.602 -3.508,-31.121 -19.727,0 -40.332,0.433 -50.414,19.289 -2.192,4.383 -3.508,9.203 -4.824,14.023 -5.696,3.071 -4.817,-3.941 -7.891,-6.136 l -16.656,-4.821 c -4.821,-6.136 3.066,-12.273 2.629,-19.289 0.879,-3.508 -2.629,-5.699 -5.258,-7.015 l -3.067,-0.875 c 0.434,-12.278 -0.441,-24.989 -11.398,-32.004 -4.387,-3.067 -9.648,-3.067 -15.348,-3.067 -6.574,1.754 -11.832,6.137 -17.097,11.836 11.84,27.18 30.25,52.606 39.457,81.098 3.07,19.293 5.261,39.015 8.328,58.742 0.875,9.648 -3.067,18.852 -11.836,23.238 -24.109,14.465 -57.426,13.59 -85.043,8.328 -24.113,0.875 -47.344,3.071 -68.391,11.832 -28.492,19.731 -38.574,52.606 -35.07,86.364 3.512,15.343 10.523,29.371 21.043,42.086 l -18.848,35.945 15.34,-1.754 c 4.387,7.016 11.399,17.098 21.481,14.906 3.511,-0.879 6.578,-3.507 7.894,-7.015 1.75,-7.891 0.875,-16.657 -5.262,-21.918 -2.632,-2.629 -6.578,-3.946 -10.082,-5.262 1.313,7.453 -6.14,8.77 -10.523,12.273 -1.754,-5.695 6.578,-7.449 8.332,-12.273 4.379,-11.398 -4.387,-21.918 -9.645,-31.562 -7.894,-11.836 -14.468,-24.989 -13.589,-39.891 5.695,-9.645 17.531,-13.152 28.492,-10.961 7.453,-0.875 13.59,-5.258 18.851,-10.957 4.383,2.625 8.328,5.262 12.274,7.891 l 4.387,-8.332 11.835,10.523 c 17.536,-4.82 26.743,12.273 43.832,7.891 4.825,-0.879 9.211,-3.508 13.59,-5.262 l 27.184,29.371 c 1.754,-6.137 -2.633,-16.219 3.945,-20.164 3.504,0.437 4.383,4.82 7.891,6.137 7.012,0.875 14.027,-1.317 20.601,-3.508 l 17.098,20.605 c 4.824,-3.945 4.383,-17.097 14.469,-12.715 8.765,12.715 10.082,33.317 28.496,38.141 9.641,1.754 19.726,0.441 28.93,-0.437 l 11.836,17.968 c 7.015,1.758 14.031,12.278 21.48,6.137 5.262,12.715 13.59,28.063 5.262,42.086 -3.071,4.824 -10.082,3.07 -14.028,3.508 -0.441,4.82 -3.949,10.082 -8.769,11.836 -0.875,5.261 2.629,14.468 -4.82,17.097 -11.836,0.438 -13.59,14.907 -20.165,22.356 -2.195,0.879 -4.386,3.949 -7.015,1.758 l -4.383,-3.95 c -10.523,7.891 -21.922,15.344 -33.758,20.164 -7.015,-2.191 -7.89,7.016 -10.957,10.524 -3.949,13.152 -4.387,30.246 7.891,39.453 l 9.64,6.578 6.141,-13.59 c 3.508,-0.437 6.574,2.192 10.52,2.629 10.523,-13.152 21.043,-26.304 33.316,-39.015 h 11.836 l 10.961,-10.52 c -3.07,-10.082 2.191,-17.973 9.207,-24.113 7.449,-17.094 3.945,-39.016 18.41,-53.481 l 4.82,-7.015 c 8.332,10.523 8.332,24.547 12.274,37.261 1.758,2.633 4.824,3.95 7.457,3.071 3.504,-3.946 0.875,-12.274 7.449,-14.028 0.879,7.012 1.754,14.907 8.77,18.411 4.382,1.312 8.769,-0.438 12.711,-1.313 3.07,9.207 4.82,20.16 15.343,24.109 1.754,20.602 11.836,37.704 17.098,56.989 17.098,16.218 5.258,44.277 16.223,63.125 2.191,3.945 5.695,8.332 10.957,8.765 l 15.339,20.605 h -12.273 l -3.504,14.47 c -3.508,0.43 -7.453,0 -10.961,0.43 -4.383,6.58 -8.765,14.91 -5.262,22.8 4.825,7.89 17.536,14.46 11.399,24.99 -1.754,2.19 -4.383,5.26 -7.887,4.38 -3.949,-2.19 -4.39,-6.57 -5.703,-10.08 l -23.672,3.51 c -3.07,3.94 -6.137,10.08 -11.398,11.4 -6.137,0.87 -10.082,-3.51 -14.906,-6.15 6.14,0.88 9.207,-4.37 13.589,-6.57 l 0.438,-12.71 10.523,-3.5 -7.011,-15.35 c 2.191,-2.19 4.82,-3.51 5.695,-6.58 0.441,-9.2 -6.57,-16.21 -13.149,-21.92 -2.628,-0.87 -5.261,-2.63 -7.89,-1.31 -3.508,3.94 0,9.64 -0.442,14.03 -13.589,-1.32 -26.3,1.75 -39.89,2.19 -6.137,-1.32 -7.012,-7.89 -11.399,-11.4 -9.203,-6.14 -18.41,-10.96 -28.492,-14.9 -3.508,-0.88 -6.14,0.43 -9.207,1.31 l -14.906,-16.656 c -4.383,0.875 -10.52,1.754 -14.465,-0.879 -6.578,-5.258 -9.203,-14.028 -17.098,-17.973 -7.453,-1.312 -15.777,3.508 -20.601,-3.945 -4.824,-5.258 -9.207,-11.836 -15.785,-13.59 l -9.645,10.523 c -0.875,-6.574 2.633,-16.66 -4.82,-20.601 l -4.82,0.437 c -4.387,17.094 -9.645,35.942 -5.7,54.356 7.891,0.875 15.782,5.698 18.852,13.148 3.941,6.14 -3.512,14.03 3.504,18.41 7.015,-4.38 16.656,-3.5 23.238,0.88 2.625,7.89 5.695,16.23 13.586,21.48 l 8.328,-8.33 c 14.027,14.03 24.551,31.56 20.606,52.61 -2.192,10.52 -7.016,19.73 -11.399,29.37 6.141,1.76 9.645,-2.19 12.711,-6.14 v -3.94 c 8.77,0.44 21.922,-5.7 27.18,4.82 l 2.191,-16.22 c 9.645,2.63 19.731,6.58 29.813,10.08 8.765,10.09 15.343,21.48 19.285,33.32 2.633,1.31 4.824,3.07 7.457,3.95 v -25.43 l 7.008,-0.44 c -3.067,7.89 6.14,7.01 8.773,11.4 3.504,-2.64 6.57,-6.58 11.399,-4.83 7.449,3.51 -0.442,19.73 10.519,17.1 3.945,-3.95 7.012,-8.32 11.399,-11.83 1.753,2.63 3.945,6.13 7.449,6.57 3.07,-0.88 8.332,-0.44 7.89,-4.38 -0.433,-1.32 0.442,-2.19 1.317,-2.19 h 2.633 l 3.503,15.34 c 9.645,6.58 10.961,17.1 14.028,26.74 l -1.754,7.89 c 9.207,5.26 15.781,14.91 17.976,24.11 11.836,1.75 23.675,4.39 35.505,5.7 l -6.13,-26.74 c 4.82,0 8.76,-1.32 11.39,-5.7 -3.07,-17.97 6.58,-36.38 -0.87,-53.48 3.5,-1.32 7.89,-2.19 10.08,-6.14 0.44,-8.33 -1.32,-17.97 0,-25.86 13.15,-20.17 -1.32,-43.4 -2.63,-64.44 l -3.95,-9.65 c 5.26,1.76 11.4,5.7 17.54,2.63 l 8.76,5.26 c -2.62,6.14 -4.82,13.6 -2.62,20.17 2.62,7.45 10.52,11.39 16.21,15.34 12.72,6.14 22.8,20.61 39.02,16.66 0.88,-1.32 0.44,-3.51 2.19,-4.82 10.52,5.26 13.15,-7.45 19.29,-11.84 2.19,-11.84 -2.19,-22.36 -0.88,-34.63 2.2,-21.92 0,-43.839 -10.51,-61.812 -3.95,-3.503 -10.09,-3.503 -13.59,-8.765 -2.2,-3.07 -4.83,-6.137 -5.27,-9.649 -6.57,-0.437 -14.03,-1.75 -17.09,-8.324 -1.32,-3.07 -2.19,-6.578 -1.76,-10.523 h 0.88 c 5.26,4.383 10.08,9.207 15.34,12.273 l 5.26,-8.765 -23.23,-20.165 -22.8,10.958 v 13.152 c 3.95,7.453 20.17,12.711 12.28,21.918 -5.26,3.508 -12.72,8.765 -12.28,15.781 0.88,7.016 6.14,13.59 3.07,21.481 -1.75,5.7 -7.01,10.52 -11.83,14.03 -1.32,-5.7 -7.46,-11.4 -13.59,-12.28 l -10.09,14.03 c -1.31,0.44 -2.63,0 -3.94,0 0,-4.82 3.07,-9.64 3.51,-14.905 l -3.51,-27.18 c 0.44,-2.192 2.63,-3.504 4.38,-5.258 3.51,5.258 8.33,-0.437 12.72,-0.437 3.06,-7.891 3.94,-18.411 1.75,-27.18 -3.51,-9.207 -12.71,-16.66 -8.77,-28.059 -14.46,-3.941 -31.999,-14.027 -35.069,-30.683 -1.754,-16.657 4.383,-31.125 16.219,-42.961 9.21,-3.508 17.1,-12.274 28.5,-7.891 v -6.137 c 1.31,-0.879 2.62,-0.437 4.38,-0.437 l 0.44,9.641 c 7.45,8.769 25.86,8.769 24.55,23.671 -0.88,2.633 -3.51,5.704 -6.14,7.016 -11.84,-1.312 -8.77,-17.098 -19.73,-20.168 -6.57,-2.191 -14.03,-3.066 -21.48,-3.066 -8.77,10.086 -18.411,21.043 -14.465,35.949 3.945,16.219 21.915,21.48 35.065,26.305 l -3.06,14.023 c 7.45,3.07 10.52,-4.82 14.46,-8.328 0.44,-3.504 1.32,-8.332 -1.75,-10.961 -9.21,-7.887 -31.56,-7.887 -26.3,-26.738 -3.95,0.875 -7.9,2.625 -11.84,3.504 -0.88,-2.629 -1.31,-5.696 0,-8.766 l 3.94,-3.508 c 2.2,5.262 7.46,3.945 10.97,2.633 22.35,-6.137 33.75,18.41 50.85,27.176 31.12,15.343 37.26,49.539 55.67,74.527 22.36,31.563 22.36,81.538 2.63,114.408 -12.27,14.47 -30.25,22.37 -49.53,17.54 -3.51,-10.52 -16.22,-8.33 -23.24,-14.03 -3.95,-2.19 -8.33,-5.7 -13.15,-4.38 -3.95,5.7 -0.88,16.22 -10.08,18.85 l -2.63,0.44 c 11.4,24.11 -9.21,44.27 -6.58,69.26 h 8.33 l 7.01,-19.72 h 1.32 c 2.19,9.64 -8.33,23.67 3.95,28.93 4.82,2.19 7.45,-2.63 9.2,-5.7 l 8.77,-23.23 h 9.64 c 0.88,-5.71 1.76,-11.84 3.51,-17.54 0.88,0.88 -0.44,2.63 0.44,3.95 l 19.72,7.88 c 0.45,2.64 -0.43,5.27 -1.75,7.46 l -5.7,3.94 -8.33,37.27 c 7.89,-0.88 9.64,9.2 14.91,14.02 5.7,1.76 5.26,-6.57 7.89,-9.64 6.14,-16.66 12.71,-35.95 6.57,-54.36 10.09,-2.19 21.93,-2.19 28.94,-10.96 -0.44,-1.32 0.87,-2.19 0.44,-3.51 7.01,-3.5 14.46,0.44 20.16,4.83 -0.44,-9.65 -7.45,-21.04 -1.31,-30.69 l 35.94,-10.08 c 7.46,-5.27 11.84,-18.86 23.24,-15.34 l 13.15,1.75 c 3.07,-7.02 7.45,-13.59 10.08,-20.16 -3.5,-1.76 -7.45,-5.71 -8.77,-9.21 3.95,-21.05 5.27,-42.52 10.53,-62.693 -0.44,-12.273 -8.33,-21.48 -12.72,-32.437 -5.26,0 -10.96,-0.879 -14.9,-5.7 l -3.95,-7.449 c -3.95,1.313 -8.33,2.629 -12.27,3.067 l -17.1,-14.907 -7.45,21.481 -13.59,3.066 c 3.51,16.223 -0.44,33.758 -5.7,48.222 -14.91,-13.151 -12.72,-34.19 -12.72,-53.48 2.2,-9.207 10.97,-16.218 9.21,-27.617 l 13.59,-10.523 c -1.75,-10.52 0.88,-21.039 3.95,-30.684 16.22,7.891 29.37,22.356 42.96,35.946 h 7.89 c -2.63,-8.332 -10.08,-15.344 -8.33,-25.422 7.45,8.324 14.47,17.09 21.92,25.422 l 2.19,-14.028 c 2.19,-0.441 3.95,1.317 5.7,2.629 1.75,1.758 2.63,3.945 3.51,6.578 5.7,2.192 8.76,-3.07 12.71,-5.699 l 13.59,17.535 h 11.84 v -6.574 l 14.9,-0.441 c 3.95,9.644 15.78,3.507 20.17,10.961 3.94,6.136 2.63,17.535 12.71,18.41 3.94,6.574 -0.44,16.218 8.33,20.605 l 5.7,-5.262 -3.95,-8.332 6.57,-0.437 c -1.75,-4.379 2.64,-4.82 4.83,-7.012 3.07,23.672 -2.19,45.153 -12.27,64.005 h 4.82 c 2.19,3.94 -2.63,6.13 -4.39,8.76 l 6.14,13.59 c -14.91,8.33 -5.7,26.31 -9.21,39.9 -2.63,11.39 -7.01,22.35 -10.52,33.32 3.95,20.6 -6.57,39.44 -9.2,59.61 l -9.21,21.48 c 4.39,0.88 9.65,1.32 10.96,6.58 l -2.63,31.56 c -3.51,3.07 -7.45,4.82 -10.96,6.58 8.33,3.94 17.54,6.13 27.62,6.57 0.44,2.64 -2.19,2.19 -3.95,2.19 -21.04,-1.75 -35.07,17.54 -46.46,32.88 -2.64,5.71 0,12.28 0.87,17.98 -7.45,-3.07 -16.65,-4.83 -26.3,-3.95 l 9.2,21.04 c -3.5,4.39 -4.38,12.28 -11.83,12.72 -3.07,-5.71 -9.21,-8.33 -14.91,-9.65 l -7.01,14.91 c -2.19,-0.88 -5.7,-2.64 -8.33,-0.88 l -3.95,5.26 c 0.88,2.19 1.76,4.38 3.08,6.14 -5.27,3.5 -10.53,6.57 -16.22,9.64 3.5,3.51 10.51,4.82 10.95,10.52 -6.13,1.76 -13.15,3.95 -19.28,1.32 -5.26,-3.95 -6.58,-10.08 -9.21,-15.34 h -8.33 c 0.88,6.13 2.63,12.27 3.07,18.84 l -21.04,0.44 c -0.44,-7.01 0,-16.66 -7.9,-19.73 -2.19,0 -4.82,1.76 -4.82,4.39 3.51,24.55 7.02,48.66 10.52,73.21 -0.43,7.01 -4.38,14.03 -10.95,16.22 -7.02,0.88 -15.78,-4.82 -21.05,3.07 -2.19,-12.28 -5.26,-24.11 -14.9,-33.32 -7.45,3.51 -1.32,11.4 -0.88,16.66 -0.44,7.89 0.44,15.34 2.63,22.36 l -4.82,3.5 c -7.45,-20.16 -10.08,-42.96 -23.67,-60.93 -3.95,8.33 -7.02,19.73 -3.07,28.93 -9.65,4.39 -3.95,-7.89 -7.89,-11.4 -0.88,-2.19 -3.51,-3.5 -5.7,-2.63 l -10.52,15.35 c -0.44,-2.19 0.87,-7.02 -3.07,-7.46 -4.39,-3.94 -3.51,3.51 -6.14,5.27 -4.38,4.82 -13.15,8.32 -12.71,15.78 -5.26,-0.44 -12.71,-1.32 -14.9,5.26 -1.32,1.31 -0.88,3.5 -2.2,4.82 l -25.422,-13.15 -0.441,-7.89 c -7.891,4.82 -10.52,13.59 -11.836,21.91 -7.449,3.52 -16.656,7.46 -24.985,4.39 -3.507,-2.2 -4.824,-6.14 -7.015,-9.64 -7.891,2.62 -14.465,13.59 -24.11,6.13 -3.066,-3.51 -3.066,-10.08 -8.328,-11.83 -5.261,0 -8.769,5.7 -11.84,9.64 -3.066,-2.63 -0.875,-11.83 -8.328,-9.64 l -9.64,19.29 c -7.016,-3.95 -14.907,-1.75 -22.36,-0.44 -3.945,-3.07 -2.191,-13.59 -10.519,-8.77 l -1.758,1.75 -0.434,-14.47 h -6.136 l -10.961,22.8 c -3.508,2.19 -7.453,2.63 -11.399,3.95 4.383,-20.16 -1.754,-40.77 -8.769,-58.75 -10.957,19.73 -21.918,39.46 -34.192,58.75 0.442,-6.57 2.192,-13.16 3.071,-20.16 -1.754,0.87 -2.629,2.18 -4.387,3.5 -3.945,-3.95 -0.438,-9.64 -0.879,-14.91 -8.762,-3.5 -8.762,7.46 -12.711,11.41 -1.754,0 -3.508,-1.76 -4.383,-3.08 v -3.06 c -21.043,-0.88 -36.386,-15.35 -53.922,-24.56 -3.941,-2.19 -10.957,0.44 -13.589,-3.94 l -6.137,-17.09 c -4.82,-2.2 -5.695,3.94 -7.887,6.57 -47.789,-9.65 -53.047,-62.25 -70.582,-96.88 -1.312,-17.1 -1.312,-34.64 -5.262,-51.29 0,-7.89 6.575,-14.47 3.071,-23.24 l -3.946,-10.08 h -30.687 c -0.438,1.76 0.879,4.83 -1.317,5.26 h -1.312 l -24.113,-39.89 c -2.192,-0.88 -4.383,-2.19 -6.575,-1.76 l -1.312,1.76 90.742,189.81 0.438,0.45 c -3.504,1.75 -8.332,2.62 -12.274,0.43 l -7.89,-4.82 c 3.07,19.73 24.988,24.99 35.507,40.33 7.016,3.07 16.223,4.38 19.727,12.27 0.879,7.9 -7.012,13.59 -12.273,17.1 0.441,9.21 -9.207,14.47 -14.907,20.61 -6.574,19.72 -27.617,27.17 -45.152,32.44 -25.863,-4.82 -52.168,-8.77 -78.469,-11.84 -20.605,-6.14 -39.453,-16.22 -58.304,-24.98 l -119.676,-65.76 v 5.26 l 78.468,64.44 c 13.149,8.77 27.618,14.47 42.961,17.09 1.317,1.32 0.442,3.07 0.879,4.39 -38.14,-0.88 -69.703,-19.73 -101.707,-35.94 8.77,11.39 20.606,22.35 32.004,30.24 v 7.45 l 27.613,20.17 c 4.829,-4.39 10.086,2.19 14.911,3.5 l 109.152,-0.43 c 14.469,-1.32 23.234,10.52 38.141,7.89 17.093,-1.32 34.195,-2.63 49.097,-9.21 2.192,-0.88 0.879,-3.94 0.442,-5.26 l -2.196,-3.07 c 11.399,-3.94 23.672,-7.01 35.071,-10.96 l 0.441,5.7 -16.223,21.92 c -13.589,4.82 -30.683,11.84 -35.507,27.62 -1.754,2.63 -5.258,3.06 -7.891,3.94 -3.07,13.15 -4.824,26.75 -7.016,40.33 4.383,-0.44 12.715,0.44 10.082,-7.89 4.383,0 8.77,-1.31 10.524,-5.69 l 1.316,-2.64 c 3.508,2.19 7.449,5.7 11.399,8.77 1.312,-2.63 2.629,-6.13 3.066,-9.2 7.891,-2.63 21.043,5.26 23.672,-6.58 6.137,-6.58 16.66,-12.27 18.41,-21.48 10.961,-2.63 22.359,-12.71 26.742,-23.24 l 7.453,-21.47 c 3.508,1.75 7.887,2.19 11.399,3.94 2.191,-7.45 11.836,-14.03 6.574,-22.36 8.328,1.76 7.895,-8.33 13.152,-11.83 0.875,17.1 -0.441,34.19 -0.441,50.85 l 14.031,-3.51 c -4.824,32 -26.304,56.99 -36.386,86.8 9.644,-2.63 16.222,-17.53 28.937,-14.47 0.875,1.32 0.434,3.51 0.434,5.26 9.207,-1.31 16.656,-7.89 21.48,-15.78 7.895,-5.7 15.348,-10.95 23.234,-16.22 -2.628,21.92 -24.55,35.95 -39.015,53.48 -19.285,19.73 -46.906,20.61 -74.086,22.36 -14.027,1.75 -27.18,6.14 -42.082,5.7 -2.192,5.26 -7.453,10.96 -13.156,11.4 -15.778,-3.95 -34.192,-0.87 -47.34,-11.4 -11.836,-7.45 -18.852,14.03 -28.496,3.07 -6.133,-3.95 -8.328,-10.08 -8.328,-17.09 -12.274,-6.58 -23.672,-16.23 -35.508,-23.24 -15.344,-6.58 -33.317,-9.64 -42.086,-26.74 -3.07,-11.84 -16.223,-10.96 -24.547,-15.78 l -22.359,-16.23 c -30.247,-3.5 -51.289,-29.8 -78.907,-40.76 1.313,2.63 3.067,7.01 7.012,9.21 30.688,26.3 62.25,51.29 93.379,77.59 v 1.31 c -3.07,0 -6.141,-2.19 -9.207,-3.07 26.738,26.74 61.809,35.07 92.496,53.92 l -7.012,0.44 c -2.633,11.84 12.711,8.77 18.848,14.47 25.426,14.9 58.742,11.83 80.66,35.07 11.836,1.75 23.234,3.94 34.195,7.45 1.313,3.07 0.438,7.45 3.942,9.64 16.66,8.34 36.387,9.21 55.676,11.84 2.632,13.15 19.289,11.4 30.25,13.59 6.574,0.44 14.027,0 20.601,-1.31 0.442,1.75 -0.879,3.94 -2.191,5.69 -2.192,2.2 -5.696,0.88 -8.766,0.88 0.879,2.63 0.879,6.58 4.383,7.45 24.109,0.44 46.906,3.95 71.453,3.07 2.195,0.44 3.945,2.63 4.387,4.83 v 1.75 c 10.082,0.44 23.234,-3.51 29.367,7.01 l 35.07,-3.94 5.262,9.64 c 14.465,-4.38 28.496,-10.08 44.719,-10.96"
         style="fill:#231f20;fill-opacity:1;fill-rule:evenodd;stroke:none"
         id="path16" /><path
         d="m 925.938,1657.15 36.824,-118.8 -4.387,-5.26 c -22.793,47.34 -35.07,98.63 -51.289,148.61 h 3.945 l 14.907,-24.55"
         style="fill:#ffffff;fill-opacity:1;fill-rule:evenodd;stroke:none"
         id="path18" /><path
         d="m 1125.4,1620.32 -3.51,-8.32 c 0,-35.95 3.07,-74.09 -5.7,-106.53 l -7.01,-0.44 10.08,119.68 c 3.07,0.88 4.38,-3.07 6.14,-4.39"
         style="fill:#ffffff;fill-opacity:1;fill-rule:evenodd;stroke:none"
         id="path20" /><path
         d="m 1225.79,1539.66 c -0.88,-0.43 -1.75,-1.31 -3.07,-0.87 1.32,4.82 -1.32,7.01 -4.39,10.08 5.71,14.03 11.4,28.49 19.29,42.08 4.39,1.76 10.96,-6.13 14.03,1.76 l 9.65,10.52 v -3.94 l -35.51,-59.63"
         style="fill:#ffffff;fill-opacity:1;fill-rule:evenodd;stroke:none"
         id="path22" /><path
         d="m 538.852,1571.23 c -11.399,-1.76 -10.082,-14.47 -17.977,-20.6 l -12.273,22.35 c 2.191,3.95 6.136,3.95 10.523,3.95 0.875,3.07 -1.754,7.45 0.875,10.52 4.387,10.08 10.082,-2.19 14.465,-4.39 2.633,-3.06 5.262,-6.57 4.387,-11.83"
         style="fill:#231f20;fill-opacity:1;fill-rule:evenodd;stroke:none"
         id="path24" /><path
         d="m 553.754,1548 c -5.258,-1.32 -9.207,1.31 -12.707,5.69 0.433,8.77 3.066,16.66 6.57,24.11 14.906,-4.82 3.949,-19.73 6.137,-29.8"
         style="fill:#231f20;fill-opacity:1;fill-rule:evenodd;stroke:none"
         id="path26" /><path
         d="m 828.18,1538.79 c -2.192,-3.51 -3.504,-10.09 -8.328,-10.09 -6.137,10.53 -11.836,21.93 -17.973,32.88 3.941,0.88 7.453,2.19 11.398,3.51 l 14.903,-26.3"
         style="fill:#ffffff;fill-opacity:1;fill-rule:evenodd;stroke:none"
         id="path28" /><path
         d="m 1053.06,1471.28 -14.46,-3.07 c 0.88,14.47 -4.82,29.37 0.44,42.08 l 15.34,-4.38 -1.32,-34.63"
         style="fill:#ffffff;fill-opacity:1;fill-rule:evenodd;stroke:none"
         id="path30" /><path
         d="m 1276.64,1434.45 c -2.19,-0.43 -4.39,-2.18 -6.58,-2.63 l 3.07,6.14 c 19.29,14.9 36.39,35.07 57.43,45.59 v -4.82 l -53.92,-44.28"
         style="fill:#ffffff;fill-opacity:1;fill-rule:evenodd;stroke:none"
         id="path32" /><path
         d="m 1029.39,1380.54 c 3.95,-4.83 6.14,-10.53 7.02,-16.67 -10.09,1.32 -19.29,4.83 -26.75,13.16 4.83,5.7 13.59,8.76 19.73,3.51"
         style="fill:#231f20;fill-opacity:1;fill-rule:evenodd;stroke:none"
         id="path34" /><path
         d="m 559.895,1284.97 -4.383,-0.44 c 3.066,10.96 0.875,21.92 -2.633,32 -1.75,15.34 6.574,27.62 14.465,39.89 -5.699,-0.87 -11.399,-7.45 -13.59,-12.71 -5.699,-17.1 -10.957,-34.19 -16.215,-51.29 -1.32,-0.88 -3.074,-0.44 -4.824,-0.44 l -5.699,14.03 c 9.203,24.11 16.222,49.54 36.386,67.95 3.067,1.31 6.133,2.63 9.645,2.19 -0.879,-3.95 -3.07,-7.45 -4.387,-10.96 5.262,3.51 10.957,10.08 15.781,15.35 h 4.825 l -29.371,-95.57"
         style="fill:#231f20;fill-opacity:1;fill-rule:evenodd;stroke:none"
         id="path36" /><path
         d="m 1001.78,1354.67 c 1.75,-6.14 2.63,-13.15 3.94,-19.73 -7.892,-3.07 -11.833,6.14 -15.779,10.52 -3.949,5.26 -1.316,12.72 1.313,17.98 l 10.526,-8.77"
         style="fill:#231f20;fill-opacity:1;fill-rule:evenodd;stroke:none"
         id="path38" /><path
         d="m 943.473,1328.8 c 0.879,-3.5 1.312,-7.45 3.07,-10.51 h 0.875 l 2.629,33.75 h 8.328 c 3.945,-15.78 0.879,-33.32 -3.941,-47.78 l 5.695,-0.44 c 1.316,15.34 1.754,30.68 2.633,46.03 3.945,-0.88 7.886,-2.2 9.644,-6.14 5.699,-15.34 -5.699,-28.5 -2.191,-43.84 1.75,-2.63 3.941,-3.07 5.695,-0.44 3.512,-0.87 7.016,-2.19 10.082,-3.07 0,7.46 3.071,14.47 9.645,18.42 -2.629,-21.48 0,-44.72 -12.711,-62.25 -2.629,-5.26 -1.754,-13.59 -8.77,-15.35 -13.586,3.07 -7.89,-14.9 -15.781,-19.72 l -9.641,18.41 c -2.632,1.31 -7.015,1.31 -10.082,0 -2.195,-1.76 -2.195,-4.39 -3.07,-6.58 -3.945,-0.43 -8.328,-0.87 -11.398,-3.94 -6.137,-4.83 -0.879,-16.22 -11.399,-16.66 l -10.957,-1.31 c 1.317,-2.63 3.067,-4.83 3.508,-7.89 -5.262,-1.76 -11.84,-3.95 -17.973,-1.76 -3.511,1.76 -7.015,4.38 -10.086,7.89 -1.312,-1.32 -3.066,-3.51 -4.824,-4.38 -3.504,0.87 -5.695,4.82 -9.203,5.7 -7.453,1.31 -13.59,5.7 -19.727,9.64 -3.949,-2.63 -3.949,-7.01 -5.699,-10.52 4.383,-0.44 8.766,-1.76 10.961,-6.14 3.067,-10.08 -7.015,-15.78 -10.961,-23.67 l -0.437,-9.21 c -10.52,-3.94 -9.207,-15.34 -17.102,-21.48 -3.941,-6.13 -2.191,-14.9 -7.887,-21.04 -14.027,1.32 -27.179,11.84 -42.519,4.82 -0.879,7.02 10.516,15.79 0,21.48 h -12.715 c -1.316,-12.27 -14.031,-10.52 -21.922,-14.46 l -25.426,0.87 c -2.191,1.32 -2.625,3.95 -3.503,6.14 -4.825,0.44 -12.278,-1.75 -16.223,3.07 -6.574,8.33 -4.383,21.04 -5.262,31.56 l 2.633,2.63 c 10.957,0.88 20.164,-1.31 30.687,-0.87 -3.07,-7.02 5.258,-5.26 7.891,-7.89 l 7.453,7.45 c 4.821,-1.75 7.449,-6.58 11.836,-9.21 5.262,-1.31 11.399,-0.88 15.777,-3.07 2.192,3.51 1.321,7.89 2.192,11.84 4.824,0.88 10.523,3.51 12.719,8.77 0.437,0.87 0.875,2.19 0.875,3.94 8.765,-2.19 11.836,8.33 16.656,13.16 l 6.141,14.46 c 3.066,2.63 7.449,0.44 11.398,0.44 1.75,9.64 9.641,16.66 10.078,26.74 -6.574,3.07 -12.269,10.08 -20.164,9.65 -3.504,0.87 -3.066,4.82 -4.383,7.01 -8.769,-0.44 -14.906,-8.33 -23.672,-7.01 -2.629,2.19 -2.191,5.69 -2.191,8.76 -9.649,2.63 -23.672,-1.31 -27.621,10.97 -2.629,7 -3.508,14.89 -3.508,22.79 8.332,0 11.398,9.64 17.102,14.46 3.945,-3.94 7.886,-8.32 14.027,-6.13 7.887,4.82 17.531,4.38 26.742,3.07 l -0.879,-19.73 c 2.629,0 5.696,3.5 7.012,6.13 -1.316,5.71 4.387,2.63 7.457,3.07 l 17.094,-1.75 c 1.316,3.51 1.316,8.33 5.258,10.52 2.632,0.44 3.949,-0.88 5.703,-2.19 6.136,6.57 10.957,16.66 22.355,12.28 1.754,6.57 5.262,12.71 11.399,16.21 8.328,3.95 17.972,5.27 28.058,5.27 7.012,13.15 21.039,15.34 32.875,19.28 17.539,0.88 5.699,-21.04 9.645,-30.25"
         style="fill:#231f20;fill-opacity:1;fill-rule:evenodd;stroke:none"
         id="path40" /><path
         d="m 1024.57,1242.89 c -7.89,-8.34 -17.97,-13.16 -28.933,-15.35 2.633,8.33 10.963,18.41 21.043,18.85 3.51,-0.44 6.14,0.88 7.89,-3.5"
         style="fill:#231f20;fill-opacity:1;fill-rule:evenodd;stroke:none"
         id="path42" /><path
         d="m 687.898,1220.96 -2.191,-7.44 20.606,-0.45 c 0,-4.82 -1.317,-8.77 -4.387,-12.27 -3.508,-3.95 -8.328,-5.26 -14.028,-4.82 l -7.89,2.19 v 7.01 l -9.203,0.44 c -3.508,-3.51 -0.442,-14.46 -9.207,-11.4 -4.383,4.39 -10.524,8.33 -7.891,15.78 4.82,11.84 20.602,-0.87 25.426,10.52 3.07,0.88 5.262,0 8.765,0.44"
         style="fill:#231f20;fill-opacity:1;fill-rule:evenodd;stroke:none"
         id="path44" /><path
         d="m 612.059,1163.1 c 6.14,0.88 5.699,11.4 12.277,4.38 3.945,-2.19 2.187,-7.45 1.75,-10.08 -0.438,-0.44 -0.875,-0.88 -0.875,-1.31 8.328,4.38 16.219,-3.07 24.113,-4.39 12.274,0 28.055,1.75 34.192,-10.96 -1.754,-8.33 7.011,-7.01 11.398,-9.65 2.629,-6.57 7.012,-14.9 14.902,-15.34 h 8.332 v -7.89 h -7.453 v 3.95 c -6.578,-4.38 -16.66,-4.83 -24.55,-1.76 -17.094,-17.09 -45.149,-14.46 -66.629,-9.2 l -7.02,-6.57 c 14.027,-4.39 25.867,-12.72 36.828,-24.55 -14.469,-0.88 -28.058,-6.14 -40.773,-12.28 -3.504,-2.19 -2.192,-7.02 -2.625,-10.96 -7.02,-5.26 -7.457,-15.34 -16.66,-17.54 -0.879,-1.31 -0.442,-3.06 -0.442,-4.82 h -10.515 l -4.829,-8.77 -12.273,15.79 c 0.875,18.41 2.633,36.39 4.824,54.35 1.754,1.76 4.383,0.45 6.574,0.88 -0.437,2.64 -2.191,5.26 -3.945,7.46 -9.644,-0.88 -14.906,-11.84 -22.797,-16.66 l -21.918,-17.97 c -16.656,-26.75 -33.316,-53.49 -50.41,-80.23 l -6.578,-0.433 v 6.133 c 21.918,32 35.949,67.51 65.316,96.44 2.192,6.14 8.774,8.77 13.153,12.72 l 6.578,22.35 c -9.207,12.28 -25.426,24.55 -15.785,42.09 8.769,3.07 3.949,-8.33 7.453,-11.84 1.754,-5.7 5.699,-10.52 10.961,-14.47 h 7.89 c 0.438,-4.38 0.879,-8.76 4.821,-11.39 1.754,-2.2 4.383,-2.63 7.015,-3.51 0.438,3.07 0.879,6.14 3.508,7.45 5.258,0.44 9.203,-2.19 13.59,-3.94 -7.016,11.83 -30.25,14.46 -27.18,33.31 0.442,4.82 2.192,8.77 2.633,13.59 7.887,5.26 8.766,-8.32 16.656,-4.38 l 0.438,9.64 c 10.082,-1.31 18.851,-6.57 28.055,-9.64"
         style="fill:#231f20;fill-opacity:1;fill-rule:evenodd;stroke:none"
         id="path46" /><path
         d="m 710.695,1093.84 -21.918,-16.66 h -8.769 v 11.39 l 24.109,12.28 c 2.196,-2.63 8.332,-1.76 6.578,-7.01"
         style="fill:#231f20;fill-opacity:1;fill-rule:evenodd;stroke:none"
         id="path48" /><path
         d="m 1102.16,1043.86 c 4.39,1.32 8.77,8.77 12.72,3.95 l 0.87,-0.88 c -0.87,-9.64 -2.63,-18.85 -9.2,-25.86 l -18.85,29.36 c 5.26,-0.43 10.08,-3.06 14.46,-6.57"
         style="fill:#ffffff;fill-opacity:1;fill-rule:evenodd;stroke:none"
         id="path50" /><path
         d="m 1086.38,1021.94 c 3.07,-9.21 11.4,-17.1 4.82,-27.178 -2.63,-5.699 -8.76,-10.52 -14.46,-13.59 v -6.574 c -2.63,-2.192 -6.58,-3.946 -10.52,-2.633 -3.95,3.07 -3.51,7.894 -3.51,12.277 3.51,3.067 6.58,8.328 3.51,12.711 l -3.95,5.697 c 9.21,4.39 10.52,-10.517 19.29,-7.447 4.82,10.517 -10.08,17.527 -0.88,26.737 h 5.7"
         style="fill:#ffffff;fill-opacity:1;fill-rule:evenodd;stroke:none"
         id="path52" /><path
         d="m 694.035,984.68 c 0,-14.907 1.758,-30.246 -5.699,-42.082 l -6.133,1.312 c -0.441,14.031 2.192,28.934 -2.195,41.207 l -0.438,3.946 14.465,-4.383"
         style="fill:#231f20;fill-opacity:1;fill-rule:evenodd;stroke:none"
         id="path54" /><path
         d="m 1271.81,967.148 -7.01,-24.113 c -7.01,0.438 -14.03,0 -18.41,-6.14 -1.32,1.316 -2.19,3.949 -3.07,6.14 0,10.524 4.39,20.602 14.03,25.863 4.82,0 10.08,0 14.46,-1.75"
         style="fill:#231f20;fill-opacity:1;fill-rule:evenodd;stroke:none"
         id="path56" /><path
         d="m 591.457,962.324 c 0,-7.89 1.316,-17.097 -3.07,-23.234 -14.465,-8.766 -32.875,-0.438 -49.535,-2.629 -3.946,-1.758 -7.454,-4.824 -12.715,-3.508 -3.071,3.508 -1.313,12.274 -9.203,10.082 8.769,-9.207 7.453,-23.234 13.148,-34.195 2.191,-7.449 -3.945,-11.395 -4.82,-17.094 -2.633,-9.207 -7.016,-17.976 -13.59,-25.426 -8.328,1.754 -0.879,10.52 -0.438,15.778 1.754,12.277 12.711,24.55 5.262,37.265 -4.383,7.012 -9.648,17.532 -19.73,17.973 l -10.957,0.437 v 7.454 c 10.082,-3.067 9.64,8.769 16.656,12.714 6.137,4.383 13.152,5.696 21.043,6.137 2.629,-10.082 14.031,0.438 16.66,-9.644 l 26.301,3.507 c 5.699,8.329 17.535,10.082 24.988,4.383"
         style="fill:#231f20;fill-opacity:1;fill-rule:evenodd;stroke:none"
         id="path58" /><path
         d="m 698.859,817.219 c 0.875,-5.258 -0.875,-9.641 -3.945,-13.59 -7.016,-7.016 -15.781,-9.641 -24.551,-11.395 v 10.52 c -7.015,4.383 -3.504,12.715 -3.504,18.848 -6.578,10.086 -6.14,25.425 -20.168,30.691 0,3.941 -1.753,9.645 2.633,11.836 8.328,4.82 17.535,-8.77 24.547,2.191 h 5.262 l 19.726,-49.101"
         style="fill:#231f20;fill-opacity:1;fill-rule:evenodd;stroke:none"
         id="path60" /><path
         d="m 575.676,857.992 c 8.765,-3.945 21.043,-0.879 25.863,-12.715 l 9.645,6.137 c 3.945,-8.766 17.972,-15.781 12.273,-26.738 l -35.945,13.59 -39.895,-4.825 c -13.152,-6.14 -17.535,-21.48 -26.742,-32 h -6.57 c 1.312,13.586 18.847,26.301 6.57,39.016 -3.504,3.504 -7.012,7.012 -7.887,11.836 l 0.875,8.766 c 15.785,-1.754 29.809,6.136 45.59,3.945 l 16.223,-7.012"
         style="fill:#231f20;fill-opacity:1;fill-rule:evenodd;stroke:none"
         id="path62" /><path
         d="m 607.238,799.25 c 8.328,-3.949 4.821,-12.277 5.696,-19.293 h -8.325 c -8.769,3.07 -5.703,12.277 -6.14,19.293 h 8.769"
         style="fill:#231f20;fill-opacity:1;fill-rule:evenodd;stroke:none"
         id="path64" /><path
         d="m 761.105,770.75 c -2.625,-7.449 -10.515,-8.762 -16.656,-9.641 l -3.066,2.629 7.449,17.098 c 3.945,-3.07 17.535,0.437 12.273,-10.086"
         style="fill:#231f20;fill-opacity:1;fill-rule:evenodd;stroke:none"
         id="path66" /><path
         d="m 1060.52,524.383 c -8.33,-2.192 -9.64,7.453 -14.91,11.398 0.44,3.512 -1.31,7.016 1.76,9.645 l 3.94,3.07 9.21,-8.766 v -15.347"
         style="fill:#231f20;fill-opacity:1;fill-rule:evenodd;stroke:none"
         id="path68" /><path
         d="m 1075.42,488.879 0.44,-1.316 -0.44,1.316"
         style="fill:#ffffff;fill-opacity:1;fill-rule:evenodd;stroke:none"
         id="path70" /><path
         d="m 387.348,695.145 c 30.336,5.46 62.371,-9.989 62.371,-43.907 0,-44.656 -69.535,-77.445 -107.969,-70.66 -21.859,3.766 -37.875,22.235 -36.746,44.652 2.074,38.633 48.801,63.879 82.344,69.915"
         style="fill:#231f20;fill-opacity:1;fill-rule:evenodd;stroke:none"
         id="path72" /><path
         d="m 494.566,579.445 -42.023,-85.355 54.078,41.265 c 1.699,1.321 2.828,2.825 2.641,5.086 0,0.567 0,1.508 -0.379,1.887 l -0.942,2.07 c -0.941,1.887 0.942,3.77 2.262,4.711 l 4.711,3.582 17.145,-22.613 -4.711,-3.578 c -2.071,-1.695 -3.391,-1.32 -5.653,0 l -2.824,1.508 c -0.754,0.562 -1.695,0.562 -2.453,0.375 -1.129,-0.375 -2.445,-0.942 -3.391,-1.695 l -100.054,-76.5 -6.598,8.664 57.664,118.144 -76.691,-58.41 c -2.45,-1.883 -6.028,-4.145 -5.844,-7.727 0,-0.566 0.191,-1.129 0.379,-1.695 l 1.887,-3.207 c 0.937,-1.879 -1.133,-3.766 -2.45,-4.711 l -4.527,-3.578 -18.086,23.551 4.711,3.586 c 1.406,1.125 3.187,2.269 4.898,1.129 l 2.071,-1.696 c 0.945,-0.754 2.828,-1.32 3.961,-1.133 2.445,0.192 4.707,2.641 6.593,3.958 l 80.082,61.238 3.204,2.262 c 1.507,1.128 3.394,3.39 2.636,5.468 l -1.32,3.766 c -0.563,2.07 0.941,3.582 2.262,4.711 l 4.711,3.769 22.05,-28.832"
         style="fill:#231f20;fill-opacity:1;fill-rule:evenodd;stroke:none"
         id="path74" /><path
         d="m 538.652,385.176 -29.39,-31.844 -59.168,54.648 4.144,4.516 c 0.942,0.945 1.887,1.891 3.203,1.891 0.567,0 1.133,-0.192 1.508,-0.379 l 3.77,-1.512 c 2.07,-0.75 4.144,0.754 5.465,2.266 l 2.824,2.824 68.402,74.051 c 1.699,1.886 3.957,3.773 4.52,6.222 0.379,1.317 0,3.012 -0.75,4.145 l -1.321,1.883 c -0.379,0.566 -0.566,1.316 -0.379,1.886 0,1.317 0.754,2.262 1.7,3.016 l 4.14,4.52 31.469,-29.204 -3.957,-4.335 c -0.941,-0.942 -1.879,-1.887 -3.199,-2.075 -0.57,0 -1.133,0 -1.699,0.375 l -2.075,1.133 c -0.562,0.375 -1.125,0.375 -1.695,0.567 -3.766,0.378 -6.027,-2.829 -8.289,-5.278 l -75.18,-81.398 8.473,-7.731 c 4.715,-4.332 10.746,-8.855 17.34,-8.101 9.043,1.133 14.695,12.058 22.988,12.441 1.695,0 3.391,-1.133 4.52,-2.078 l 2.636,-2.449"
         style="fill:#231f20;fill-opacity:1;fill-rule:evenodd;stroke:none"
         id="path76" /><path
         d="m 611.203,363.508 -25.82,-38.25 c -1.317,-2.074 -3.203,-4.332 -3.387,-6.781 -0.191,-1.321 0.375,-3.016 1.317,-3.961 l 1.507,-1.696 c 0.563,-0.566 0.754,-1.129 0.754,-1.886 0,-1.317 -0.754,-2.258 -1.316,-3.2 l -3.399,-5.086 -35.421,23.93 3.394,5.086 c 0.75,1.32 2.445,3.203 4.332,2.449 l 2.262,-0.941 c 0.566,-0.188 1.129,-0.188 1.699,-0.188 3.762,0 5.648,3.582 7.344,6.219 l 22.988,34.102 14.133,64.066 c 0.187,1.508 0.566,3.016 0.566,4.524 0.567,4.519 -2.636,6.593 -3.39,10.55 -0.188,1.321 0.754,2.637 1.507,3.582 l 2.821,4.52 38.82,-26.188 -3.582,-3.957 c -1.695,-2.074 -3.391,-3.394 -6.215,-2.828 -0.945,0.188 -2.074,0.567 -3.207,0.567 -3.012,0 -4.332,-3.391 -4.707,-5.844 l -8.859,-43.715 36.933,24.305 c 1.883,1.32 3.77,3.39 3.957,5.652 0.375,2.832 -2.261,4.336 -3.199,6.789 -0.191,0.942 -0.191,1.883 0.371,2.637 l 3.582,6.219 25.438,-17.149 -3.012,-4.519 c -3.394,-4.903 -12.816,-2.075 -17.906,-5.282 l -50.305,-33.726"
         style="fill:#231f20;fill-opacity:1;fill-rule:evenodd;stroke:none"
         id="path78" /><path
         d="M 821.676,337.695 791.148,231.234 c -0.562,-2.453 -1.695,-5.093 -1.128,-7.726 0.183,-1.133 1.128,-2.641 2.261,-3.203 l 2.258,-1.133 c 0.945,-0.563 1.316,-1.883 1.316,-2.824 0,-0.754 0,-1.508 -0.371,-2.075 l -1.699,-6.031 -41.074,12.063 1.504,5.652 c 0.379,1.508 1.512,3.957 3.582,3.766 l 2.449,-0.188 c 4.524,-0.187 5.652,5.278 6.785,8.668 l 30.528,106.461 -4.715,1.32 c -2.449,0.754 -4.899,1.129 -7.348,1.321 -9.422,0.941 -11.308,-9.989 -15.266,-16.016 l -2.257,-3.769 c -0.942,-1.696 -2.075,-2.641 -4.149,-3.02 -0.941,-0.184 -2.07,0 -3.011,0.379 l -3.016,0.945 12.058,42.207 c 3.961,-3.582 9.043,-6.406 14.133,-7.914 l 60.485,-17.148 c 2.64,-0.75 5.84,-1.129 8.668,-0.942 1.507,0 3.203,0.375 4.714,0.754 l -12.25,-42.394 -2.64,0.941 c -9.043,2.449 -4.899,13.004 -4.52,19.973 0.375,8.48 -2.453,12.25 -10.363,14.508 l -6.406,1.886"
         style="fill:#231f20;fill-opacity:1;fill-rule:evenodd;stroke:none"
         id="path80" /><path
         d="m 902.32,268.727 37.5,-3.391 c 0,0 3.957,43.148 4.145,45.789 0,2.641 -0.567,5.652 -3.582,6.598 l -2.074,0.566 c -2.071,0.563 -2.258,3.199 -2.071,4.707 l 0.567,6.031 42.769,-3.769 -0.562,-6.031 c -0.375,-1.696 -0.567,-4.145 -2.828,-4.336 l -2.262,-0.375 c -4.711,-0.563 -4.711,-6.032 -5.086,-9.61 l -9.043,-100.617 c -0.191,-1.32 -0.191,-2.637 -0.191,-3.773 -0.184,-2.637 0.57,-5.836 3.39,-6.59 l 2.262,-0.567 c 1.883,-0.566 2.078,-3.207 2.078,-4.902 l -0.566,-6.027 -42.965,3.957 0.566,6.027 c 0.188,1.695 0.942,3.77 3.016,4.145 l 2.262,0.379 c 4.519,0.753 4.71,6.031 5.085,9.609 l 3.958,45.601 -37.497,3.391 -4.523,-49.555 c -0.375,-2.449 0.945,-5.468 3.582,-6.406 l 2.262,-0.758 c 1.883,-0.754 2.074,-3.015 1.883,-4.711 l -0.379,-6.027 -42.957,3.957 0.562,5.84 c 0.188,1.699 0.754,4.144 2.824,4.523 l 2.45,0.188 c 4.527,0.566 4.71,6.219 5.093,9.801 0,0 9.043,101.75 9.231,104.199 0,3.015 -0.758,5.465 -3.578,6.594 l -2.078,0.757 c -0.938,0.375 -2.071,1.692 -2.258,2.637 0.187,1.317 0.754,8.102 0.754,8.102 l 42.582,-3.957 -0.375,-5.844 c -0.192,-1.504 -0.754,-4.145 -2.828,-4.336 l -2.258,-0.375 c -4.715,-0.375 -4.715,-6.027 -5.09,-9.609 l -3.77,-41.832"
         style="fill:#231f20;fill-opacity:1;fill-rule:evenodd;stroke:none"
         id="path82" /><path
         d="m 1041,253.844 5.84,-56.906 12.63,1.316 c 16.21,1.508 24.69,4.902 25.25,22.238 v 3.391 c 0.19,4.898 1.32,9.609 6.78,10.176 l 3.77,0.566 4.34,-43.527 -85.36,-8.86 -0.76,6.032 c -0.19,1.511 0,4.144 2.08,4.71 l 2.07,0.754 c 3.01,0.754 3.58,3.957 3.58,6.598 0,1.32 -0.19,2.637 -0.38,3.957 l -10.55,100.238 c -0.38,3.774 -0.38,9.047 -5.09,9.614 l -2.26,0.375 c -2.07,0.191 -2.83,2.64 -3.014,4.336 l -0.563,5.839 64.627,6.786 c 3.21,0.375 6.22,1.507 9.05,2.828 l 4.33,1.883 4.33,-42.586 -4.15,-0.563 c -4.89,-0.57 -6.59,5.274 -8.09,8.668 l -2.45,6.777 c -2.64,7.352 -8.11,10.18 -15.46,10.18 -0.94,0 -2.07,0 -3.01,-0.187 l -13.94,-1.321 5.27,-52.008 7.54,0.754 c 13.75,1.508 5.84,15.45 14.7,16.203 l 4.14,0.379 4.15,-40.324 -3.2,-0.375 c -3.59,-0.379 -5.09,0.754 -6.6,3.77 l -1.7,3.578 c -1.12,3.015 -4.14,5.84 -7.53,5.84 -0.57,0 -1.14,0 -1.7,-0.188 l -8.67,-0.941"
         style="fill:#231f20;fill-opacity:1;fill-rule:evenodd;stroke:none"
         id="path84" /><path
         d="m 1186.66,358.418 45.41,20.352 c 5.65,2.449 11.49,4.71 17.52,5.656 21.29,3.012 37.69,-21.672 34.49,-41.078 -1.7,-9.422 -8.67,-15.641 -15.27,-22.235 4.9,1.696 9.99,3.578 15.27,3.578 19.78,0 32.97,-16.957 35.8,-35.425 3.2,-21.102 -11.12,-33.164 -28.45,-40.887 l -46.17,-20.543 -2.45,5.281 c -0.76,1.696 -1.32,3.957 0.38,5.274 l 1.88,1.32 c 0.94,0.754 1.88,2.449 2.07,3.769 0.19,2.258 -1.5,5.086 -2.44,7.161 l -41.27,92.14 -1.7,3.578 c -0.94,2.262 -3.58,4.524 -6.21,3.961 l -2.27,-0.566 c -2.07,-0.379 -3.39,1.883 -3.95,3.203 l -2.64,5.461"
         style="fill:#231f20;fill-opacity:1;fill-rule:evenodd;stroke:none"
         id="path86" /><path
         d="m 1360.95,361.434 25.82,-36.934 2.07,-3.199 c 1.51,-2.074 3.02,-3.012 5.28,-3.012 0.56,0 1.13,0 1.69,0.188 l 2.26,0.941 c 1.89,0.562 3.59,-0.941 4.53,-2.262 l 3.39,-4.902 -35.24,-24.684 -3.39,4.899 c -0.57,0.945 -1.32,2.074 -1.32,3.39 0,0.567 0.19,1.137 0.75,1.7 l 1.51,1.695 c 0.94,0.941 1.32,2.824 1.32,3.957 -0.19,2.453 -2.26,4.902 -3.58,6.785 l -57.84,82.723 c -1.89,2.636 -3.77,6.211 -7.36,6.211 -0.75,0 -1.31,-0.188 -1.88,-0.375 l -2.26,-0.75 c -0.56,-0.192 -1.13,-0.192 -1.7,-0.192 -1.31,0.375 -2.07,1.508 -2.82,2.45 l -3.39,4.898 40.51,28.453 c 4.52,3.207 9.79,5.844 15.26,7.164 20.17,4.707 40.51,-16.773 42.02,-35.992 0.94,-11.684 -5.28,-20.918 -13.76,-27.891 2.83,0.758 6.04,1.7 9.05,1.512 4.9,-0.379 9.61,-3.207 13.76,-5.652 l 34.85,-21.485 c 1.89,-1.129 3.96,-2.449 6.04,-2.824 2.44,-0.566 4.89,0.563 7.15,0.375 1.7,0 2.64,-1.508 3.58,-2.637 l 2.27,-3.39 -25.25,-17.715 -53.71,35.051 c -2.07,1.316 -4.33,3.011 -6.97,2.824 -1.13,0 -1.88,-0.754 -2.64,-1.32"
         style="fill:#231f20;fill-opacity:1;fill-rule:evenodd;stroke:none"
         id="path88" /><path
         d="m 1490.78,432.66 -24.49,-24.121 7.16,-12.242 c 1.5,-2.828 5.46,-10.18 9.98,-8.672 1.32,0.566 3.2,1.508 3.2,1.508 2.83,1.508 4.34,1.508 6.79,-0.942 l 3.96,-3.765 -22.99,-22.426 -3.59,3.582 c -0.94,0.941 -2.25,2.637 -1.87,4.145 l 1.5,5.652 c 0.19,0.566 0.19,1.316 0.19,2.074 -0.76,4.711 -3.96,9.231 -6.41,13.188 l -51.06,85.922 -6.97,3.769 -2.64,1.887 c -0.94,0.562 -1.32,1.695 -1.32,2.636 0,0.567 0,1.129 0.19,1.508 l 4.33,17.524 c 0.19,1.133 0.38,2.828 1.7,3.011 0.38,0.192 0.94,0 1.32,-0.183 l 3.2,-1.887 111.17,-61.992 c 2.64,-1.508 7.35,-5.086 10.55,-4.145 l 5.28,1.696 c 0.38,0.191 0.75,0.191 1.32,0.191 1.13,-0.379 2.07,-1.512 3.01,-2.453 l 3.77,-3.957 -31.09,-30.711 -4.52,4.523 c -0.75,0.754 -1.13,1.504 -1.13,2.637 0,0.938 0.19,1.879 0.75,2.824 l 0.38,0.946 c 0.57,0.941 0.75,2.258 0.75,3.199 -0.18,1.887 -2.07,3.203 -3.57,4.148 l -2.08,1.317 -16.77,9.609"
         style="fill:#231f20;fill-opacity:1;fill-rule:evenodd;stroke:none"
         id="path90" /><path
         d="m 1562.38,527.816 -51.06,59.731 c -1.69,1.891 -3.58,4.902 -6.03,5.469 -3.2,0.566 -7.54,-4.145 -9.99,-2.828 l -6.59,4.144 17.52,24.684 3.96,-2.637 c 1.51,-1.133 3.2,-2.262 3.39,-4.332 0,-2.262 -0.75,-4.336 -0.75,-6.598 0,-2.258 1.69,-4.523 3.01,-6.215 l 81.97,-98.738 -7.35,-10.555 -121.16,42.024 c -2.64,0.75 -5.46,1.695 -8.29,1.316 -2.45,-0.187 -4.14,-2.636 -6.41,-2.824 -1.31,-0.187 -3.2,0.754 -4.14,1.508 l -3.96,2.637 26.2,36.929 3.76,-2.824 c 1.5,-1.133 3.01,-1.887 3.01,-3.957 -0.18,-1.695 -0.75,-3.203 -0.75,-4.898 0,-3.395 4.34,-4.336 6.78,-5.09 l 76.88,-26.946"
         style="fill:#231f20;fill-opacity:1;fill-rule:evenodd;stroke:none"
         id="path92" /><path
         d="m 1597.81,634.469 52.19,-23.93 5.28,11.305 c 2.83,6.219 6.78,14.695 4.9,21.48 -2.27,7.539 -22.05,14.133 -20.16,22.043 0.18,0.946 0.37,1.699 0.75,2.453 l 1.51,3.395 39.76,-18.281 -36.18,-78.2 -5.28,2.45 c -1.51,0.754 -3.77,2.074 -3.2,4.144 l 0.57,2.262 c 0.94,4.527 -4.34,6.598 -7.54,7.918 l -95.35,43.902 c -0.94,0.567 -2.26,0.942 -3.58,0.754 -1.13,0 -3.02,-0.941 -3.77,-1.883 l -1.32,-1.886 c -0.56,-0.754 -2.26,-1.317 -3.2,-1.129 -1.32,0.562 -7.35,3.39 -7.35,3.39 l 27.14,58.981 c 2.07,4.519 2.25,9.23 2.64,13.941 l 39,-17.902 -1.7,-3.77 c -3.39,-7.16 -17.71,-1.125 -23.74,-1.125 -6.79,0 -10.55,-5.468 -13,-11.121 l -5.84,-12.812 47.29,-21.856 4.34,9.231 c 0.37,0.941 0.56,1.882 0.56,3.015 0,3.578 -2.44,6.219 -5.08,8.102 l -1.7,1.32 c -1.89,1.317 -2.27,3.957 -1.32,6.219 l 1.7,3.766 36.93,-17.145 -2.64,-5.09 c -0.38,-0.941 -1.88,-1.504 -2.83,-1.695 -1.5,-0.188 -3.01,0.379 -4.52,0.379 l -1.69,0.187 c -1.13,0.188 -2.08,0.188 -3.21,0.188 -1.88,-0.188 -5.08,-1.696 -5.84,-3.77 l -4.52,-9.23"
         style="fill:#231f20;fill-opacity:1;fill-rule:evenodd;stroke:none"
         id="path94" /><path
         d="m 1716.33,1343.71 10.36,-35.42 1.7,-5.28 c 1.69,-6.03 1.69,-12.44 0,-18.46 -8.1,-31.1 -48.05,-45.6 -76.69,-48.24 -24.68,-2.26 -48.43,4.52 -56.15,29.96 l -11.31,37.87 5.47,1.7 c 0.75,0.18 1.32,0.37 2.07,0.37 0.94,0.19 2.26,0 2.83,-0.94 l 0.94,-1.89 c 0.75,-0.93 2.07,-1.69 3.2,-1.88 2.26,-0.37 4.9,0.76 7.16,1.51 l 96.48,29.02 c 2.45,0.56 4.71,2.07 4.71,4.9 v 1.88 c 0,1.89 2.07,2.83 3.58,3.21 l 5.65,1.69"
         style="fill:#231f20;fill-opacity:1;fill-rule:evenodd;stroke:none"
         id="path96" /><path
         d="m 1747.98,1227.64 6.23,-35.05 -5.47,-1.13 c -0.76,-0.19 -1.51,-0.38 -2.08,-0.19 -0.94,0 -2.44,0.57 -2.82,1.51 l -0.75,1.69 c -1.14,2.27 -4.15,2.83 -6.41,2.27 l -3.58,-0.57 -95.53,-17.33 c -3.02,-0.57 -8.67,-0.95 -9.05,-5.09 l -0.18,-1.88 c -0.2,-2.08 -2.46,-2.64 -3.96,-2.83 l -5.66,-0.95 -6.4,35.05 5.84,1.13 c 0.56,0 1.32,0.19 1.88,0.19 1.13,0 2.07,-0.56 2.64,-1.51 l 0.95,-1.69 c 2.07,-3.77 6.78,-2.26 10.17,-1.7 l 95.53,17.15 c 3.01,0.56 8.67,1.13 8.86,5.27 l 0.19,1.89 c 0,1.88 2.44,2.45 3.96,2.83 l 5.64,0.94"
         style="fill:#231f20;fill-opacity:1;fill-rule:evenodd;stroke:none"
         id="path98" /><path
         d="m 1689.76,1124.19 -55.02,-4.14 0.75,-10.37 c 2.64,-34.67 32.6,-13 33.36,-27.13 v -3.21 l -41.65,-3.2 -5.46,71.41 5.84,0.38 c 1.7,0.19 3.77,0.19 4.52,-1.69 l 0.57,-1.7 c 0.94,-2.64 3.96,-3.2 6.22,-3.01 1.31,0 2.64,0.18 3.76,0.18 l 96.67,7.35 3.95,0.19 c 2.45,0.19 5.09,1.32 5.47,3.96 l 0.37,1.88 c 0.57,1.89 2.64,2.27 4.34,2.27 l 5.66,0.37 4.14,-53.7 c 0.19,-4.14 2.26,-7.54 4.14,-11.12 l -41.07,-3.2 -0.38,3.39 c -0.76,10.55 26.76,3.2 25.44,24.12 l -0.75,11.49 -50.13,-3.76 0.38,-6.22 c 0.75,-10.55 14.51,-4.9 15.07,-12.25 l 0.38,-3.58 -39.01,-3.01 -0.18,2.82 c -0.19,3.02 0.75,4.34 3.77,5.47 l 3.38,1.12 c 3.4,1.14 6.23,3.77 6.04,7.73 l -0.57,7.16"
         style="fill:#231f20;fill-opacity:1;fill-rule:evenodd;stroke:none"
         id="path100" /><path
         d="m 1762.12,991.914 -40.51,1.883 v 2.266 c 0.37,7.157 10.17,7.727 15.44,9.047 l 4.53,1.12 c 6.4,1.51 16.01,5.66 16.01,13.38 0,8.11 -9.79,12.63 -16.77,12.82 -9.79,0.56 -19.4,-5.28 -24.49,-13.76 l -2.26,-3.77 c -10.18,-17.142 -24.68,-28.072 -45.41,-27.13 -20.92,1.132 -46.92,12.81 -46.92,36.93 0,5.66 3.58,9.99 6.22,14.7 l 1.5,2.45 c 0.38,0.38 0.38,1.13 0.38,1.69 0,1.89 -1.5,2.64 -3.02,3.21 l 0.38,8.1 46.55,-2.07 -0.19,-2.83 c -0.19,-6.22 -8.11,-6.41 -12.81,-7.35 l -4.72,-0.75 c -9.23,-1.51 -23.74,-6.22 -23.74,-17.71 0,-11.69 13,-17.53 23.18,-17.53 13.19,0 20.92,7.35 27.51,18.09 l 2.63,3.96 c 9.43,15.45 24.88,22.04 42.78,22.04 17.15,0 39.19,-11.68 39.19,-30.9 0,-4.33 -1.69,-9.23 -4.71,-12.43 l -0.94,-1.14 c -0.95,-0.94 -2.07,-2.44 -2.26,-3.76 -0.19,-1.51 1.31,-3.204 2.64,-3.583 l -0.19,-6.973"
         style="fill:#231f20;fill-opacity:1;fill-rule:evenodd;stroke:none"
         id="path102" /><path
         d="m 1682.22,932.938 -54.45,9.234 -1.7,-10.363 c -0.56,-3.77 -0.94,-7.727 -0.75,-11.684 0.38,-7.348 6.41,-10.93 12.81,-13 l 2.64,-0.754 c 4.52,-1.32 12.06,-2.828 10.93,-8.855 l -0.56,-3.207 -41.27,7.164 12.24,70.468 5.66,-0.941 c 1.32,-0.187 3.77,-0.754 3.96,-2.637 v -2.07 c 0.37,-4.148 6.02,-4.527 9.04,-5.09 l 95.72,-16.394 3.77,-0.754 c 2.08,-0.375 5.28,0.187 6.4,2.449 l 0.76,1.883 c 0.38,0.945 1.69,1.32 2.64,1.32 0.57,0 1.32,0 2.07,-0.187 l 5.66,-0.938 -9.24,-53.328 c -0.19,-1.133 -0.19,-2.266 -0.19,-3.391 0.19,-1.508 0.38,-2.832 0.75,-4.336 l 0.76,-3.957 -40.7,6.973 0.56,3.391 c 0.38,3.015 4.15,4.148 6.6,4.148 l 10.36,0.563 c 7.92,0.375 12.25,4.71 13.57,12.437 l 2.08,11.305 -49.56,8.668 -0.94,-6.407 c -0.2,-0.566 -0.2,-1.32 -0.38,-1.886 -0.76,-8.481 13.19,-6.407 11.87,-13.567 l -0.57,-3.39 -38.63,6.593 0.57,2.641 c 0.94,3.957 3.21,4.332 6.97,4.52 l 1.7,0.191 c 3.77,0.188 6.97,2.07 7.54,6.027 l 1.31,7.161"
         style="fill:#231f20;fill-opacity:1;fill-rule:evenodd;stroke:none"
         id="path104" /><path
         d="m 1625.51,805.75 -39.95,12.25 19.41,64.063 5.65,-1.7 c 1.7,-0.371 3.02,-1.316 3.39,-3.199 l 0.57,-3.578 c 0.19,-1.699 2.83,-3.02 4.14,-3.391 l 96.48,-29.023 c 2.26,-0.754 4.9,-1.883 7.35,-1.504 1.13,0.187 2.26,0.941 3.01,1.883 l 1.13,1.695 c 0.57,0.942 1.7,1.129 2.64,0.942 0.75,0 1.51,-0.188 2.07,-0.375 l 5.47,-1.504 -10.18,-34.297 -5.65,1.695 c -1.32,0.375 -3.77,1.508 -3.58,3.203 l 0.19,1.883 c 0.19,3.957 -5.84,5.465 -8.48,6.219 l -101.94,30.715 -2.83,-9.047 c -0.94,-3.012 -1.51,-6.782 -1.31,-9.985 0.56,-13.757 23.55,-13.757 23.55,-21.859 0,-0.754 -0.19,-1.316 -0.38,-2.07 l -0.75,-3.016"
         style="fill:#231f20;fill-opacity:1;fill-rule:evenodd;stroke:none"
         id="path106" /><path
         d="m 239.055,741.496 -13,34.668 c -3.016,7.731 -4.899,15.266 -3.395,23.746 6.785,37.684 64.442,57.844 98.172,53.699 16.395,-1.882 27.32,-11.496 32.973,-26.566 l 14.136,-36.934 -5.464,-1.882 c -1.321,-0.567 -3.77,-1.321 -4.903,0.375 l -0.941,1.507 c -0.563,0.942 -2.449,1.7 -3.391,1.7 -2.262,0.371 -4.898,-1.137 -6.972,-1.891 l -90.821,-34.289 c -3.207,-1.133 -8.105,-2.453 -7.726,-6.785 v -1.883 c 0.187,-1.887 -1.883,-2.828 -3.391,-3.391 l -5.277,-2.074"
         style="fill:#231f20;fill-opacity:1;fill-rule:evenodd;stroke:none"
         id="path108" /><path
         d="m 199.297,855.117 -8.859,34.672 5.652,1.32 c 0.57,0.188 1.32,0.375 1.887,0.375 0.945,0 2.449,-0.375 2.828,-1.129 l 0.937,-1.699 c 0.571,-1.129 1.699,-2.074 2.832,-2.261 2.446,-0.375 5.082,0.566 7.348,1.132 l 97.793,24.871 c 2.449,0.567 4.523,2.075 4.898,4.711 v 2.075 c 0.192,1.882 2.075,2.636 3.77,3.015 l 5.648,1.317 8.672,-34.485 -5.465,-1.504 c -0.754,0 -1.32,-0.187 -2.07,-0.375 -0.941,0 -2.074,0.375 -2.641,1.317 l -1.129,1.699 c -0.566,0.941 -1.882,1.879 -3.015,2.07 -1.129,0.192 -2.449,0 -3.578,-0.191 l -97.606,-24.867 -3.769,-0.758 c -2.078,-0.563 -4.899,-2.262 -4.899,-4.895 v -1.886 c 0,-1.887 -2.261,-2.828 -3.769,-3.207 l -5.465,-1.317"
         style="fill:#231f20;fill-opacity:1;fill-rule:evenodd;stroke:none"
         id="path110" /><path
         d="m 249.984,962.332 54.645,8.102 -1.508,10.367 c -2.074,13.375 -6.785,19.589 -20.73,19.589 -4.707,0 -13.567,-1.503 -14.321,5.09 l -0.375,3.02 41.457,6.21 10.364,-71.03 c 0,0 -6.407,-0.754 -7.727,-0.946 -0.941,0 -2.449,0.567 -2.637,1.508 l -0.757,1.887 c -0.75,2.453 -4.332,2.824 -6.403,2.453 -1.32,0 -2.453,-0.195 -3.769,-0.383 l -99.868,-14.508 c -2.265,-0.375 -4.898,-1.882 -5.277,-4.332 l -0.187,-1.886 c -0.188,-1.883 -2.453,-2.45 -3.957,-2.825 l -5.84,-0.753 -7.727,53.511 c -0.566,3.953 -3.015,7.535 -4.902,10.926 l 40.887,5.844 0.57,-3.391 c 0.566,-4.148 -5.086,-6.219 -8.102,-7.351 l -3.582,-1.129 c -4.332,-1.504 -12.25,-4.899 -12.25,-10.555 v -6.594 l 1.887,-11.492 49.559,6.977 -0.946,6.402 C 236.98,977.406 223.605,971 222.66,978.348 l -0.375,3.39 38.438,5.653 0.57,-2.637 c 0,-0.754 0.184,-1.32 0,-2.074 -0.191,-2.637 -3.207,-3.578 -5.281,-4.52 l -1.508,-0.562 c -2.824,-1.325 -5.461,-3.395 -5.461,-6.785 0,-0.379 0,-0.758 0,-1.321 l 0.941,-7.16"
         style="fill:#231f20;fill-opacity:1;fill-rule:evenodd;stroke:none"
         id="path112" /><path
         d="m 168.582,1089.33 40.699,0.76 v -2.26 c 0.375,-3.78 -2.261,-5.66 -5.652,-6.79 l -13.566,-4.71 c -6.215,-2.26 -15.45,-6.4 -14.887,-14.51 0.566,-8.29 10.551,-11.49 17.527,-11.49 30.524,0 24.117,49.56 68.965,49.56 19.598,0 49.367,-9.24 49.367,-33.55 0,-3.58 -0.754,-7.34 -2.64,-10.36 l -1.883,-3.39 -0.567,-1.32 c -0.75,-1.32 -2.07,-2.64 -1.695,-4.33 0.188,-1.89 1.504,-2.64 3.203,-3.02 l 0.192,-7.91 -46.543,-1.32 v 2.83 c 0,13.18 39.382,5.27 39.382,28.64 0,12.24 -15.074,15.82 -24.5,15.82 -31.277,0 -23.929,-48.99 -69.527,-48.99 -16.957,0 -40.324,8.1 -41.266,28.08 -0.187,4.71 1.129,8.86 3.77,12.62 l 0.941,1.32 c 0.563,0.94 1.883,2.45 1.883,3.77 0,1.88 -1.695,2.83 -3.015,3.77 l -0.188,6.78"
         style="fill:#231f20;fill-opacity:1;fill-rule:evenodd;stroke:none"
         id="path114" /><path
         d="m 244.141,1153.77 55.023,-5.46 0.938,10.36 c 0.191,1.32 0.191,2.64 0.191,3.96 0,11.12 -2.637,17.15 -13.945,19.79 l -2.637,0.75 c -4.707,1.13 -12.055,1.88 -11.496,8.1 l 0.191,3.02 41.832,-4.34 -7.347,-71.04 -5.653,0.57 c -1.508,0.19 -3.957,0.57 -4.148,2.45 l -0.188,2.07 c -0.566,3.96 -6.41,3.96 -9.422,4.34 l -96.472,9.61 -3.77,0.56 c -2.074,0.19 -5.465,-0.56 -6.41,-2.82 l -0.562,-1.89 c -0.758,-1.69 -3.016,-1.69 -4.524,-1.69 l -5.652,0.56 5.277,53.89 c 0.563,3.96 -0.945,8.1 -2.07,11.68 l 41.074,-4.14 -0.379,-3.58 c -1.129,-10.18 -27.129,1.69 -29.207,-19.04 l -1.129,-11.68 49.934,-5.09 0.566,6.41 c 0,0.76 0,1.32 0,2.08 0,4.52 -3.582,6.59 -7.539,7.72 l -1.883,0.38 c -2.261,0.75 -3.39,2.45 -3.203,4.71 l 0.375,3.39 38.817,-3.96 -0.375,-2.63 c -0.754,-8.48 -14.321,-2.27 -15.453,-11.88 l -0.754,-7.16"
         style="fill:#231f20;fill-opacity:1;fill-rule:evenodd;stroke:none"
         id="path116" /><path
         d="m 292,1284.35 40.516,-9.23 -14.887,-65.19 -5.652,1.32 c -1.508,0.37 -3.391,0.94 -3.766,2.63 l -0.566,3.58 c -0.567,3.02 -5.844,3.58 -8.293,4.15 l -94.59,21.48 c -2.074,0.57 -4.899,1.51 -7.352,0.94 -0.941,-0.19 -2.262,-1.32 -2.824,-2.26 l -0.945,-1.7 c -0.375,-0.94 -1.883,-1.31 -2.633,-1.31 -0.754,0 -1.324,0.19 -2.074,0.37 l -5.469,1.32 7.726,34.67 5.657,-1.13 c 1.32,-0.38 3.957,-1.13 3.957,-3.01 v -1.89 c 0,-4.14 5.84,-5.09 8.668,-5.65 l 103.824,-23.55 2.258,9.23 c 2.453,10.93 -1.883,19.03 -12.621,22.8 l -3.016,1.13 c -3.203,1.13 -8.289,2.45 -8.855,6.4 0,0.57 0,1.32 0.187,1.89 l 0.75,3.01"
         style="fill:#231f20;fill-opacity:1;fill-rule:evenodd;stroke:none"
         id="path118" /><path
         d="m 318.008,618.641 c -1.699,-10.176 5.652,-18.278 15.449,-19.036 23.555,-2.07 101.563,32.79 103.445,59.36 0.567,8.664 -6.593,15.262 -14.882,16.207 -24.118,2.633 -99.68,-30.34 -104.012,-56.531"
         style="fill:#ffffff;fill-opacity:1;fill-rule:evenodd;stroke:none"
         id="path120" /><path
         d="m 1243.56,315.082 3.96,1.887 c 6.22,3.011 11.49,6.972 12.63,14.32 2.07,11.867 -5.47,32.785 -19.04,35.988 -3.77,0.754 -8.1,-0.379 -11.68,-1.886 l -6.97,-3.2 21.1,-47.109"
         style="fill:#ffffff;fill-opacity:1;fill-rule:evenodd;stroke:none"
         id="path122" /><path
         d="m 1271.83,251.957 8.66,3.77 c 6.03,2.828 12.44,6.785 13.76,13.757 3.2,15.071 -7.73,39.758 -24.68,41.641 -5.09,0.566 -9.8,-1.129 -14.32,-3.012 l -7.16,-3.207 23.74,-52.949"
         style="fill:#ffffff;fill-opacity:1;fill-rule:evenodd;stroke:none"
         id="path124" /><path
         d="m 1354.36,370.484 c 6.78,4.329 13,10.36 12.43,19.028 -0.75,13.375 -14.5,34.293 -29.77,32.976 -3.58,-0.379 -6.4,-2.074 -9.23,-4.144 l -4.52,-3.016 31.09,-44.844"
         style="fill:#ffffff;fill-opacity:1;fill-rule:evenodd;stroke:none"
         id="path126" /><path
         d="m 1478.72,439.066 -45.97,25.817 26.56,-44.66 z"
         style="fill:#ffffff;fill-opacity:1;fill-rule:evenodd;stroke:none"
         id="path128" /><path
         d="m 1602.71,1280.02 4.14,-13.75 c 2.08,-6.6 7.92,-10.56 14.51,-11.31 21.29,-2.26 100.43,15.08 96.48,44.66 -0.19,1.31 -0.38,2.45 -0.76,3.76 l -3.01,10 -111.36,-33.36"
         style="fill:#ffffff;fill-opacity:1;fill-rule:evenodd;stroke:none"
         id="path130" /><path
         d="m 347.777,812.91 -5.277,13.567 c -2.262,6.218 -8.289,10.363 -15.07,10.363 -19.977,0 -101.188,-22.613 -93.274,-51.442 0.375,-1.32 0.754,-2.449 1.317,-3.578 l 3.582,-9.988 108.722,41.078"
         style="fill:#ffffff;fill-opacity:1;fill-rule:evenodd;stroke:none"
         id="path132" /></g></g></svg>
