<?xml version="1.0" encoding="UTF-8" standalone="no"?>
<svg
   xmlns:dc="http://purl.org/dc/elements/1.1/"
   xmlns:cc="http://creativecommons.org/ns#"
   xmlns:rdf="http://www.w3.org/1999/02/22-rdf-syntax-ns#"
   xmlns:svg="http://www.w3.org/2000/svg"
   xmlns="http://www.w3.org/2000/svg"
   xmlns:sodipodi="http://sodipodi.sourceforge.net/DTD/sodipodi-0.dtd"
   xmlns:inkscape="http://www.inkscape.org/namespaces/inkscape"
   version="1.1"
   id="svg2"
   xml:space="preserve"
   width="258.66666"
   height="258.66666"
   viewBox="0 0 258.66666 258.66666"
   sodipodi:docname="Louis_Vuitton.eps"><metadata
     id="metadata8"><rdf:RDF><cc:Work
         rdf:about=""><dc:format>image/svg+xml</dc:format><dc:type
           rdf:resource="http://purl.org/dc/dcmitype/StillImage" /></cc:Work></rdf:RDF></metadata><defs
     id="defs6" /><sodipodi:namedview
     pagecolor="#ffffff"
     bordercolor="#666666"
     borderopacity="1"
     objecttolerance="10"
     gridtolerance="10"
     guidetolerance="10"
     inkscape:pageopacity="0"
     inkscape:pageshadow="2"
     inkscape:window-width="640"
     inkscape:window-height="480"
     id="namedview4" /><g
     id="g10"
     inkscape:groupmode="layer"
     inkscape:label="ink_ext_XXXXXX"
     transform="matrix(1.3333333,0,0,-1.3333333,0,258.66667)"><g
       id="g12"
       transform="scale(0.1)"><path
         d="M 2.59766,1933.23 H 1930.16 V 5.66797 H 2.59766 V 1933.23"
         style="fill:#ffffff;fill-opacity:1;fill-rule:evenodd;stroke:none"
         id="path14" /><path
         d="m 1702.41,209.289 h 20.38 V 36.9258 L 1598.17,167.363 V 43.332 h -20.96 v 174.109 l 125.2,-131.0191 z m -585.8,0 V 103.895 c 0,-18.6372 -5.24,-33.7778 -15.72,-45.4223 -11.07,-12.8125 -26.2,-18.6329 -45.42,-18.6329 -18.05,0 -33.19,5.8204 -44.26,18.6329 -11.06,11.6445 -16.3,26.7851 -16.3,45.4223 v 105.394 h 20.97 v -98.41 c 0,-34.3556 12.8,-51.8243 39.59,-51.8243 27.37,0 40.76,17.4687 40.76,51.8243 v 98.41 z m 64.05,0 h 99.58 V 190.07 h -39.6 V 43.332 h -19.8 V 190.07 h -40.18 z m -36.1,0 h 20.96 V 43.332 h -20.96 z m -183.423,0 h 22.711 L 911.641,34.0156 839.438,209.289 h 22.707 L 911.641,86.4219 Z M 1538.78,126.02 c 0,-18.633 -6.41,-34.3559 -19.8,-47.7505 -12.23,-12.8086 -27.95,-19.2148 -46,-19.2148 -18.05,0 -33.77,6.4062 -47.17,19.2148 -13.39,13.3946 -19.79,29.1175 -19.79,47.7505 0,18.632 5.82,34.355 18.63,47.168 12.81,13.39 29.11,19.796 48.33,19.796 19.22,0 34.94,-6.406 47.16,-19.796 12.23,-12.813 18.64,-28.536 18.64,-47.168 z m -4.66,61.14 c -17.47,16.887 -37.85,25.621 -61.14,25.621 -23.87,0 -44.26,-8.734 -61.73,-25.621 -16.88,-16.887 -25.62,-37.265 -25.62,-61.14 0,-24.457 8.74,-44.8403 25.62,-61.7231 16.89,-16.3047 37.27,-24.4571 61.73,-24.4571 23.88,0 44.84,8.1524 61.14,24.4571 16.89,16.8828 25.62,37.2661 25.62,61.7231 0,23.875 -8.73,44.253 -25.62,61.14 z m -153.14,22.129 V 190.07 h -39.02 V 43.332 H 1321 V 190.07 h -39.6 v 19.219 z M 417.852,173.188 c 12.23,-12.813 18.05,-28.536 18.05,-47.168 0,-18.633 -6.402,-34.3559 -19.214,-47.7505 -12.813,-12.8086 -28.532,-19.2148 -46.583,-19.2148 -18.05,0 -33.777,6.4062 -47.167,19.2148 -12.227,13.3946 -19.215,29.1175 -19.215,47.7505 0,18.632 6.402,34.355 18.632,47.168 12.809,13.39 28.532,19.796 47.75,19.796 19.215,0 35.52,-6.406 47.747,-19.796 z m 13.394,13.972 c -17.473,16.887 -37.848,25.621 -61.141,25.621 -23.878,0 -44.839,-8.734 -61.144,-25.621 -17.465,-16.887 -26.203,-37.265 -26.203,-61.14 0,-24.457 8.738,-44.8403 26.203,-61.7231 16.305,-16.3047 36.687,-24.4571 61.144,-24.4571 24.454,0 44.836,8.1524 61.141,24.4571 17.469,16.8828 25.621,37.2661 25.621,61.7231 0,23.875 -8.152,44.253 -25.621,61.14 z m 63.469,-76.281 c 0,-34.3556 13.394,-51.8243 40.18,-51.8243 26.203,0 40.175,17.4687 40.175,51.8243 v 98.41 h 20.383 V 103.895 c 0,-18.6372 -5.242,-33.7778 -16.305,-45.4223 -11.062,-12.8125 -26.203,-18.6329 -44.253,-18.6329 -18.633,0 -33.192,5.8204 -44.254,18.6329 -11.645,11.6445 -16.887,26.7851 -16.887,45.4223 v 105.394 h 20.961 z m -264.363,98.41 V 61.9648 h 50.66 V 43.332 H 209.973 V 209.289 Z M 729.383,141.16 c 27.949,-11.062 41.344,-27.367 41.344,-49.4959 0,-15.1407 -5.243,-27.3672 -15.723,-37.2657 -9.899,-9.8984 -22.125,-14.5586 -36.688,-14.5586 -13.39,0 -25.035,4.0743 -34.933,13.3907 -9.32,8.7343 -15.141,19.7968 -16.887,33.1914 l 20.961,4.6601 c 0,-9.3164 2.91,-16.8867 9.316,-23.2929 6.407,-5.8243 13.391,-8.7344 22.711,-8.7344 8.731,0 15.719,3.4961 22.125,9.8984 5.243,5.8242 8.153,13.3946 8.153,22.711 0,12.8089 -9.317,23.2929 -28.532,31.4449 l -11.644,4.075 c -23.293,11.066 -35.523,25.039 -35.523,42.507 0,12.813 5.242,23.875 14.558,31.446 9.899,8.152 20.965,11.644 34.356,11.644 19.214,0 33.191,-8.734 42.507,-25.621 l -16.3,-9.316 c -6.407,9.898 -15.141,15.14 -26.789,15.14 -6.989,0 -13.977,-1.746 -19.215,-5.824 -5.825,-4.656 -8.735,-10.48 -8.735,-17.469 0,-9.898 7.567,-17.468 23.871,-23.293 z m -105.981,68.129 h 20.965 V 43.332 h -20.965 v 165.957"
         style="fill:#231f20;fill-opacity:1;fill-rule:evenodd;stroke:none"
         id="path16" /><path
         d="M 1441.1,1709.45 1039.47,761.543 928.676,1004.68 1133.34,1561.73 c 15.39,43.08 69.25,63.09 160.04,63.09 l 32.31,84.63 H 848.66 l -30.777,-84.63 c 67.707,0 95.406,-20.01 84.633,-63.09 L 800.957,1278.59 600.91,1709.45 c -36.93,46.17 -18.465,69.25 53.86,69.25 v 100.02 H 193.125 V 1778.7 c 86.176,0 140.031,-23.08 163.117,-69.25 L 694.777,989.293 536.281,566.117 C 533.203,509.184 443.953,481.48 271.605,481.48 L 239.293,396.848 H 1556.51 l 183.12,389.32 h -95.41 C 1554.97,584.582 1451.88,481.48 1336.46,481.48 H 731.711 l 89.25,238.516 76.941,-153.879 h 172.348 l 486.26,1143.333 c 23.08,69.25 83.1,106.18 176.96,106.18 v 89.25 h -397.01 v -89.25 c 120.03,0 153.88,-36.93 104.64,-106.18"
         style="fill:#231f20;fill-opacity:1;fill-rule:evenodd;stroke:none"
         id="path18" /></g></g></svg>
